<svg width="49" height="15" viewBox="0 0 49 15" fill="none" 
  xmlns="http://www.w3.org/2000/svg">
  <rect width="49" height="14.7671" rx="7.38356" fill="white"/>
  <path d="M17.1944 7.81719L16.4856 5.88001C16.4507 5.79409 16.4145 5.69206 16.3769 5.57393C16.3393 5.45579 16.3017 5.32825 16.2641 5.19132C16.2292 5.32825 16.193 5.45713 16.1554 5.57795C16.1178 5.69609 16.0815 5.79946 16.0466 5.88806L15.3418 7.81719H17.1944ZM19.1075 10.0161H18.2698C18.1758 10.0161 18.0993 9.99332 18.0402 9.94768C17.9811 9.89935 17.9368 9.84028 17.9073 9.77047L17.4723 8.58239H15.0599L14.625 9.77047C14.6035 9.83223 14.5619 9.88861 14.5001 9.93962C14.4384 9.99064 14.3618 10.0161 14.2706 10.0161H13.4248L15.7164 4.19253H16.8199L19.1075 10.0161Z" fill="#0167F6"/>
  <path d="M22.4032 6.75798C22.3737 6.79557 22.3441 6.8251 22.3146 6.84658C22.2877 6.86806 22.2475 6.8788 22.1938 6.8788C22.1428 6.8788 22.0931 6.86404 22.0448 6.8345C21.9964 6.80228 21.9387 6.76738 21.8716 6.72979C21.8045 6.68951 21.7239 6.65461 21.6299 6.62508C21.5386 6.59286 21.4245 6.57675 21.2876 6.57675C21.1131 6.57675 20.96 6.60897 20.8285 6.67341C20.6969 6.73516 20.5868 6.8251 20.4982 6.94324C20.4123 7.06138 20.3479 7.20502 20.3049 7.37417C20.262 7.54064 20.2405 7.72993 20.2405 7.94204C20.2405 8.1622 20.2633 8.3582 20.3089 8.53004C20.3573 8.70187 20.4257 8.84686 20.5143 8.96499C20.6029 9.08045 20.7103 9.16905 20.8365 9.2308C20.9627 9.28987 21.105 9.31941 21.2634 9.31941C21.4219 9.31941 21.5494 9.30061 21.646 9.26302C21.7454 9.22275 21.8286 9.17979 21.8957 9.13415C21.9629 9.08582 22.0206 9.04286 22.0689 9.00527C22.1199 8.96499 22.1763 8.94486 22.2381 8.94486C22.3186 8.94486 22.379 8.97573 22.4193 9.03749L22.7052 9.39995C22.5952 9.52883 22.4757 9.63757 22.3468 9.72617C22.2179 9.81209 22.0837 9.8819 21.9441 9.9356C21.8071 9.98661 21.6648 10.0229 21.5172 10.0443C21.3722 10.0658 21.2272 10.0766 21.0822 10.0766C20.8271 10.0766 20.5868 10.0296 20.3613 9.9356C20.1358 9.83894 19.9384 9.69932 19.7693 9.51675C19.6001 9.33417 19.4659 9.11132 19.3665 8.8482C19.2699 8.58239 19.2216 8.28034 19.2216 7.94204C19.2216 7.63864 19.2645 7.35806 19.3504 7.10031C19.439 6.83987 19.5679 6.61568 19.7371 6.42773C19.9062 6.2371 20.1156 6.08809 20.3653 5.98069C20.615 5.8733 20.9023 5.8196 21.2272 5.8196C21.536 5.8196 21.8058 5.86927 22.0367 5.96861C22.2703 6.06795 22.4797 6.21025 22.665 6.39551L22.4032 6.75798Z" fill="#0167F6"/>
  <path d="M27.4972 10.0161H26.5025V6.6291H24.5854V8.86834C24.5854 8.99721 24.6163 9.0979 24.678 9.17039C24.7425 9.24288 24.8297 9.27913 24.9398 9.27913C25.0016 9.27913 25.0526 9.27242 25.0929 9.25899C25.1358 9.24288 25.1721 9.22678 25.2016 9.21067C25.2338 9.19456 25.262 9.17979 25.2862 9.16636C25.3103 9.15025 25.3345 9.1422 25.3587 9.1422C25.3882 9.1422 25.4124 9.15025 25.4312 9.16636C25.45 9.17979 25.4701 9.20127 25.4916 9.2308L25.7896 9.71409C25.6446 9.83491 25.4782 9.9262 25.2902 9.98795C25.1023 10.0497 24.9076 10.0806 24.7062 10.0806C24.3465 10.0806 24.0699 9.9799 23.8766 9.77853C23.686 9.57447 23.5906 9.2939 23.5906 8.9368V6.6291H23.1678C23.1141 6.6291 23.0684 6.61165 23.0308 6.57675C22.9933 6.54184 22.9745 6.48949 22.9745 6.41968V6.02499L23.639 5.91223L23.8484 4.78858C23.8618 4.73488 23.8873 4.69327 23.9249 4.66373C23.9625 4.6342 24.0108 4.61943 24.0699 4.61943H24.5854V5.92028H27.4972V10.0161ZM27.6704 4.66373C27.6704 4.74965 27.6529 4.83154 27.618 4.90941C27.5831 4.98458 27.5362 5.05036 27.4771 5.10675C27.4207 5.16313 27.3522 5.20877 27.2717 5.24368C27.1938 5.2759 27.1106 5.29201 27.022 5.29201C26.9361 5.29201 26.8555 5.2759 26.7803 5.24368C26.7052 5.20877 26.6394 5.16313 26.583 5.10675C26.5266 5.05036 26.481 4.98458 26.4461 4.90941C26.4139 4.83154 26.3977 4.74965 26.3977 4.66373C26.3977 4.57513 26.4139 4.49324 26.4461 4.41806C26.481 4.3402 26.5266 4.27308 26.583 4.21669C26.6394 4.15762 26.7052 4.11198 26.7803 4.07976C26.8555 4.04486 26.9361 4.0274 27.022 4.0274C27.1106 4.0274 27.1938 4.04486 27.2717 4.07976C27.3522 4.11198 27.4207 4.15762 27.4771 4.21669C27.5362 4.27308 27.5831 4.3402 27.618 4.41806C27.6529 4.49324 27.6704 4.57513 27.6704 4.66373Z" fill="#0167F6"/>
  <path d="M32.2379 5.88404L30.5988 10.0161H29.6966L28.0575 5.88404H28.8791C28.9542 5.88404 29.016 5.90149 29.0643 5.93639C29.1153 5.9713 29.1489 6.0156 29.165 6.0693L29.9624 8.27631C30.0054 8.40519 30.043 8.53138 30.0752 8.65488C30.1074 8.77839 30.1356 8.9019 30.1598 9.02541C30.1866 8.9019 30.2162 8.77839 30.2484 8.65488C30.2806 8.53138 30.3195 8.40519 30.3652 8.27631L31.1787 6.0693C31.1975 6.0156 31.2311 5.9713 31.2794 5.93639C31.3277 5.90149 31.3854 5.88404 31.4526 5.88404H32.2379Z" fill="#0167F6"/>
  <path d="M35.3043 7.47486C35.3043 7.34598 35.2855 7.22516 35.2479 7.11239C35.213 6.99694 35.1593 6.89625 35.0869 6.81034C35.0144 6.72442 34.9217 6.6573 34.809 6.60897C34.6989 6.55795 34.57 6.53245 34.4223 6.53245C34.135 6.53245 33.9082 6.61434 33.7417 6.77812C33.5779 6.9419 33.4732 7.17414 33.4276 7.47486H35.3043ZM33.4074 8.07494C33.4235 8.28705 33.4611 8.47097 33.5202 8.62669C33.5793 8.77973 33.6571 8.90727 33.7538 9.0093C33.8504 9.10864 33.9646 9.18382 34.0961 9.23483C34.2304 9.28316 34.378 9.30732 34.5391 9.30732C34.7002 9.30732 34.8385 9.28853 34.9539 9.25094C35.0721 9.21335 35.1741 9.17173 35.26 9.12609C35.3486 9.08045 35.4252 9.03883 35.4896 9.00124C35.5567 8.96365 35.6212 8.94486 35.6829 8.94486C35.7661 8.94486 35.8279 8.97573 35.8682 9.03749L36.1541 9.39995C36.044 9.52883 35.9205 9.63757 35.7836 9.72617C35.6467 9.81209 35.503 9.8819 35.3527 9.9356C35.205 9.98661 35.0533 10.0229 34.8976 10.0443C34.7445 10.0658 34.5955 10.0766 34.4505 10.0766C34.1632 10.0766 33.8961 10.0296 33.6491 9.9356C33.4021 9.83894 33.1873 9.69798 33.0047 9.51272C32.8221 9.32478 32.6785 9.09387 32.5738 8.82001C32.469 8.54346 32.4167 8.22395 32.4167 7.86149C32.4167 7.57957 32.4623 7.3151 32.5536 7.06809C32.6449 6.81839 32.7751 6.60225 32.9443 6.41968C33.1161 6.23442 33.3242 6.08809 33.5685 5.98069C33.8155 5.8733 34.0934 5.8196 34.4022 5.8196C34.6626 5.8196 34.9029 5.86121 35.1231 5.94445C35.3433 6.02768 35.5326 6.14984 35.691 6.31094C35.8494 6.46935 35.9729 6.66535 36.0615 6.89894C36.1528 7.12984 36.1984 7.39431 36.1984 7.69234C36.1984 7.84269 36.1823 7.94472 36.1501 7.99842C36.1179 8.04943 36.0561 8.07494 35.9648 8.07494H33.4074Z" fill="#0167F6"/>
</svg>
