<svg width="57" height="18" viewBox="0 0 57 18" fill="none" 
  xmlns="http://www.w3.org/2000/svg">
  <path fill-rule="evenodd" clip-rule="evenodd" d="M9.06677 1.50881C9.33805 1.82183 9.30421 2.2955 8.9912 2.56678L3.01054 7.75001H17C17.4142 7.75001 17.75 8.0858 17.75 8.50001C17.75 8.91423 17.4142 9.25001 17 9.25001H3.01054L8.9912 14.4332C9.30421 14.7045 9.33805 15.1782 9.06677 15.4912C8.79549 15.8042 8.32182 15.8381 8.0088 15.5668L0.508802 9.06678C0.34443 8.92432 0.25 8.71752 0.25 8.50001C0.25 8.2825 0.34443 8.0757 0.508802 7.93325L8.0088 1.43324C8.32182 1.16196 8.79549 1.1958 9.06677 1.50881Z" fill="#0F0D55"/>
  <path d="M29.442 13.6125C29.837 13.6125 30.1695 13.5675 30.4395 13.4775C30.7145 13.3825 30.937 13.255 31.107 13.095C31.282 12.935 31.407 12.7475 31.482 12.5325C31.562 12.3125 31.602 12.0775 31.602 11.8275C31.602 11.3175 31.427 10.9175 31.077 10.6275C30.732 10.3325 30.1845 10.185 29.4345 10.185H27.267V13.6125H29.442ZM27.267 5.57252V8.94752H29.022C29.772 8.94752 30.332 8.80252 30.702 8.51252C31.072 8.22252 31.257 7.80502 31.257 7.26002C31.257 6.66502 31.082 6.23502 30.732 5.97002C30.387 5.70502 29.8445 5.57252 29.1045 5.57252H27.267ZM29.1045 4.20002C29.7945 4.20002 30.3845 4.26752 30.8745 4.40252C31.3645 4.53252 31.767 4.72002 32.082 4.96502C32.397 5.21002 32.627 5.51002 32.772 5.86502C32.922 6.21502 32.997 6.61002 32.997 7.05002C32.997 7.30502 32.957 7.55252 32.877 7.79252C32.802 8.02752 32.682 8.25002 32.517 8.46002C32.357 8.66502 32.1545 8.85002 31.9095 9.01502C31.6645 9.18002 31.3745 9.31752 31.0395 9.42752C32.5695 9.75252 33.3345 10.565 33.3345 11.865C33.3345 12.325 33.247 12.7475 33.072 13.1325C32.902 13.5125 32.652 13.8425 32.322 14.1225C31.997 14.3975 31.5945 14.6125 31.1145 14.7675C30.6345 14.9225 30.087 15 29.472 15H25.512V4.20002H29.1045Z" fill="#0F0D55"/>
  <path d="M38.9821 11.655C38.4071 11.675 37.9221 11.7225 37.5271 11.7975C37.1321 11.8675 36.8121 11.96 36.5671 12.075C36.3221 12.185 36.1446 12.3175 36.0346 12.4725C35.9296 12.6275 35.8771 12.7975 35.8771 12.9825C35.8771 13.1625 35.9046 13.3175 35.9596 13.4475C36.0196 13.5725 36.0996 13.6775 36.1996 13.7625C36.3046 13.8425 36.4246 13.9025 36.5596 13.9425C36.6996 13.9775 36.8521 13.995 37.0171 13.995C37.4371 13.995 37.7971 13.9175 38.0971 13.7625C38.4021 13.6025 38.6971 13.3725 38.9821 13.0725V11.655ZM34.7071 8.41502C35.5721 7.61002 36.6021 7.20752 37.7971 7.20752C38.2371 7.20752 38.6271 7.28002 38.9671 7.42502C39.3121 7.56502 39.5996 7.76502 39.8296 8.02502C40.0646 8.28502 40.2421 8.59502 40.3621 8.95502C40.4871 9.31002 40.5496 9.70503 40.5496 10.14V15H39.8296C39.6746 15 39.5571 14.9775 39.4771 14.9325C39.3971 14.8825 39.3296 14.785 39.2746 14.64L39.1171 14.0175C38.9221 14.1925 38.7296 14.35 38.5396 14.49C38.3496 14.625 38.1521 14.74 37.9471 14.835C37.7471 14.93 37.5296 15 37.2946 15.045C37.0646 15.095 36.8096 15.12 36.5296 15.12C36.2196 15.12 35.9296 15.0775 35.6596 14.9925C35.3946 14.9075 35.1646 14.78 34.9696 14.61C34.7746 14.435 34.6196 14.22 34.5046 13.965C34.3946 13.71 34.3396 13.41 34.3396 13.065C34.3396 12.77 34.4171 12.4825 34.5721 12.2025C34.7321 11.9225 34.9921 11.6725 35.3521 11.4525C35.7171 11.2275 36.1946 11.0425 36.7846 10.8975C37.3796 10.7525 38.1121 10.67 38.9821 10.65V10.14C38.9821 9.59003 38.8646 9.18002 38.6296 8.91002C38.3946 8.64002 38.0496 8.50502 37.5946 8.50502C37.2846 8.50502 37.0246 8.54502 36.8146 8.62502C36.6046 8.70002 36.4221 8.78252 36.2671 8.87252C36.1121 8.96252 35.9746 9.04752 35.8546 9.12752C35.7346 9.20252 35.6071 9.24002 35.4721 9.24002C35.3621 9.24002 35.2671 9.21252 35.1871 9.15752C35.1121 9.09752 35.0496 9.02502 34.9996 8.94002L34.7071 8.41502Z" fill="#0F0D55"/>
  <path d="M47.846 8.85002C47.796 8.91502 47.7485 8.96502 47.7035 9.00002C47.6585 9.03502 47.5935 9.05252 47.5085 9.05252C47.4235 9.05252 47.3335 9.02252 47.2385 8.96252C47.1485 8.90252 47.0385 8.83752 46.9085 8.76752C46.7835 8.69252 46.631 8.62502 46.451 8.56502C46.271 8.50502 46.046 8.47502 45.776 8.47502C45.426 8.47502 45.1185 8.53752 44.8535 8.66252C44.5935 8.78752 44.3735 8.96752 44.1935 9.20252C44.0185 9.43252 43.886 9.71502 43.796 10.05C43.711 10.38 43.6685 10.7525 43.6685 11.1675C43.6685 11.5975 43.716 11.98 43.811 12.315C43.906 12.65 44.041 12.9325 44.216 13.1625C44.396 13.3925 44.611 13.5675 44.861 13.6875C45.116 13.8075 45.401 13.8675 45.716 13.8675C46.026 13.8675 46.2785 13.83 46.4735 13.755C46.6685 13.68 46.831 13.5975 46.961 13.5075C47.091 13.4175 47.201 13.335 47.291 13.26C47.386 13.185 47.486 13.1475 47.591 13.1475C47.721 13.1475 47.821 13.1975 47.891 13.2975L48.3485 13.89C48.1635 14.115 47.9585 14.305 47.7335 14.46C47.5085 14.615 47.271 14.7425 47.021 14.8425C46.771 14.9375 46.511 15.005 46.241 15.045C45.971 15.09 45.6985 15.1125 45.4235 15.1125C44.9485 15.1125 44.5035 15.025 44.0885 14.85C43.6785 14.67 43.3185 14.4125 43.0085 14.0775C42.7035 13.7375 42.461 13.325 42.281 12.84C42.106 12.35 42.0185 11.7925 42.0185 11.1675C42.0185 10.6025 42.0985 10.08 42.2585 9.60002C42.4185 9.11502 42.651 8.69752 42.956 8.34752C43.266 7.99752 43.6485 7.72502 44.1035 7.53002C44.5585 7.33002 45.0835 7.23002 45.6785 7.23002C46.2335 7.23002 46.721 7.32002 47.141 7.50002C47.566 7.68002 47.9435 7.93502 48.2735 8.26502L47.846 8.85002Z" fill="#0F0D55"/>
  <path d="M51.2581 3.90002V10.335H51.6031C51.7131 10.335 51.8031 10.32 51.8731 10.29C51.9431 10.26 52.0156 10.1975 52.0906 10.1025L54.2356 7.65002C54.3106 7.55002 54.3931 7.47502 54.4831 7.42502C54.5731 7.37502 54.6881 7.35002 54.8281 7.35002H56.2906L53.7106 10.26C53.5606 10.455 53.3956 10.61 53.2156 10.725C53.3156 10.795 53.4031 10.875 53.4781 10.965C53.5531 11.05 53.6256 11.1475 53.6956 11.2575L56.4481 15H55.0081C54.8781 15 54.7656 14.98 54.6706 14.94C54.5806 14.895 54.5006 14.815 54.4306 14.7L52.2181 11.7C52.1431 11.585 52.0681 11.5125 51.9931 11.4825C51.9181 11.4475 51.8056 11.43 51.6556 11.43H51.2581V15H49.6456V3.90002H51.2581Z" fill="#0F0D55"/>
</svg>
