<svg width="16" height="16" viewBox="0 0 16 16" fill="none" 
  xmlns="http://www.w3.org/2000/svg">
  <g clip-path="url(#clip0)">
    <path d="M15.2661 14.542H0.727133C0.32544 14.542 0 14.8674 0 15.2695C0 15.6708 0.32544 15.9963 0.727133 15.9963H15.2657C15.6674 15.9963 15.9929 15.6708 15.9929 15.2695C15.9925 14.8674 15.6671 14.542 15.2661 14.542Z" fill="#0167F6"/>
    <path d="M1.6357 12.6516C1.23401 12.6516 0.908569 12.9771 0.908569 13.3787C0.908569 13.7804 1.23401 14.1062 1.6357 14.1062H14.3571C14.7588 14.1062 15.0843 13.7804 15.0843 13.3787C15.0843 12.9771 14.7588 12.6516 14.3571 12.6516H14.1757V6.10878H14.3571C14.5583 6.10878 14.7204 5.94606 14.7204 5.74555C14.7204 5.54504 14.5576 5.38232 14.3571 5.38232H1.6357C1.43486 5.38232 1.27248 5.54504 1.27248 5.74555C1.27248 5.94606 1.4352 6.10878 1.6357 6.10878H1.81749V12.6513H1.6357V12.6516ZM12.7214 6.10878V12.6513H10.5407V6.10878H12.7214ZM9.08644 6.10878V12.6513H6.90572V6.10878H9.08644ZM3.27107 6.10878H5.45179V12.6513H3.27107V6.10878Z" fill="#0167F6"/>
    <path d="M0.727147 4.72874H15.2657C15.2681 4.72874 15.2708 4.72874 15.2729 4.72874C15.6749 4.72874 16 4.4033 16 4.00161C16 3.6823 15.7944 3.41166 15.5088 3.31362L8.29533 0.0677347C8.10572 -0.0173699 7.88887 -0.0173699 7.69892 0.0677347L0.428941 3.33881C0.116096 3.47975 -0.0558148 3.81948 0.0163539 4.15446C0.0881822 4.48943 0.384346 4.72874 0.727147 4.72874Z" fill="#0167F6"/>
  </g>
  <defs>
    <clipPath id="clip0">
      <rect width="16" height="16" fill="white"/>
    </clipPath>
  </defs>
</svg>
