<svg width="19" height="19" viewBox="0 0 19 19" fill="none" 
  xmlns="http://www.w3.org/2000/svg">
  <path d="M8.56452 13.1483L8.31481 15.3938C8.30245 15.5055 8.33838 15.6176 8.41337 15.7015C8.48837 15.7854 8.59584 15.8333 8.70832 15.8333H10.2917C10.4042 15.8333 10.5116 15.7854 10.5866 15.7015C10.6616 15.6176 10.6976 15.5055 10.6852 15.3938L10.4355 13.1483C10.841 12.8534 11.0833 12.3868 11.0833 11.875C11.0833 11.0018 10.3732 10.2916 9.49998 10.2916C8.62672 10.2916 7.91663 11.0018 7.91663 11.875C7.91663 12.3868 8.15903 12.8534 8.56452 13.1483ZM9.49998 11.0833C9.93639 11.0833 10.2916 11.4386 10.2916 11.875C10.2916 12.1784 10.1192 12.4502 9.84168 12.5847C9.69054 12.6581 9.60203 12.8182 9.62059 12.9848L9.84944 15.0416H9.15056L9.37941 12.9848C9.39797 12.8181 9.30946 12.6581 9.15831 12.5847C8.88077 12.4502 8.70836 12.1784 8.70836 11.875C8.70832 11.4386 9.06357 11.0833 9.49998 11.0833Z" fill="#0167F6"/>
  <path d="M16.2292 7.125H15.0417V5.54165C15.0417 2.48596 12.5557 0 9.5 0C6.44427 0 3.95835 2.48596 3.95835 5.54165V7.125H2.77085C2.55205 7.125 2.375 7.30205 2.375 7.52085V17.4167C2.375 18.2899 3.08509 19 3.95835 19H15.0417C15.9149 19 16.625 18.2899 16.625 17.4167V7.52085C16.625 7.30205 16.448 7.125 16.2292 7.125ZM4.75 5.54165C4.75 2.92236 6.88071 0.791654 9.5 0.791654C12.1193 0.791654 14.25 2.92236 14.25 5.54165V7.125H13.4583V5.54165C13.4583 3.35914 11.6825 1.58331 9.5 1.58331C7.31749 1.58331 5.54165 3.35918 5.54165 5.54165V7.125H4.75V5.54165ZM12.6667 5.54165V7.125H6.33335V5.54165C6.33335 3.79558 7.75393 2.375 9.5 2.375C11.2461 2.375 12.6667 3.79558 12.6667 5.54165ZM15.8333 17.4167C15.8333 17.8531 15.4781 18.2083 15.0417 18.2083H3.95835C3.52194 18.2083 3.16669 17.8531 3.16669 17.4167V7.91665H15.8333V17.4167Z" fill="#0167F6"/>
</svg>
