<svg width="28" height="26" viewBox="0 0 28 26" fill="none" xmlns="http://www.w3.org/2000/svg">
<g style="mix-blend-mode:difference" opacity="0.7">
<path d="M27.9949 8.80002C27.9487 8.00156 26.999 7.37762 25.0997 6.90162C25.1636 6.76162 25.1995 6.61602 25.2 6.46482V3.20002H25.1921C25.025 0.480291 13.8801 0.400024 12.6 0.400024C11.3199 0.400024 0.175 0.480291 0.00793333 3.20002H0V3.26069V6.46622C0.00233333 7.35289 1.1466 8.04682 2.849 8.56342C2.82567 8.64089 2.81167 8.71976 2.807 8.80002H2.8V8.86069V12.0606C0.966 12.5329 0.0499333 13.148 0.00466667 13.9334H0V13.994V17.1996C0.0014 17.817 0.558133 18.3406 1.46907 18.7769C1.43453 18.8716 1.41307 18.9682 1.407 19.0672H1.4V19.1278V22.3334C1.40373 23.8855 4.8986 24.8492 8.78173 25.299C8.8102 25.3046 8.83633 25.3163 8.86667 25.3163C8.87553 25.3163 8.883 25.3116 8.89187 25.3112C9.6404 25.3956 10.4011 25.4614 11.1538 25.5086C11.1697 25.5104 11.1837 25.5179 11.2 25.5179C11.2089 25.5179 11.2159 25.5132 11.2243 25.5128C12.18 25.5706 13.1203 25.6 14 25.6C14.8797 25.6 15.82 25.5706 16.7757 25.5123C16.7841 25.5128 16.7916 25.5174 16.8 25.5174C16.8163 25.5174 16.8303 25.5095 16.8462 25.5081C17.5989 25.461 18.3596 25.3956 19.1081 25.3107C19.117 25.3107 19.1245 25.3154 19.1333 25.3154C19.1637 25.3154 19.1898 25.3037 19.2183 25.2981C23.1014 24.8482 26.5958 23.8841 26.6 22.3315V19.0667H26.5925C26.5599 18.4946 26.0722 18.0172 25.109 17.6182C25.1678 17.4833 25.2 17.3433 25.2 17.1982V14.148C26.8753 13.6328 27.9977 12.9436 28 12.0648V8.80002H27.9949ZM24.2163 17.3498L24.0571 17.4894C23.8121 17.7054 23.4038 17.9234 22.8667 18.1334V15.9083C23.4215 15.7151 23.8938 15.5009 24.2667 15.2662V17.1972C24.2667 17.2453 24.2489 17.2966 24.2163 17.3498ZM13.7788 19.5184C13.7107 19.5203 13.6421 19.5212 13.5735 19.5226C13.4069 19.5259 13.2361 19.5268 13.0671 19.5282V17.1972C13.1955 17.1958 13.3238 17.194 13.4521 17.1916C13.4769 17.1912 13.5016 17.1907 13.5263 17.1902C13.9963 17.1814 14.4662 17.1669 14.9338 17.1454V19.4755C14.8339 19.4806 14.7336 19.4853 14.6323 19.4895C14.3514 19.5021 14.0677 19.5114 13.7788 19.5184ZM11.7409 19.525C11.5271 19.5212 11.3143 19.5161 11.1029 19.5096C11.0768 19.5086 11.0507 19.5077 11.0245 19.5068C10.7702 19.4984 10.5177 19.4876 10.2671 19.4755V17.1459C10.7347 17.1678 11.2047 17.1823 11.6746 17.1907C11.6993 17.1912 11.7241 17.1916 11.7483 17.1921C11.8767 17.1944 12.005 17.1963 12.1333 17.1977V19.5301C12.0428 19.5292 11.9523 19.5292 11.8622 19.5278C11.8211 19.5268 11.7815 19.5254 11.7409 19.525ZM3.31193 18.461C3.29653 18.4563 3.28207 18.4521 3.26667 18.4479V16.1934C3.70253 16.311 4.17107 16.4184 4.66667 16.5159V18.7937C4.23827 18.7027 3.843 18.607 3.4832 18.509C3.42627 18.4927 3.36747 18.4773 3.31193 18.461ZM13.1483 22.3254C13.2767 22.3278 13.405 22.3296 13.5333 22.331V24.6639C12.8884 24.6578 12.2659 24.6392 11.6667 24.6098V22.2797C12.1343 22.3016 12.6042 22.3161 13.0741 22.3245C13.0989 22.3245 13.1236 22.325 13.1483 22.3254ZM14.9259 22.324C15.3958 22.3152 15.8657 22.3007 16.3333 22.2792V24.6093C15.7341 24.6387 15.1116 24.6574 14.4667 24.6634V22.3306C14.595 22.3292 14.7233 22.3273 14.8517 22.325C14.8764 22.325 14.9011 22.3245 14.9259 22.324ZM18.6667 22.1131V24.4306C18.2182 24.4777 17.7515 24.5192 17.2667 24.5533V22.226C17.7399 22.1952 18.2075 22.1574 18.6667 22.1131ZM19.6 22.0123C20.0811 21.9544 20.5483 21.8886 21 21.8154V24.1067C20.5604 24.1842 20.0933 24.2556 19.6 24.3204V22.0123ZM21.9333 21.6488C22.4289 21.5512 22.8975 21.4439 23.3333 21.3263V23.5808C22.9175 23.7007 22.4495 23.8169 21.9333 23.9266V21.6488ZM6.06667 21.6488V23.9266C5.55053 23.8169 5.08247 23.7007 4.66667 23.5808V21.3263C5.10253 21.4439 5.57107 21.5517 6.06667 21.6488ZM7 21.8158C7.45173 21.8891 7.91887 21.9549 8.4 22.0128V24.3209C7.90673 24.256 7.4396 24.1846 7 24.1072V21.8158ZM9.33333 22.1131C9.79253 22.1574 10.2601 22.1952 10.7333 22.2265V24.5538C10.2485 24.5197 9.7818 24.4782 9.33333 24.431V22.1131ZM8.17553 19.3224C8.12793 19.3178 8.0808 19.3126 8.03367 19.308C8.00007 19.3047 7.96693 19.3005 7.93333 19.2972V16.9802C8.39253 17.0246 8.86013 17.0624 9.33333 17.0936V19.419C8.94133 19.391 8.554 19.3593 8.17553 19.3224ZM7 16.879V19.1871C6.50673 19.1222 6.0396 19.0508 5.6 18.9734V16.682C6.05173 16.7553 6.51887 16.8216 7 16.879ZM16.1775 19.3971C16.0748 19.405 15.9712 19.413 15.8667 19.4204V17.0932C16.3399 17.0619 16.8075 17.0246 17.2667 16.9798V19.2972C16.9783 19.3276 16.6833 19.356 16.3805 19.3808C16.3128 19.3868 16.2451 19.392 16.1775 19.3971ZM18.2 19.1871V16.879C18.6811 16.8211 19.1483 16.7553 19.6 16.682V18.9734C19.1604 19.0508 18.6933 19.1227 18.2 19.1871ZM20.5333 16.5154C21.0289 16.4179 21.4975 16.3106 21.9333 16.193V18.4474C21.5175 18.5674 21.0495 18.6836 20.5333 18.7932V16.5154ZM14.1517 14.3837C13.8007 14.3748 13.4577 14.3613 13.1208 14.345C13.1026 14.344 13.0844 14.3431 13.0667 14.3426V12.0126C13.5343 12.0345 14.0042 12.049 14.4741 12.0574C14.4989 12.0578 14.5236 12.0583 14.5479 12.0588C14.6762 12.0611 14.8045 12.063 14.9329 12.0644V14.3944C14.7056 14.3921 14.4765 14.3912 14.2548 14.386C14.2207 14.3851 14.1857 14.3846 14.1517 14.3837ZM3.26667 7.71456V5.46009C3.70253 5.57769 4.17107 5.68502 4.66667 5.78256V8.06036C4.60927 8.04822 4.55 8.03609 4.494 8.02396C4.24573 7.96936 4.00353 7.91242 3.77207 7.85222C3.59567 7.80696 3.42813 7.76076 3.26667 7.71456ZM11.7483 6.45876C11.8767 6.46109 12.005 6.46296 12.1333 6.46436V8.79442C11.5052 8.78836 10.8808 8.77202 10.2667 8.74122V6.41302C10.7343 6.43496 11.2042 6.44942 11.6741 6.45782C11.6989 6.45782 11.7236 6.45829 11.7483 6.45876ZM13.5259 6.45736C13.9958 6.44849 14.4657 6.43402 14.9333 6.41256V8.74076C14.854 8.74449 14.7779 8.75009 14.6981 8.75382C14.6916 8.75429 14.6851 8.75429 14.6781 8.75476C14.3649 8.76876 14.0457 8.77902 13.7223 8.78649C13.6719 8.78789 13.6215 8.78836 13.5711 8.78976C13.405 8.79302 13.2351 8.79349 13.0667 8.79536V6.46436C13.195 6.46296 13.3233 6.46109 13.4517 6.45876C13.4764 6.45829 13.5011 6.45782 13.5259 6.45736ZM24.1598 6.69162L24.1467 6.68882L23.9769 6.82089C23.7305 7.01269 23.352 7.20682 22.8667 7.39442V5.17449C23.4215 4.98129 23.8938 4.76709 24.2667 4.53236V6.46342C24.2667 6.53436 24.2293 6.61089 24.1598 6.69162ZM18.2 8.45096V6.14562C18.6811 6.08776 19.1483 6.02196 19.6 5.94869V8.23629C19.1576 8.31469 18.6919 8.38656 18.2 8.45096ZM20.5333 8.05662V5.78256C21.0289 5.68502 21.4975 5.57769 21.9333 5.46009V7.70942C21.5152 7.83122 21.0443 7.94742 20.5333 8.05662ZM17.2667 6.24642V8.56109C16.8159 8.60869 16.3492 8.65022 15.8667 8.68476V6.35982C16.3399 6.32856 16.8075 6.29076 17.2667 6.24642ZM7.93333 8.56202V6.24642C8.39253 6.29076 8.86013 6.32856 9.33333 6.35982V8.68289C8.85827 8.64882 8.38973 8.61009 7.93333 8.56202ZM7 6.14562V8.45142C6.9076 8.43929 6.81147 8.42949 6.72 8.41689C6.66027 8.40849 6.60333 8.39962 6.54453 8.39122C6.2748 8.35249 6.01113 8.31096 5.7526 8.26756C5.7008 8.25869 5.65087 8.24936 5.6 8.24049V5.94916C6.05173 6.02196 6.51887 6.08822 7 6.14562ZM12.0176 14.2782C11.9546 14.2736 11.8911 14.2689 11.8286 14.2642C11.5299 14.2409 11.2383 14.2152 10.9536 14.1868C10.8925 14.1807 10.8313 14.1742 10.7707 14.1681C10.7581 14.1667 10.7459 14.1648 10.7333 14.1639V11.8464C11.1925 11.8908 11.6601 11.9286 12.1333 11.9598V14.2857C12.0955 14.2829 12.0554 14.281 12.0176 14.2782ZM8.93433 13.9296C8.74953 13.9002 8.57593 13.8685 8.4 13.8377V11.5492C8.85173 11.6224 9.31887 11.6882 9.8 11.7461V14.0542C9.5144 14.0164 9.23487 13.9772 8.96653 13.9352C8.9558 13.9329 8.94507 13.931 8.93433 13.9296ZM7.46667 11.3821V13.6562C6.951 13.5456 6.4834 13.428 6.06667 13.3057V11.0596C6.50253 11.1772 6.97107 11.285 7.46667 11.3821ZM5.13333 10.7745V12.9916C4.39973 12.7084 3.92653 12.419 3.77253 12.1614L3.74127 12.1092C3.73847 12.0947 3.7338 12.0793 3.73333 12.0648V10.1324C4.1062 10.3671 4.57847 10.5813 5.13333 10.7745ZM16.3259 12.0574C16.7958 12.0485 17.2657 12.034 17.7333 12.0126V14.3403C17.1201 14.3706 16.4967 14.3874 15.8667 14.394V12.0644C15.995 12.063 16.1233 12.0611 16.2517 12.0588C16.2764 12.0583 16.3011 12.0578 16.3259 12.0574ZM22.3566 13.848C22.1517 13.8834 21.945 13.9184 21.7327 13.9506C21.6109 13.9693 21.4863 13.987 21.3612 14.0048C21.2431 14.0216 21.1204 14.036 21.0005 14.0514V11.7456C21.4816 11.6878 21.9487 11.622 22.4005 11.5487V13.84C22.3855 13.8428 22.3711 13.8456 22.3566 13.848ZM19.1968 14.2465C19.0227 14.261 18.8431 14.2703 18.6667 14.2829V11.9598C19.1399 11.9286 19.6075 11.8912 20.0667 11.8464V14.1616C19.7955 14.19 19.5249 14.2185 19.2463 14.2418C19.2295 14.2432 19.2136 14.2451 19.1968 14.2465ZM24.5299 13.3715C24.2975 13.4364 24.0515 13.497 23.8005 13.5563C23.6843 13.5834 23.5657 13.6104 23.4444 13.6366C23.4085 13.6445 23.3702 13.6515 23.3338 13.6594V11.3826C23.8294 11.285 24.2979 11.1777 24.7338 11.0601V13.3146C24.6666 13.3332 24.5989 13.3524 24.5299 13.3715ZM27.0615 8.83036C27.0186 9.14722 26.3004 9.56862 25.0185 9.96482C23.3674 10.4749 20.7839 10.942 17.5098 11.0867C17.3423 11.0937 17.1752 11.1007 17.0044 11.1063C16.8649 11.111 16.7249 11.1152 16.5825 11.1189C16.1961 11.1273 15.8041 11.1334 15.4 11.1334C14.9959 11.1334 14.6039 11.1273 14.2175 11.1184C14.0756 11.1152 13.9356 11.1105 13.7956 11.1058C13.6243 11.1007 13.4573 11.0932 13.2902 11.0862C10.0161 10.9416 7.43213 10.4744 5.78153 9.96436C4.50987 9.57142 3.79307 9.15329 3.73987 8.83782C3.7422 8.82896 3.7422 8.82149 3.7478 8.81029C3.77953 8.81822 3.815 8.82476 3.8472 8.83269C4.02967 8.87609 4.2168 8.91809 4.4072 8.95822C5.33447 9.15796 6.36207 9.32176 7.45687 9.44682C7.4606 9.44682 7.4634 9.44869 7.46667 9.44869C7.4676 9.44869 7.46853 9.44822 7.469 9.44822C8.21473 9.53316 8.98847 9.59989 9.78273 9.64702C9.7888 9.64702 9.79393 9.65029 9.8 9.65029C9.80327 9.65029 9.8056 9.64842 9.80887 9.64842C10.3805 9.68202 10.9597 9.70676 11.5458 9.71982C11.9047 9.72869 12.257 9.73336 12.6 9.73336C12.845 9.73336 13.0961 9.73056 13.3495 9.72589C16.7403 9.67362 19.8828 9.27042 22.0696 8.64556C22.1704 8.61709 22.2689 8.58769 22.3659 8.55829C22.4252 8.54009 22.4859 8.52236 22.5433 8.50416C22.7122 8.45002 22.8741 8.39449 23.0305 8.33662C23.0575 8.32636 23.0832 8.31609 23.1103 8.30582C23.2423 8.25589 23.3693 8.20409 23.4906 8.15136C23.5256 8.13596 23.5615 8.12102 23.5956 8.10562C23.7249 8.04729 23.8499 7.98756 23.9657 7.92549C24.0179 7.89796 24.0632 7.86949 24.1122 7.84149C24.1682 7.80929 24.2242 7.77662 24.276 7.74349C24.3054 7.72482 24.3404 7.70709 24.3684 7.68842C26.4577 8.14156 27.0083 8.63716 27.0615 8.83036ZM12.6 1.33336C20.2949 1.33336 24.1869 2.54482 24.2597 3.24016C24.2032 3.55562 23.4869 3.97236 22.2185 4.36436C20.5674 4.87442 17.9839 5.34156 14.7098 5.48622C14.5423 5.49322 14.3752 5.50022 14.2044 5.50582C14.0649 5.51049 13.9249 5.51469 13.7825 5.51842C13.3961 5.52729 13.0041 5.53336 12.6 5.53336C12.1959 5.53336 11.8039 5.52729 11.4175 5.51842C11.2756 5.51516 11.1356 5.51049 10.9956 5.50582C10.8243 5.50069 10.6573 5.49322 10.4902 5.48622C7.21607 5.34156 4.63213 4.87442 2.98153 4.36436C1.71267 3.97236 0.9968 3.55562 0.940333 3.24016C1.01313 2.54482 4.90513 1.33336 12.6 1.33336ZM0.933333 6.46482V4.53236C1.3062 4.76709 1.77847 4.98129 2.33333 5.17449V7.40889C1.42567 7.06869 0.934267 6.72756 0.933333 6.46482ZM3.19387 12.923C3.20087 12.9305 3.2116 12.937 3.2186 12.9445C3.85747 13.5894 5.18047 14.0962 6.82733 14.4742C6.86513 14.4831 6.90527 14.4915 6.94353 14.5004C7.0644 14.5274 7.18713 14.554 7.31127 14.5797C8.82373 14.9017 10.6293 15.1346 12.5963 15.2498C12.5977 15.2498 12.5986 15.2503 12.5995 15.2503C12.6005 15.2503 12.6009 15.2498 12.6014 15.2498C13.2333 15.2867 13.8796 15.3124 14.5395 15.3236C14.8316 15.3296 15.1191 15.3334 15.4 15.3334C15.722 15.3334 16.0524 15.3296 16.3884 15.3217C16.9988 15.3091 17.6003 15.2839 18.1935 15.2494C18.1958 15.2494 18.1977 15.2508 18.2 15.2508C18.2042 15.2508 18.2075 15.2484 18.2117 15.2484C20.1838 15.1322 22.0341 14.897 23.5989 14.5587C23.2601 14.736 22.7962 14.9194 22.2185 15.0982C20.4755 15.6367 17.6918 16.1272 14.154 16.241C14.049 16.2443 13.9454 16.248 13.839 16.2508C13.7247 16.2536 13.6085 16.2555 13.4923 16.2578C13.1987 16.2625 12.9033 16.2667 12.6 16.2667C12.1959 16.2667 11.8039 16.2606 11.4175 16.2518C11.2756 16.2485 11.1356 16.2438 10.9956 16.2392C10.8243 16.234 10.6573 16.2266 10.4902 16.2196C7.21607 16.0749 4.63213 15.6078 2.98153 15.0977C1.6982 14.701 0.98 14.2792 0.938467 13.9623C0.990267 13.7868 1.46207 13.3477 3.19387 12.923ZM0.933333 17.1982V15.2657C1.3062 15.5004 1.77847 15.7146 2.33333 15.9078V18.1334L2.06687 18.0298L2.06127 18.0354C1.3286 17.7316 0.934267 17.4334 0.933333 17.1982ZM2.33333 22.3315V20.399C2.7062 20.6338 3.17847 20.848 3.73333 21.0412V23.2756C2.82567 22.9354 2.33427 22.5942 2.33333 22.3315ZM24.2667 23.2756V21.0416C24.8215 20.8484 25.2938 20.6342 25.6667 20.3995V22.3306C25.6662 22.5933 25.1743 22.9349 24.2667 23.2756ZM25.6606 19.1026C25.6097 19.4186 24.8929 19.8376 23.6185 20.2315C21.9674 20.7416 19.3839 21.2087 16.1098 21.3534C15.9423 21.3604 15.7752 21.3674 15.6044 21.373C15.4649 21.3776 15.3249 21.3818 15.1825 21.3856C14.7961 21.394 14.4041 21.4 14 21.4C13.5959 21.4 13.2034 21.394 12.8165 21.3851C12.6761 21.3818 12.5375 21.3772 12.3989 21.3725C12.2267 21.3669 12.0587 21.3599 11.8902 21.3529C8.61607 21.2082 6.0326 20.7411 4.38153 20.231C3.1472 19.8498 2.43413 19.4447 2.34453 19.132C2.4836 19.1806 2.6278 19.2277 2.77573 19.2739C2.79067 19.2786 2.8056 19.2832 2.82053 19.2874C2.94653 19.3262 3.07533 19.3635 3.2074 19.3999C3.25733 19.4139 3.30773 19.4279 3.3586 19.4414C3.43327 19.4615 3.5098 19.4806 3.58633 19.5002C5.28593 19.9356 7.45547 20.2441 9.79767 20.3827C9.7986 20.3827 9.79907 20.3832 9.8 20.3832C9.80047 20.3832 9.80093 20.3827 9.8014 20.3827C10.5247 20.4256 11.2635 20.4522 12.0101 20.4611C12.2089 20.4648 12.4063 20.4667 12.6 20.4667C12.8571 20.4667 13.1203 20.4634 13.3868 20.4588C14.0677 20.4476 14.7397 20.4224 15.3967 20.3832C15.3981 20.3832 15.3991 20.3841 15.4005 20.3841C15.4028 20.3841 15.4042 20.3827 15.4065 20.3827C16.2069 20.3346 16.9815 20.266 17.7259 20.1806C17.7287 20.1806 17.731 20.182 17.7338 20.182C17.7441 20.182 17.7525 20.1769 17.7627 20.176C18.5915 20.0803 19.3774 19.9627 20.1068 19.826C20.2571 19.7984 20.405 19.77 20.5515 19.7406C20.5842 19.734 20.6169 19.7275 20.6495 19.7205C22.0276 19.4377 23.2204 19.0714 24.0389 18.6173C24.0837 18.593 24.1257 18.5678 24.1682 18.5431C24.22 18.5123 24.2695 18.481 24.3175 18.4493C24.3623 18.4204 24.4141 18.3924 24.4552 18.363C25.3764 18.6915 25.6303 18.9855 25.6606 19.1026ZM25.6667 13.0089V10.775C26.2215 10.5818 26.6938 10.3676 27.0667 10.1328V12.0639C27.0662 12.3266 26.5743 12.6682 25.6667 13.0089Z" fill="#68E781"/>
</g>
</svg>
