<svg width="18" height="15" viewBox="0 0 18 15" fill="none" 
  xmlns="http://www.w3.org/2000/svg">
  <path fill-rule="evenodd" clip-rule="evenodd" d="M8.68323 0.258814C8.41195 0.571831 8.44579 1.0455 8.7588 1.31678L14.7395 6.50001H0.75C0.335787 6.50001 0 6.8358 0 7.25001C0 7.66423 0.335787 8.00001 0.75 8.00001H14.7395L8.7588 13.1832C8.44579 13.4545 8.41195 13.9282 8.68323 14.2412C8.95451 14.5542 9.42818 14.5881 9.7412 14.3168L17.2412 7.81678C17.4056 7.67432 17.5 7.46752 17.5 7.25001C17.5 7.0325 17.4056 6.8257 17.2412 6.68325L9.7412 0.183245C9.42818 -0.0880361 8.95451 -0.0542028 8.68323 0.258814Z" fill="#0F0D55"/>
</svg>
