<svg width="58" height="58" viewBox="0 0 58 58" fill="none" 
  xmlns="http://www.w3.org/2000/svg">
  <circle cx="29" cy="29" r="29" fill="#0B0A22"/>
  <g clip-path="url(#clip0)">
    <path d="M42.2782 24.0035C42.2782 20.2008 39.1955 17.1181 35.3926 17.1181C32.8506 17.1181 30.6319 18.4965 29.4391 20.5459C28.2464 18.4965 26.0277 17.1181 23.4857 17.1181C19.683 17.1181 16.6001 20.2008 16.6001 24.0035C16.6001 33.639 29.4391 41.9363 29.4391 41.9363C29.4391 41.9363 42.2782 33.639 42.2782 24.0035Z" fill="#FF5555"/>
    <path d="M42.2787 24.0039C42.2787 33.6397 29.4385 41.9363 29.4385 41.9363C29.4385 41.9363 28.1232 41.0865 26.3347 39.6149C28.3848 38.2062 38.8258 30.6057 38.8258 21.916C38.8258 20.1512 38.1627 18.5408 37.0707 17.3237C40.0628 18.0729 42.2787 20.7786 42.2787 24.0039Z" fill="#F72B2B"/>
    <path d="M29.3539 36.6103C28.9809 36.6103 28.6599 36.3447 28.5909 35.9774L26.6941 25.9019L24.6757 30.6982C24.5581 30.9775 24.289 31.1629 23.9862 31.1731C23.6828 31.1835 23.402 31.0168 23.2661 30.746L22.7266 29.6736H15.1703C14.7412 29.6736 14.3936 29.3257 14.3936 28.8969C14.3936 28.4679 14.7412 28.1202 15.1703 28.1202H23.2053C23.4971 28.1202 23.7644 28.2841 23.8971 28.5438L26.2636 22.9195C26.3965 22.6036 26.7213 22.4122 27.0618 22.4486C27.4026 22.4848 27.6794 22.7403 27.7427 23.077L29.3068 31.3855L29.9539 27.4979C30.0161 27.1235 30.3404 26.8489 30.72 26.8489H33.2549C33.5174 26.8489 33.7622 26.9816 33.9055 27.2016L35.0959 29.0284L35.6091 28.4038C35.7567 28.2243 35.9769 28.1202 36.2092 28.1202H43.7087C44.1377 28.1202 44.4854 28.4679 44.4854 28.8969C44.4854 29.3257 44.1377 29.6736 43.7087 29.6736H36.5762L35.6236 30.8328C35.4665 31.0239 35.2276 31.1286 34.9807 31.1151C34.7336 31.1014 34.5079 30.9709 34.3729 30.7637L32.8339 28.4021H31.3782L30.1202 35.961C30.0584 36.3326 29.7389 36.6062 29.3624 36.6103C29.3595 36.6103 29.3567 36.6103 29.3539 36.6103Z" fill="#60DAFF"/>
    <path d="M43.7087 27.6661H42.1624C42.5401 26.4251 42.7324 25.195 42.7324 24.0035C42.7324 22.3361 42.1574 20.7034 41.1137 19.4062C40.9564 19.2108 40.6707 19.1798 40.4754 19.3371C40.2798 19.4942 40.2488 19.7801 40.4061 19.9755C41.3337 21.1285 41.8242 22.5213 41.8242 24.0035C41.8242 25.1891 41.617 26.4206 41.21 27.6661H39.7715C39.5206 27.6661 39.3174 27.8695 39.3174 28.1202C39.3174 28.3709 39.5206 28.5743 39.7715 28.5743H43.7087C43.8866 28.5743 44.0313 28.7191 44.0313 28.8969C44.0313 29.0745 43.8866 29.2195 43.7087 29.2195H36.5762C36.4405 29.2195 36.3116 29.2803 36.2255 29.3851L35.2728 30.5445C35.2078 30.6235 35.1077 30.6677 35.0058 30.6618C34.9034 30.6561 34.809 30.6017 34.7532 30.5158L33.2144 28.1543C33.1307 28.0256 32.9874 27.948 32.8339 27.948H31.3782C31.1561 27.948 30.9666 28.1086 30.9302 28.3276L29.6722 35.8868C29.6467 36.0412 29.5142 36.1545 29.3624 36.1562H29.3541C29.199 36.1562 29.0658 36.0457 29.0372 35.8934L27.1404 25.8178C27.1032 25.621 26.9414 25.4715 26.7421 25.4505C26.5434 25.4289 26.3532 25.5411 26.2754 25.7258L24.2573 30.5222C24.2086 30.6376 24.0962 30.7152 23.9709 30.7195C23.846 30.7233 23.7282 30.654 23.6717 30.5419L23.1324 29.4695C23.0553 29.3163 22.8983 29.2195 22.7268 29.2195H15.1703C14.9924 29.2195 14.8477 29.0748 14.8477 28.8969C14.8477 28.7188 14.9924 28.5743 15.1703 28.5743H23.2053C23.3271 28.5743 23.4373 28.6417 23.4926 28.7503C23.5728 28.9076 23.7372 29.0048 23.9139 28.9977C24.0903 28.9911 24.2471 28.8827 24.3157 28.72L26.6822 23.0958C26.7371 22.9657 26.8738 22.885 27.0138 22.9002C27.1564 22.9153 27.27 23.0201 27.2967 23.1613L28.8607 31.4697C28.9012 31.6844 29.089 31.8398 29.307 31.8396H29.3118C29.532 31.8372 29.7188 31.6774 29.755 31.4602L30.4018 27.5725C30.4279 27.4164 30.5617 27.3031 30.7202 27.3031H33.2549C33.3644 27.3031 33.4654 27.3577 33.525 27.4495L34.7153 29.2763C34.7943 29.3974 34.9263 29.4738 35.0708 29.4818C35.2142 29.4896 35.3549 29.4286 35.4469 29.3167L35.9599 28.6921C36.0216 28.6174 36.1124 28.5743 36.2092 28.5743H37.7023C37.953 28.5743 38.1564 28.3709 38.1564 28.1202C38.1564 27.8695 37.953 27.6661 37.7023 27.6661H36.2092C35.8395 27.6661 35.493 27.83 35.2584 28.1155L35.1382 28.2616L34.2861 26.9537C34.0581 26.6037 33.6726 26.3949 33.2549 26.3949H30.72C30.1159 26.3949 29.6053 26.8274 29.5059 27.4235L29.2794 28.785L28.189 22.9931C28.0878 22.4553 27.6541 22.0551 27.1098 21.9972C26.5741 21.9399 26.0541 22.2469 25.8452 22.7436L23.7256 27.7806C23.5657 27.7063 23.389 27.6661 23.2053 27.6661H17.6685C17.2613 26.4206 17.0543 25.1891 17.0543 24.0035C17.0543 20.4575 19.9395 17.5723 23.4858 17.5723C25.7662 17.5723 27.8972 18.7993 29.0469 20.7744C29.1282 20.9142 29.2777 21.0003 29.4392 21.0003C29.6008 21.0003 29.7505 20.9142 29.8316 20.7744C30.9813 18.7993 33.112 17.5723 35.3927 17.5723C36.6779 17.5723 37.9184 17.95 38.9799 18.665C39.188 18.805 39.4702 18.7499 39.6102 18.5417C39.7502 18.3338 39.6951 18.0517 39.4872 17.9114C38.2751 17.0955 36.8593 16.6641 35.3927 16.6641C33.0309 16.6641 30.8103 17.8166 29.4392 19.7139C28.0682 17.8166 25.8473 16.6641 23.4858 16.6641C19.4386 16.6641 16.1461 19.9565 16.1461 24.0035C16.1461 25.195 16.3382 26.4251 16.7161 27.6661H15.1703C14.4915 27.6661 13.9395 28.2181 13.9395 28.8969C13.9395 29.5755 14.4915 30.1277 15.1703 30.1277H17.7012C18.6777 32.1073 20.1129 34.1293 21.9712 36.1396C22.0606 36.2363 22.1824 36.2855 22.3046 36.2855C22.4149 36.2855 22.5255 36.2456 22.6128 36.1647C22.7971 35.9944 22.8084 35.7073 22.6381 35.523C20.9655 33.7137 19.6505 31.9013 18.7203 30.1275H22.4468L22.8604 30.9501C23.0754 31.3777 23.5227 31.6435 24.0016 31.627C24.4798 31.6109 24.9086 31.3155 25.0943 30.8744L26.5271 27.4693L28.1446 36.0613C28.2541 36.6427 28.7628 37.0644 29.3541 37.0644H29.3607H29.3671C29.965 37.058 30.47 36.6254 30.5681 36.0358L31.763 28.8562H32.5879L33.9923 31.0116C34.2054 31.3389 34.5656 31.547 34.9559 31.5686C35.3471 31.5903 35.7267 31.4226 35.9743 31.1211L36.7907 30.1275H40.1584C38.4283 33.4226 35.655 36.2768 33.5822 38.1263C31.6937 39.8112 30.0447 40.9768 29.4392 41.3897C28.7068 40.8902 26.4464 39.2883 24.0674 36.9844C23.8871 36.8101 23.5998 36.8146 23.4255 36.9948C23.2509 37.1751 23.2554 37.4624 23.4356 37.637C26.3819 40.49 29.0795 42.2442 29.1928 42.3175C29.2678 42.366 29.3534 42.3901 29.4392 42.3901C29.5249 42.3901 29.6107 42.366 29.6857 42.3175C29.7689 42.2636 31.7497 40.9768 34.1747 38.8148C36.3958 36.8345 39.4014 33.7277 41.1773 30.1275H43.7087C44.3873 30.1275 44.9395 29.5755 44.9395 28.8967C44.9395 28.2181 44.3875 27.6661 43.7087 27.6661Z" fill="black"/>
  </g>
  <defs>
    <clipPath id="clip0">
      <rect width="31" height="31" fill="white" transform="translate(14 14)"/>
    </clipPath>
  </defs>
</svg>
