<svg width="20" height="16" viewBox="0 0 20 16" fill="none" 
  xmlns="http://www.w3.org/2000/svg">
  <path d="M3.72287 11.9146C3.78357 11.9628 3.85615 11.9865 3.92839 11.9865C4.02538 11.9865 4.12138 11.944 4.1867 11.8621C4.30018 11.7196 4.27676 11.5121 4.13425 11.3986C3.87 11.1882 3.614 10.9595 3.37384 10.7191L0.933274 8.27849L3.45004 5.76172C5.8695 3.3426 9.38915 2.51687 12.634 3.60618C12.8065 3.66325 12.9936 3.57088 13.052 3.39835C13.1097 3.22581 13.017 3.03843 12.8441 2.98037C9.35979 1.81089 5.58117 2.69765 2.98357 5.29491L0 8.27849L2.90704 11.1855C3.16469 11.4435 3.43949 11.6886 3.72287 11.9146Z" fill="black"/>
  <path d="M16.5729 5.29526C16.1282 4.85056 15.6406 4.44941 15.1234 4.10236C14.9723 4.00108 14.7667 4.04133 14.6655 4.19242C14.5639 4.34351 14.6044 4.54871 14.7555 4.65032C15.2372 4.97328 15.6918 5.34738 16.1061 5.76173L18.5467 8.2023L16.0299 10.7191C13.5936 13.1553 9.92256 13.9791 6.67673 12.8159C6.50518 12.7542 6.31615 12.8436 6.25479 13.0151C6.19343 13.1867 6.2825 13.3754 6.45405 13.4371C7.50377 13.8132 8.59507 13.9956 9.6791 13.9956C12.1932 13.9956 14.6684 13.0135 16.4964 11.1855L19.4796 8.2023L16.5729 5.29526Z" fill="black"/>
  <path d="M10.0747 12.0413C9.36439 12.0413 8.67227 11.844 8.07219 11.4706C7.91813 11.3749 7.71459 11.4217 7.61793 11.5765C7.5216 11.7312 7.5691 11.9344 7.72382 12.0307C8.42815 12.4695 9.24134 12.7011 10.0747 12.7011C12.5304 12.7011 14.5282 10.7032 14.5282 8.24749C14.5282 7.36172 14.2686 6.50597 13.7777 5.77261C13.6761 5.62119 13.4709 5.58061 13.3202 5.68189C13.1687 5.7835 13.1282 5.98836 13.2294 6.13946C13.6474 6.76395 13.8685 7.49269 13.8685 8.24749C13.8685 10.3397 12.1665 12.0413 10.0747 12.0413Z" fill="black"/>
  <path d="M10.0747 4.45367C10.7559 4.45367 11.4236 4.63611 12.0062 4.98151C12.1626 5.07421 12.3651 5.02274 12.4582 4.86571C12.5509 4.70901 12.4994 4.50679 12.3424 4.41376C11.6582 4.00832 10.874 3.79388 10.0743 3.79388C7.6186 3.79388 5.62075 5.79173 5.62075 8.24747C5.62075 8.93497 5.77316 9.59443 6.07403 10.2074C6.13143 10.3242 6.24854 10.3921 6.3706 10.3921C6.4191 10.3921 6.46891 10.3812 6.51543 10.3585C6.67905 10.278 6.74668 10.0804 6.66652 9.91707C6.41052 9.39517 6.28054 8.83369 6.28054 8.2478C6.28087 6.1556 7.9828 4.45367 10.0747 4.45367Z" fill="black"/>
  <path d="M18.0192 0.0967418C17.8902 -0.0322473 17.6817 -0.0322473 17.5527 0.0967418L2.21261 15.4369C2.08362 15.5659 2.08362 15.7744 2.21261 15.9033C2.27694 15.9677 2.36139 16 2.44585 16C2.5303 16 2.61475 15.9677 2.67908 15.9033L18.0192 0.563214C18.1482 0.434554 18.1482 0.225731 18.0192 0.0967418Z" fill="black"/>
</svg>
