<svg width="280" height="197" viewBox="0 0 280 197" fill="none" 
  xmlns="http://www.w3.org/2000/svg">
  <path opacity="0.4" d="M156.216 195.332C120.413 197.226 84.5273 192.232 50.7954 180.112C13.4256 166.683 -15.4203 114.603 9.08048 104.411C79.9168 74.9537 133.454 102.926 77.8365 52.1177C22.2186 1.30989 123.768 4.37974 210.951 21.9113C247.162 29.1952 320.457 64.1056 243.383 111.503C217.005 127.721 292.498 140.651 277.585 161.485C261.642 183.711 206.952 192.649 156.215 195.332L156.216 195.332Z" fill="white"/>
  <path d="M65.4021 120.349C65.4021 120.349 60.812 119.362 55.3345 124.183C55.3345 124.178 64.336 123.404 65.4021 120.35V120.349Z" fill="#0F2337"/>
  <path d="M61.8219 127.161C61.8219 127.161 58.5421 127.049 60.664 124.519C61.5003 123.501 55.9054 123.933 53.3249 125.099C51.5949 125.902 49.9184 126.815 48.306 127.833C47.7665 128.174 47.0767 128.174 46.5364 127.833L36.7699 121.648C36.7699 121.648 36.861 120.523 38.7226 121.042C40.5842 121.561 46.6742 122.717 46.6742 122.717C48.2054 122.701 49.6698 122.089 50.7546 121.012C50.7546 121.012 53.6661 117.596 58.0681 118.36C60.241 118.777 62.1369 120.09 63.2904 121.973L65.2132 125.028L61.8219 127.161V127.161Z" fill="#742D17"/>
  <path d="M68.4776 123.842C65.5287 125.529 62.3483 126.778 59.0371 127.548L56.8744 128.056L54.8801 124.621L59.2456 123.603C61.5408 123.065 63.6589 121.949 65.3969 120.36L68.4776 123.842V123.842Z" fill="#DDDDDD"/>
  <path d="M57.8077 127.029C58.2471 127.029 58.6032 126.673 58.6032 126.235C58.6032 125.796 58.2471 125.441 57.8077 125.441C57.3684 125.441 57.0122 125.796 57.0122 126.235C57.0122 126.673 57.3684 127.029 57.8077 127.029Z" fill="#0F2337"/>
  <path d="M101.563 28.1188C105.604 25.4853 106.736 20.0808 104.092 16.0474C101.448 12.0141 96.0276 10.8793 91.9863 13.5127C87.945 16.1462 86.8125 21.5507 89.457 25.5841C92.1014 29.6174 97.5212 30.7522 101.563 28.1188Z" fill="#F6B545"/>
  <path d="M91.9889 13.5064C87.9471 16.1394 86.8081 21.5441 89.4441 25.5794C92.0815 29.6146 97.4955 30.7537 101.539 28.1237C105.583 25.4921 106.726 20.0888 104.092 16.0521C103.472 15.0841 102.665 14.2489 101.718 13.5954C100.771 12.942 99.7031 12.4833 98.5762 12.2464C97.4493 12.0094 96.2862 11.9988 95.1552 12.2153C94.0241 12.4318 92.9477 12.871 91.9889 13.5071V13.5064ZM100.191 26.0294C99.5043 26.4766 98.7364 26.7847 97.9307 26.9359C97.125 27.0871 96.2973 27.0784 95.4949 26.9104C94.6925 26.7425 93.9312 26.4184 93.2546 25.9569C92.5779 25.4954 91.9991 24.9054 91.5514 24.2207C89.6657 21.3406 90.4758 17.4798 93.3604 15.5971C94.0464 15.1493 94.8142 14.8408 95.6198 14.6891C96.4255 14.5374 97.2533 14.5455 98.0558 14.713C98.8583 14.8805 99.6198 15.2041 100.297 15.6653C100.974 16.1264 101.553 16.7161 102.001 17.4006C102.457 18.0833 102.772 18.8495 102.927 19.6547C103.083 20.4599 103.076 21.2879 102.908 22.0905C102.739 22.8931 102.412 23.6543 101.946 24.3296C101.479 25.005 100.883 25.5811 100.191 26.0243V26.0294Z" fill="#FFCB5B"/>
  <path d="M92.7596 24.4716C92.3032 23.7887 91.9877 23.022 91.8316 22.2163C91.6755 21.4106 91.6819 20.582 91.8504 19.7788C92.019 18.9756 92.3462 18.2139 92.8132 17.5381C93.2801 16.8623 93.8774 16.286 94.5701 15.8428C95.7931 15.0234 97.2798 14.6911 98.7366 14.9116C97.5085 14.5004 96.1823 14.4814 94.9429 14.8575C93.7035 15.2336 92.6127 15.9859 91.8226 17.0095C91.0318 18.0339 90.5807 19.2784 90.532 20.57C90.4833 21.8617 90.8393 23.1365 91.5507 24.2171C92.0391 24.9829 92.6963 25.6276 93.4722 26.1021C94.2481 26.5766 95.1224 26.8685 96.0285 26.9555C94.6736 26.5485 93.5124 25.6661 92.7596 24.4716Z" fill="#F19920"/>
  <path d="M98.8234 23.9372C98.6895 24.037 98.5359 24.1072 98.3727 24.1431C98.2095 24.179 98.0405 24.1799 97.8769 24.1457C97.7134 24.1114 97.559 24.0428 97.4241 23.9445C97.2892 23.8461 97.1769 23.7202 97.0946 23.5752L94.3602 19.4011C94.1898 19.1244 94.1342 18.7922 94.2054 18.4753C94.2767 18.1584 94.469 17.8816 94.7416 17.7037C95.014 17.5259 95.3454 17.4613 95.665 17.5237C95.9845 17.586 96.267 17.7704 96.4522 18.0374L99.1858 22.2115C99.2857 22.3452 99.356 22.4985 99.392 22.6613C99.428 22.824 99.4289 22.9926 99.3946 23.1558C99.3603 23.3189 99.2917 23.473 99.1932 23.6077C99.0948 23.7424 98.9687 23.8547 98.8234 23.9372Z" fill="#F19920"/>
  <path d="M93.859 35.4645C97.9003 32.831 99.0327 27.4265 96.3883 23.3931C93.7439 19.3598 88.324 18.225 84.2827 20.8584C80.2414 23.4919 79.1089 28.8964 81.7534 32.9298C84.3978 36.9631 89.8176 38.098 93.859 35.4645Z" fill="#F6B545"/>
  <path d="M84.2875 20.8521C80.2457 23.4851 79.1067 28.8898 81.7427 32.9251C84.3801 36.9603 89.7949 38.0987 93.8381 35.4686C97.882 32.8378 99.0247 27.4345 96.3902 23.3971C95.7708 22.4291 94.964 21.5939 94.017 20.9404C93.0699 20.2869 92.0017 19.8283 90.8748 19.5913C89.7479 19.3543 88.5848 19.3438 87.4537 19.5603C86.3227 19.7768 85.2463 20.2159 84.2875 20.8521ZM92.4891 33.3743C91.8018 33.8197 91.0332 34.1256 90.2272 34.2747C89.4213 34.4237 88.5937 34.4129 87.7919 34.243C86.9901 34.073 86.2298 33.7471 85.5544 33.284C84.879 32.8208 84.3018 32.2295 83.8558 31.5439C81.9782 28.6601 82.7963 24.803 85.6845 22.9268C86.3713 22.4806 87.1395 22.1737 87.9453 22.0236C88.751 21.8736 89.5786 21.8833 90.3806 22.0523C91.1826 22.2213 91.9433 22.5462 92.6192 23.0084C93.2952 23.4707 93.8732 24.0612 94.3201 24.7463C94.7756 25.4304 95.0898 26.1981 95.2444 27.0046C95.3989 27.8111 95.3907 28.6403 95.2203 29.4436C95.0498 30.2469 94.7205 31.0083 94.2516 31.6833C93.7827 32.3584 93.1835 32.9335 92.4891 33.375V33.3743Z" fill="#FFCB5B"/>
  <path d="M85.0582 31.8223C84.6017 31.1395 84.2863 30.3728 84.1302 29.5671C83.9741 28.7614 83.9805 27.9328 84.149 27.1296C84.3175 26.3264 84.6448 25.5646 85.1118 24.8889C85.5787 24.2131 86.176 23.6368 86.8687 23.1936C88.0916 22.3741 89.5784 22.0418 91.0352 22.2624C89.8071 21.8511 88.4808 21.8322 87.2414 22.2083C86.002 22.5844 84.9113 23.3367 84.1212 24.3603C83.3304 25.3847 82.8793 26.6291 82.8306 27.9208C82.7818 29.2125 83.1379 30.4872 83.8492 31.5679C84.3377 32.3337 84.9948 32.9784 85.7708 33.4529C86.5467 33.9274 87.421 34.2193 88.3271 34.3063C86.9722 33.8993 85.8109 33.0169 85.0582 31.8223Z" fill="#F19920"/>
  <path d="M91.122 31.2873C90.9882 31.387 90.8346 31.4571 90.6715 31.493C90.5085 31.5289 90.3396 31.5298 90.1761 31.4957C90.0126 31.4615 89.8583 31.393 89.7235 31.2948C89.5886 31.1966 89.4762 31.0709 89.3939 30.926L86.6595 26.752C86.489 26.4753 86.4333 26.1432 86.5044 25.8263C86.5755 25.5094 86.7676 25.2325 87.0401 25.0546C87.3125 24.8767 87.6438 24.8119 87.9634 24.8741C88.2829 24.9363 88.5655 25.1206 88.7507 25.3875L91.4844 29.5616C91.5842 29.6953 91.6543 29.8486 91.6903 30.0114C91.7262 30.1741 91.727 30.3426 91.6928 30.5058C91.6585 30.6689 91.5899 30.8229 91.4915 30.9576C91.3931 31.0924 91.2672 31.2047 91.122 31.2873Z" fill="#F19920"/>
  <path d="M102.805 39.611C106.846 36.9775 107.979 31.573 105.334 27.5396C102.69 23.5063 97.2702 22.3714 93.2289 25.0049C89.1875 27.6384 88.0551 33.0429 90.6995 37.0763C93.3439 41.1096 98.7638 42.2444 102.805 39.611Z" fill="#F6B545"/>
  <path d="M93.2343 25.0007C89.191 27.6337 88.0521 33.0385 90.6895 37.0737C93.3254 41.1089 98.7395 42.248 102.784 39.618C106.828 36.9865 107.971 31.5831 105.336 27.5457C104.717 26.5777 103.91 25.7425 102.963 25.089C102.016 24.4356 100.948 23.9769 99.8209 23.7399C98.6939 23.503 97.5309 23.4924 96.3998 23.7089C95.2688 23.9254 94.1923 24.3645 93.2335 25.0007H93.2343ZM101.434 37.5237C100.748 37.971 99.9803 38.279 99.1746 38.4302C98.3689 38.5814 97.5412 38.5727 96.7388 38.4047C95.9365 38.2368 95.1752 37.9128 94.4985 37.4512C93.8218 36.9897 93.2431 36.3997 92.7953 35.715C90.9104 32.8349 91.7198 28.9742 94.6051 27.0914C95.2911 26.6436 96.0588 26.3351 96.8645 26.1834C97.6702 26.0317 98.4979 26.0399 99.3005 26.2074C100.103 26.3749 100.864 26.6984 101.541 27.1596C102.218 27.6208 102.798 28.2104 103.246 28.8949C103.702 29.5778 104.018 30.3445 104.174 31.1502C104.33 31.956 104.323 32.7846 104.155 33.5879C103.986 34.3911 103.659 35.1528 103.192 35.8285C102.725 36.5043 102.127 37.0805 101.434 37.5237Z" fill="#FFCB5B"/>
  <path d="M93.9985 35.9709C93.5421 35.2881 93.2266 34.5214 93.0705 33.7157C92.9144 32.91 92.9208 32.0814 93.0893 31.2782C93.2578 30.475 93.5851 29.7133 94.0521 29.0375C94.519 28.3617 95.1163 27.7854 95.809 27.3422C97.0321 26.5226 98.5192 26.1903 99.9762 26.411C98.7481 25.9997 97.4219 25.9808 96.1825 26.3569C94.9431 26.733 93.8523 27.4853 93.0623 28.5089C92.2715 29.5333 91.8204 30.7777 91.7716 32.0694C91.7229 33.3611 92.0789 34.6358 92.7903 35.7165C93.2786 36.4822 93.9357 37.1269 94.7115 37.6014C95.4873 38.0759 96.3614 38.3678 97.2674 38.4549C95.9125 38.0479 94.7512 37.1655 93.9985 35.9709Z" fill="#F19920"/>
  <path d="M100.068 35.4359C99.9342 35.5357 99.7806 35.6059 99.6174 35.6419C99.4543 35.6779 99.2853 35.6789 99.1217 35.6447C98.9582 35.6105 98.8038 35.542 98.6689 35.4437C98.5339 35.3454 98.4215 35.2196 98.3392 35.0747L95.6048 30.9006C95.4343 30.6239 95.3787 30.2918 95.4497 29.9749C95.5208 29.658 95.713 29.3812 95.9854 29.2032C96.2578 29.0253 96.5891 28.9606 96.9087 29.0228C97.2282 29.085 97.5108 29.2692 97.6961 29.5361L100.43 33.7109C100.53 33.8446 100.6 33.9978 100.636 34.1605C100.672 34.3232 100.673 34.4917 100.639 34.6548C100.605 34.8178 100.536 34.9718 100.438 35.1065C100.339 35.2411 100.213 35.3534 100.068 35.4359Z" fill="#F19920"/>
  <path d="M38.35 69.4101L32.5567 72.6217C32.5567 72.6217 28.9051 68.8198 32.8221 66.6506L37.0243 64.8893L38.3507 69.4101H38.35Z" fill="#B7B7B7"/>
  <path d="M59.0218 52.1227L32.8221 66.6302C40.1765 62.5579 52.2027 101.469 59.1801 97.6108L61.3829 96.3896L80.0393 80.2269C73.261 71.721 64.7392 48.9569 59.0218 52.1227Z" fill="#EFEDEE"/>
  <path d="M59.1801 97.6262C63.0913 95.4577 59.4447 91.6551 59.4447 91.6551L85.6495 77.1273C85.6495 77.1273 89.3012 80.9291 85.3841 83.0983L59.1801 97.6254V97.6262Z" fill="#B7B7B7"/>
  <path d="M53.9621 86.1776L72.5777 76.1604M45.4498 71.8635L64.0603 61.8506L45.4498 71.8635ZM46.9701 74.8156L65.5858 64.8027L46.9701 74.8156ZM48.5867 77.6819L67.1972 67.664L48.5867 77.6819ZM50.2441 80.4559L68.8597 70.4387L50.2441 80.4559ZM52.0087 83.4189L70.3341 73.4766L52.0087 83.4189Z" stroke="#0F2337" stroke-width="0.5"/>
  <path d="M53.8906 37.9359C55.0061 37.9359 55.9104 37.0334 55.9104 35.9201C55.9104 34.8068 55.0061 33.9043 53.8906 33.9043C52.7751 33.9043 51.8708 34.8068 51.8708 35.9201C51.8708 37.0334 52.7751 37.9359 53.8906 37.9359Z" fill="#D4D2D3"/>
  <path d="M137.075 96.2515C138.19 96.2515 139.095 95.349 139.095 94.2357C139.095 93.1224 138.19 92.2199 137.075 92.2199C135.959 92.2199 135.055 93.1224 135.055 94.2357C135.055 95.349 135.959 96.2515 137.075 96.2515Z" fill="#FFCB5B"/>
  <path d="M82.8963 64.3243C82.9453 63.3146 82.163 62.4564 81.1489 62.4074C80.1349 62.3585 79.2731 63.1374 79.2241 64.1472C79.1751 65.1569 79.9574 66.0151 80.9715 66.064C81.9855 66.1129 82.8473 65.334 82.8963 64.3243Z" fill="#66C4AC"/>
  <path d="M124.756 28.002C124.789 27.3175 124.259 26.7357 123.572 26.7025C122.884 26.6694 122.3 27.1974 122.267 27.8819C122.234 28.5664 122.764 29.1482 123.451 29.1814C124.139 29.2145 124.723 28.6865 124.756 28.002Z" fill="#D4D2D3"/>
  <path d="M234.7 62.6468L230.156 62.6671L225.781 71.9014H230.12L229.912 105.355L238.455 105.29L239.393 72.0177L243.503 71.9014" fill="#0F0D55"/>
  <path d="M225.383 105.35L233.93 105.285L234.869 72.0126L238.974 71.8963L230.171 62.6366L221.251 71.8963H225.597L225.383 105.35Z" fill="#68E781"/>
  <path d="M213.774 115.689C213.774 115.689 218.482 112.899 223.465 118.921L221.374 119.751L214.03 116.814L213.774 115.689Z" fill="#0F2337"/>
  <path d="M217.304 121.482C217.304 121.482 220.629 121.528 218.609 118.902C217.809 117.883 223.455 118.55 226.01 119.843C227.719 120.729 229.37 121.724 230.952 122.82C231.213 123.001 231.521 123.104 231.838 123.118C232.156 123.133 232.471 123.058 232.747 122.902L242.948 117.201C242.948 117.201 242.907 116.076 240.999 116.503C239.092 116.931 232.865 117.786 232.865 117.786C231.32 117.697 229.871 117.014 228.82 115.882C228.82 115.882 226.04 112.32 221.547 112.874C220.452 113.022 219.4 113.396 218.457 113.971C217.514 114.545 216.701 115.309 216.07 116.213L213.974 119.146L217.304 121.482V121.482Z" fill="#742D17"/>
  <path d="M121.374 172.204L114.301 194.102L170.04 194.27L162.976 173.583L159.575 159.345L124.934 162.873L121.374 172.204Z" fill="#A4B8CB"/>
  <path d="M127.123 90.6084C127.123 90.6084 134.263 97.6284 145.687 88.6747C145.687 88.6747 165.924 96.9662 166.705 105.793C167.485 114.62 163.742 167.896 163.742 167.896L122.599 168.212L119.401 96.5845C119.401 96.5845 125.556 92.7056 127.123 90.6091V90.6084Z" fill="#EFEFEF"/>
  <path d="M182.21 155.964C192.308 147.545 206.604 154.183 206.604 154.183C206.604 154.183 206.435 154.457 206.124 154.916C215.269 142.378 221.863 122.291 221.863 122.291L210.781 119.161L192.853 140.795C189.232 133.384 175.584 115.46 171.432 106.333C166.72 95.9841 157.478 94.5942 148.411 88.959V89.0099L147.717 88.3992C147.717 88.3992 138.282 145.779 139.144 163.442C139.975 180.419 169.811 194.342 169.811 194.342L167.373 183.249C165.505 174.743 165.094 165.982 166.159 157.339L168.332 139.685H168.368C168.368 139.685 174.876 148.13 179.078 153.012C180.026 154.092 181.075 155.081 182.21 155.964Z" fill="#0167F6"/>
  <path opacity="0.42" d="M205.012 156.454C205.396 155.955 205.767 155.445 206.124 154.926C205.309 156.051 204.443 157.138 203.528 158.184C204.036 157.618 204.53 157.041 205.012 156.454Z" fill="#4AA088"/>
  <path d="M182.21 155.964C186.488 159.884 191.732 163.997 194.745 163.83C197.76 163.661 201.019 160.943 203.528 158.179C204.416 157.161 205.278 156.076 206.124 154.921C206.435 154.463 206.604 154.188 206.604 154.188C206.604 154.188 192.308 147.545 182.21 155.964Z" fill="#66C4AC"/>
  <path d="M182.21 155.964C186.488 159.884 191.732 163.997 194.745 163.83C197.76 163.661 201.019 160.943 203.528 158.179C204.416 157.161 205.278 156.076 206.124 154.921C206.435 154.463 206.604 154.188 206.604 154.188C206.604 154.188 192.308 147.545 182.21 155.964Z" fill="#0F0D55"/>
  <path d="M199.448 162.042C201.548 160.437 203.42 158.553 205.012 156.443C204.534 157.033 204.039 157.608 203.528 158.169C202.304 159.595 200.937 160.894 199.448 162.043V162.042Z" fill="white"/>
  <path d="M128.346 92.1103L127.693 90.3998C118.63 96.0299 108.863 97.1952 104.681 107.774C101.392 116.096 91.9716 131.734 88.1114 141.075L68.8424 120.657L57 124.399C57 124.399 58.4379 126.822 60.57 130.365C60.57 130.365 68.3021 142.857 74.4883 150.864C75.1767 151.76 76.2478 153.028 77.5486 154.427C81.3892 153.002 91.319 150.355 99.2195 156.932C102.581 153.044 105.667 148.927 108.456 144.613L112.455 138.362L115.616 154.494C117.395 163.581 117.519 172.912 115.984 182.043L114.168 192.85C117.111 194.968 139.348 183.941 141.056 163.54C141.785 154.906 130.157 99.8732 128.347 92.1103H128.346Z" fill="#0167F6"/>
  <path d="M90.3958 163.346C92.8546 163.208 96.1183 160.358 99.199 156.922C91.2781 150.304 81.3483 152.987 77.5282 154.417C81.2871 158.469 86.9024 163.54 90.3958 163.346Z" fill="#66C4AC"/>
  <path d="M90.3958 163.346C92.8546 163.208 96.1183 160.358 99.199 156.922C91.2781 150.304 81.3483 152.987 77.5282 154.417C81.2871 158.469 86.9024 163.54 90.3958 163.346Z" fill="#0F0D55"/>
  <path d="M145.371 89.0506C145.371 79.9639 145.447 63.7459 146.176 61.9598L145.815 51.4992L131.371 48.4446C131.371 48.4446 126.648 53.3209 126.908 70.6285C126.908 70.6285 126.363 81.5115 133.084 79.1293C133.084 79.1293 131.81 86.1799 128.953 89.7739C128.913 89.8095 145.376 92.6649 145.371 89.0506V89.0506Z" fill="#742D17"/>
  <path d="M144.448 51.9463C144.448 51.9463 141.352 60.6005 146.788 62.7842L148.589 67.1516C148.589 67.1516 154.199 58.1725 150.257 52.3541C150.257 52.3541 149.4 50.6531 146.901 49.2181C144.402 47.7824 133.508 40.7784 128.03 46.0923C122.553 51.4069 128.541 54.6447 128.541 54.6447C128.541 54.6447 129.295 52.5475 130.259 50.379C130.254 50.379 133.921 54.6701 144.448 51.9463H144.448Z" fill="#0F2337"/>
  <path d="M149.275 65.2472C149.527 63.2807 148.609 61.5436 147.225 61.3672C145.84 61.1909 144.514 62.6421 144.262 64.6086C144.01 66.5751 144.928 68.3123 146.312 68.4886C147.697 68.6649 149.023 67.2137 149.275 65.2472Z" fill="#742D17"/>
  <path d="M144.529 65.1969C143.72 64.9286 142.906 64.6728 142.086 64.4285C142.283 61.5935 142.624 58.7693 143.107 55.9684C143.107 55.9684 143.57 53.1886 144.458 51.9412C145.345 50.6945 147.217 61.3696 147.217 61.3696C147.217 61.3696 144.076 61.5978 144.529 65.1969Z" fill="#0F2337"/>
  <path d="M134.201 95.0115C134.935 93.5048 135.558 91.9464 136.063 90.3489H136.298C137.091 90.4325 137.891 90.4325 138.684 90.3489C138.684 90.3489 141.117 94.0999 142.02 94.6145L138.266 97.8778L134.201 95.0115Z" fill="#1D4B70"/>
  <path d="M130.274 87.6156C130.274 87.6156 131.978 82.6267 132.942 79.2973L140.592 75.5252" fill="#0F2337"/>
  <path d="M138.664 90.3024C138.664 90.3024 140.852 96.61 142.311 96.8136C142.311 96.8136 147.472 93.5918 148.283 88.725C147.2 88.1492 146.215 87.4052 145.366 86.5209C144.645 87.6497 143.656 88.5849 142.488 89.2443C141.319 89.9037 140.006 90.2673 138.664 90.3031V90.3024ZM133.064 97.2563C133.064 97.2563 135.732 93.0669 136.303 90.3286C136.303 90.3286 134.084 90.3286 130.305 87.519C130.305 87.519 129.035 89.9615 127.117 90.6186C127.117 90.6237 131.682 97.374 133.064 97.2563Z" fill="#DDDDDD"/>
  <path d="M149.349 93.4595L147.743 90.6695L148.339 89.1371L149.349 93.4595Z" fill="#66C4AC"/>
  <path d="M136.563 96.6558C136.563 96.6558 135.834 108.873 131.891 112.319C129.183 114.691 131.748 119.293 130.87 120.789C129.555 123.091 126.837 124.012 126.495 126.104C125.75 130.685 128.366 135.349 128.366 135.349C128.366 135.349 138.108 135.628 135.701 129.067C135.089 127.402 138.832 126.058 139.485 123.895C140.398 120.871 136.369 117.313 138.169 114.223C143.427 105.136 140.581 97.5064 139.898 96.4065L136.563 96.6558Z" fill="#0F2337"/>
  <path d="M141.658 157.253C142.362 157.253 142.933 156.683 142.933 155.98C142.933 155.277 142.362 154.707 141.658 154.707C140.953 154.707 140.382 155.277 140.382 155.98C140.382 156.683 140.953 157.253 141.658 157.253Z" fill="#EFEFEF"/>
  <path d="M141.53 163.346C142.234 163.346 142.805 162.776 142.805 162.073C142.805 161.37 142.234 160.8 141.53 160.8C140.826 160.8 140.255 161.37 140.255 162.073C140.255 162.776 140.826 163.346 141.53 163.346Z" fill="#EFEFEF"/>
  <path d="M152.093 49.3351C151.378 48.755 150.471 48.3174 150.053 47.5228C149.385 46.2354 150.241 44.5758 149.66 43.247C149.49 42.8729 149.216 42.5547 148.871 42.3295C148.526 42.1043 148.124 41.9813 147.712 41.9749C146.804 41.9749 145.968 42.5491 145.06 42.56C143.764 42.56 142.749 41.4704 142.046 40.3865C141.342 39.3019 140.663 38.0697 139.496 37.5609C138.745 37.2996 137.947 37.199 137.155 37.2658C135.395 37.2912 133.498 37.3675 132.125 38.4725C130.463 39.8108 130.086 42.2649 128.52 43.705C127.827 44.3418 126.939 44.7227 126.22 45.3442C125.717 45.8079 125.312 46.3667 125.028 46.9881C124.745 47.6096 124.588 48.2811 124.568 48.9635C124.547 49.646 124.663 50.3256 124.909 50.9628C125.155 51.6 125.526 52.1819 126 52.6746C126.511 53.1428 127.143 53.6415 127.061 54.319C126.939 55.3367 125.225 55.6166 124.858 56.4722L125.041 56.6248C126.083 56.7193 127.11 56.9374 128.102 57.2718C128.286 56.4024 128.493 55.5373 128.724 54.6752V53.6109C128.724 52.1607 128.862 50.5571 129.882 49.5386C130.436 49.0318 131.099 48.6576 131.82 48.4446C134.37 47.5483 137.144 47.3854 139.863 47.4269C141.245 47.376 142.623 47.6159 143.907 48.1291C146.009 49.1112 147.253 51.3153 148.038 53.4888C148.979 56.0915 149.464 58.8362 149.471 61.6029H151.119C150.909 60.3664 150.726 58.9968 151.41 57.9435C151.784 57.4651 152.201 57.0204 152.654 56.6146C153.534 55.5694 153.968 54.2217 153.864 52.8608C153.759 51.4999 153.123 50.2341 152.093 49.3351Z" fill="#0F2337"/>
  <path d="M148.39 89.0099L148.339 89.1371L148.288 88.9081L148.39 89.0099Z" fill="#66C4AC"/>
  <path d="M157.27 114.951L157.621 115.252C159.786 117.107 161.343 119.566 162.094 122.312L150.522 122.49L151.287 122.128C152.749 121.439 154.042 120.439 155.075 119.2C156.109 117.96 156.858 116.509 157.27 114.951Z" fill="#DDDDDD"/>
  <path d="M168.337 139.757L170.301 121.996L179.007 152.951L168.337 139.757Z" fill="#0F2337"/>
  <path d="M210.699 119.181L212.606 120.321C213.638 120.938 214.779 121.349 215.968 121.533L221.792 122.434L223.465 118.921L218.196 117.903C216.552 117.58 215.026 116.82 213.78 115.704L210.699 119.181Z" fill="#DDDDDD"/>
  <path d="M220.532 121.202C220.972 121.202 221.328 120.846 221.328 120.408C221.328 119.969 220.972 119.614 220.532 119.614C220.093 119.614 219.737 119.969 219.737 120.408C219.737 120.846 220.093 121.202 220.532 121.202Z" fill="#0F2337"/>
  <path d="M180.098 31.7679L181.118 32.7856C181.445 33.1127 181.834 33.3722 182.262 33.5492C182.69 33.7263 183.148 33.8174 183.612 33.8174C184.075 33.8174 184.534 33.7263 184.962 33.5492C185.39 33.3722 185.778 33.1127 186.106 32.7856C186.433 32.4588 186.693 32.0707 186.871 31.6437C187.048 31.2166 187.14 30.7589 187.14 30.2966C187.14 29.8343 187.048 29.3766 186.871 28.9495C186.693 28.5225 186.433 28.1344 186.106 27.8076L185.086 26.7899L180.098 31.7679Z" fill="#4AA088"/>
  <path d="M166.633 30.2915L159.142 22.8353C153.928 17.6029 153.928 9.15148 159.142 3.91899C164.384 -1.2837 172.851 -1.2837 178.093 3.91899L185.586 11.3766C190.799 16.6084 190.799 25.0605 185.586 30.2923C180.344 35.4957 171.876 35.4957 166.633 30.2923V30.2915Z" fill="#68E781"/>
  <path d="M183.066 13.8446L186.56 17.3266C189.946 13.9362 189.421 9.88423 188.784 8.57065C188.62 8.21954 183.066 13.8446 183.066 13.8446Z" fill="#4AA088"/>
  <path d="M181.072 11.8542C181.072 11.8542 175.778 6.68711 174.079 4.91121C174.079 4.91121 175.064 3.89349 175.1 3.89349L182.092 10.8517L181.072 11.8549V11.8542Z" fill="#0F2337"/>
  <path d="M176.921 34.1399C175.312 33.4775 173.849 32.5055 172.616 31.2794L171.53 30.1999C172.025 29.7198 172.365 29.1034 172.508 28.4294C172.65 27.7553 172.587 27.0543 172.328 26.416C172.068 25.7777 171.624 25.231 171.051 24.8458C170.478 24.4606 169.803 24.2544 169.112 24.2536C168.657 24.2535 168.205 24.343 167.784 24.517C167.363 24.691 166.981 24.9461 166.659 25.2677L166.618 25.3084L165.119 23.8167C159.906 18.5849 159.906 10.1328 165.119 4.90106C167.432 2.59055 170.519 1.21113 173.788 1.02648C171.335 0.00915573 168.633 -0.259587 166.026 0.254259C163.419 0.768106 161.023 2.04145 159.142 3.91315C152.674 10.3829 151.685 19.3315 151.679 19.3526L155.174 22.8346L157.382 20.6247C157.894 21.4208 158.491 22.1599 159.161 22.8295L164.155 27.8025L162.16 29.7979L166.154 33.7743L168.832 32.0427C171.236 33.5809 174.069 34.3155 176.92 34.1399H176.921Z" fill="#4AA088"/>
  <path d="M182.289 9.69917C184.037 8.0318 184.097 5.26552 182.423 3.52052C180.748 1.77551 177.974 1.71258 176.225 3.37995C174.477 5.04732 174.417 7.81359 176.092 9.5586C177.766 11.3036 180.541 11.3665 182.289 9.69917Z" fill="#F6B545"/>
  <path d="M182.409 3.53149C181.81 2.90615 181.039 2.47201 180.193 2.2841C179.347 2.09618 178.464 2.16297 177.656 2.47598C176.848 2.78944 176.151 3.33478 175.653 4.04306C175.156 4.75135 174.88 5.59078 174.861 6.45523C174.842 7.31967 175.08 8.17046 175.545 8.90007C176.01 9.62969 176.682 10.2054 177.476 10.5544C179.098 11.2668 180.99 10.9339 182.271 9.71119C182.689 9.31595 183.025 8.84192 183.259 8.31648C183.493 7.79105 183.62 7.22464 183.632 6.64999C183.645 6.07535 183.544 5.50388 183.334 4.96861C183.124 4.43333 182.809 3.94488 182.409 3.53149ZM177.002 8.7131C176.573 8.26658 176.286 7.7033 176.178 7.09441C176.07 6.48553 176.145 5.85836 176.394 5.29214C176.643 4.72624 177.055 4.24676 177.578 3.91443C178.1 3.58211 178.71 3.4119 179.33 3.42537C179.95 3.43884 180.551 3.63537 181.059 3.99009C181.567 4.3448 181.957 4.84172 182.181 5.4179C182.405 5.99444 182.453 6.62428 182.318 7.22786C182.184 7.83144 181.872 8.38168 181.424 8.80906C181.129 9.09572 180.78 9.32091 180.397 9.47148C180.014 9.62204 179.604 9.69495 179.193 9.68595C178.781 9.67695 178.375 9.58621 177.999 9.41905C177.623 9.25189 177.284 9.01165 177.002 8.71237V8.7131Z" fill="#FFCB5B"/>
  <path d="M177.089 4.91051C177.383 4.62385 177.733 4.39866 178.116 4.24809C178.499 4.09753 178.908 4.02462 179.32 4.03362C179.732 4.04262 180.138 4.13336 180.514 4.30052C180.89 4.46768 181.229 4.70792 181.511 5.00719C182.028 5.5343 182.328 6.23531 182.352 6.97211C182.442 6.33103 182.329 5.67805 182.03 5.10382C181.73 4.5296 181.258 4.06264 180.68 3.76777C180.103 3.47317 179.447 3.36561 178.805 3.46008C178.163 3.55455 177.567 3.84635 177.099 4.2948C176.766 4.60582 176.508 4.98841 176.345 5.41351C176.183 5.83861 176.12 6.29506 176.16 6.74821C176.237 6.04387 176.566 5.39096 177.089 4.91051Z" fill="#F19920"/>
  <path d="M177.91 7.84805C177.847 7.79262 177.798 7.72473 177.764 7.64882C177.73 7.57291 177.712 7.49069 177.712 7.40753C177.712 7.32437 177.73 7.24215 177.764 7.16624C177.798 7.09033 177.847 7.02244 177.91 6.96701L179.72 5.24126C179.841 5.13417 180 5.07802 180.161 5.08456C180.323 5.0911 180.476 5.15982 180.588 5.27634C180.701 5.39286 180.763 5.54812 180.763 5.70961C180.763 5.8711 180.7 6.02629 180.588 6.14266L178.777 7.86841C178.721 7.92682 178.652 7.97289 178.577 8.00373C178.502 8.03457 178.421 8.04951 178.339 8.04759C178.258 8.04568 178.177 8.02697 178.103 7.99262C178.03 7.95828 177.964 7.90906 177.91 7.84805Z" fill="#F19920"/>
  <path d="M185.178 21.9739C185.677 21.9739 186.081 21.5706 186.081 21.0732C186.081 20.5758 185.677 20.1725 185.178 20.1725C184.679 20.1725 184.275 20.5758 184.275 21.0732C184.275 21.5706 184.679 21.9739 185.178 21.9739Z" fill="#0F2337"/>
  <path d="M157.361 20.6305L160.176 17.5657L158.534 22.1723L157.361 20.6305ZM168.786 32.0681L171.759 29.9455L170.663 33.056L169.443 32.4454L168.786 32.0681Z" fill="#0F2337"/>
  <path d="M219.349 67.2025L215.947 74.3803H219.323L219.16 100.377L225.801 100.326L226.53 74.4719L229.723 74.3803L222.226 67.3145L219.313 67.2178" fill="#B7B7B7"/>
  <path d="M215.662 100.163L222.185 100.107L222.899 74.4464L226.035 74.3548L219.313 67.2178L212.504 74.3548H215.82L215.662 100.163Z" fill="#D4D2D3"/>
  <path d="M228.468 101.262C238.329 101.262 246.324 100.077 246.324 98.6157C246.324 97.1539 238.329 95.9689 228.468 95.9689C218.606 95.9689 210.612 97.1539 210.612 98.6157C210.612 100.077 218.606 101.262 228.468 101.262Z" fill="#EFEDEE"/>
  <path d="M190.007 42.7687C191.123 42.7687 192.027 41.8661 192.027 40.7529C192.027 39.6396 191.123 38.7371 190.007 38.7371C188.892 38.7371 187.987 39.6396 187.987 40.7529C187.987 41.8661 188.892 42.7687 190.007 42.7687Z" fill="#D4D2D3"/>
  <path d="M217.207 50.0017C218.322 50.0017 219.226 49.0992 219.226 47.9859C219.226 46.8726 218.322 45.9701 217.207 45.9701C216.091 45.9701 215.187 46.8726 215.187 47.9859C215.187 49.0992 216.091 50.0017 217.207 50.0017Z" fill="#66C4AC"/>
  <path d="M204.941 83.11C205.856 83.11 206.598 82.3693 206.598 81.4555C206.598 80.5418 205.856 79.801 204.941 79.801C204.025 79.801 203.283 80.5418 203.283 81.4555C203.283 82.3693 204.025 83.11 204.941 83.11Z" fill="#FFCB5B"/>
  <path d="M258.304 196.82C259.946 196.82 259.946 194.275 258.304 194.275C256.662 194.275 256.662 196.82 258.304 196.82Z" fill="#4AA088"/>
  <path d="M112.094 141.551L108.264 127.242L103.158 154.817L108.019 147.849L112.094 141.551Z" fill="#0F2337"/>
</svg>
