<svg width="58" height="58" viewBox="0 0 58 58" fill="none" 
  xmlns="http://www.w3.org/2000/svg">
  <circle cx="29" cy="29" r="29" fill="#0B0A22"/>
  <g clip-path="url(#clip0)">
    <path d="M14.5442 32.895C14.5096 32.895 14.4764 32.8942 14.4445 32.8928C14.1962 32.8814 14 32.6787 14 32.4301V32.4279C14 32.1759 14.2017 31.9737 14.4536 31.9651C14.8838 31.9505 15.5465 31.7945 16.109 31.0892C16.1405 31.0497 16.1692 31.0103 16.1954 30.9711C15.2435 30.7666 14.6699 30.4414 14.4468 29.9816C14.3145 29.7091 14.2457 29.2671 14.6684 28.7086C14.9598 28.3234 15.38 28.136 15.8214 28.1951C16.3815 28.2698 16.9095 28.731 17.1666 29.3699C17.2831 29.6596 17.3366 29.9581 17.3289 30.2539C17.5959 30.2815 17.8673 30.299 18.1297 30.3047C18.3718 30.31 18.5788 30.5 18.5817 30.7423C18.5848 30.9937 18.3813 31.1947 18.1302 31.1911C18.1069 31.1907 17.6788 31.1817 17.1253 31.1191C17.0423 31.3003 16.9343 31.4756 16.8018 31.6417C15.9623 32.6942 15.0885 32.895 14.5442 32.895ZM15.6595 29.0702C15.5838 29.0702 15.4836 29.0995 15.3749 29.2432C15.3063 29.3339 15.1981 29.5001 15.2439 29.5947C15.3474 29.808 15.8239 29.9912 16.4371 30.1184C16.4263 29.9356 16.3801 29.7891 16.3444 29.7006C16.1932 29.3248 15.9079 29.1006 15.7041 29.0734C15.6905 29.0715 15.6755 29.0702 15.6595 29.0702Z" fill="#1914C2"/>
    <path d="M43.145 30.3632L41.8981 29.9638C41.5997 29.8682 41.3679 29.6326 41.274 29.3337C39.839 24.7708 34.5106 22.6754 29.1472 22.6754C22.8724 22.6754 17.7856 25.5427 17.7856 31.8749C17.7856 35.5244 19.5756 38.0806 22.3411 39.5568C22.4091 39.5931 22.4575 39.6577 22.4721 39.7334L23.0917 42.9515C23.1491 43.2546 23.414 43.4741 23.7226 43.4741H25.8148C26.1233 43.4741 26.3882 43.2546 26.4456 42.9515L26.7843 41.1623C26.8093 41.0303 26.9323 40.9413 27.0657 40.9569C27.7406 41.0352 28.4362 41.0745 29.1472 41.0745C30.0975 41.0745 31.0467 41.0043 31.9734 40.8643C32.1096 40.8437 32.2379 40.9332 32.2636 41.0685L32.62 42.9515C32.6774 43.2546 32.9423 43.4741 33.2509 43.4741H35.3431C35.6516 43.4741 35.9165 43.2546 35.9739 42.9515L36.6175 39.5442C36.632 39.4672 36.6815 39.4017 36.7509 39.3656C38.3933 38.5117 39.7519 37.3369 40.6185 35.8394C40.734 35.6398 40.9165 35.4877 41.1361 35.4174L43.1452 34.7738C43.6545 34.6107 44.0001 34.1372 44.0001 33.6024V31.5347C43.9999 30.9999 43.6544 30.5263 43.145 30.3632Z" fill="#0167F6"/>
    <path d="M43.8431 30.9358C43.7889 30.8386 43.7222 30.7489 43.644 30.6698C43.6423 30.6681 43.6409 30.6662 43.6392 30.6646C43.5038 30.5292 43.3358 30.4244 43.1449 30.3632L42.2204 30.0671V31.1546C42.2204 32.5056 41.3596 33.7064 40.0803 34.1403C39.4985 34.3266 38.9955 34.6953 38.6268 35.1825C38.1755 35.7791 37.6392 36.3152 37.0348 36.791C36.3222 37.3519 35.8416 38.1546 35.7042 39.051C35.6062 39.6902 35.5304 40.3721 35.482 40.8554C35.4448 41.2271 35.1323 41.5102 34.7587 41.5102H33.2506C32.9421 41.5102 32.6771 41.2907 32.6197 40.9875L32.2633 39.1046C32.2377 38.9693 32.1094 38.8797 31.9732 38.9003C31.0466 39.0404 30.0974 39.1106 29.147 39.1106C28.436 39.1106 27.7404 39.0712 27.0655 38.9929C26.9321 38.9774 26.8091 39.0664 26.7841 39.1984L26.4454 40.9876C26.388 41.2908 26.1231 41.5103 25.8145 41.5103H23.7223C23.4138 41.5103 23.1489 41.2908 23.0914 40.9876L22.4719 37.7695C22.4573 37.6938 22.4089 37.6293 22.3409 37.5929C19.8278 36.2514 18.1207 34.018 17.8299 30.883C17.8299 30.8831 17.8299 30.8831 17.8299 30.8832C17.823 30.9601 17.8169 31.0376 17.8115 31.1157C17.8114 31.1172 17.8114 31.1187 17.8112 31.1203C17.8107 31.128 17.8102 31.1357 17.8098 31.1434C17.8051 31.2136 17.8011 31.2842 17.7978 31.3552C17.7964 31.3847 17.7955 31.4145 17.7944 31.4441C17.7923 31.4983 17.7901 31.5524 17.7888 31.6072C17.7867 31.6959 17.7854 31.785 17.7854 31.8751C17.7854 32.3313 17.8133 32.7704 17.8677 33.1925C17.9343 33.7095 18.0409 34.2007 18.1837 34.6666C18.1915 34.6921 18.1997 34.7173 18.2077 34.7427C18.2275 34.8053 18.2482 34.8678 18.2695 34.9299C18.278 34.9547 18.2864 34.9796 18.2952 35.0042C18.3539 35.1701 18.4175 35.3326 18.4858 35.4916C18.493 35.5085 18.5002 35.5254 18.5076 35.5422C18.5412 35.6191 18.5758 35.6954 18.6117 35.7707C18.6176 35.7832 18.6238 35.7955 18.6298 35.8079C18.6632 35.8773 18.6977 35.946 18.7331 36.0144C18.7392 36.0261 18.7451 36.038 18.7512 36.0497C18.7897 36.1231 18.8295 36.1955 18.8701 36.2673C18.879 36.2829 18.888 36.2984 18.8969 36.314C19.0285 36.5426 19.1709 36.7631 19.3235 36.9753C19.3381 36.9956 19.3529 37.0157 19.3677 37.0358C19.4047 37.0862 19.4424 37.1363 19.4806 37.1858C19.4956 37.2053 19.5106 37.2249 19.5257 37.2442C19.5774 37.3099 19.6297 37.3751 19.6834 37.4391C19.6839 37.4397 19.6844 37.4402 19.6849 37.4408C19.7386 37.5049 19.7937 37.5678 19.8494 37.6301C19.8663 37.6491 19.8835 37.6677 19.9006 37.6865C19.9422 37.7322 19.9844 37.7774 20.027 37.8221C20.0442 37.8401 20.0613 37.8583 20.0787 37.8762C20.1372 37.9364 20.1963 37.9959 20.2566 38.0544C20.2568 38.0545 20.2569 38.0547 20.257 38.0548C20.3243 38.12 20.3927 38.1841 20.4624 38.2471C20.6015 38.3732 20.7453 38.495 20.8935 38.6126C21.0417 38.7302 21.1942 38.8436 21.3511 38.9528C21.4295 39.0074 21.509 39.0609 21.5895 39.1133C21.6619 39.1605 21.7355 39.2067 21.8096 39.2522C21.8309 39.2653 21.8524 39.2781 21.8739 39.2911C21.9299 39.3249 21.9862 39.3581 22.0428 39.3909C22.0652 39.4038 22.0876 39.4169 22.1102 39.4297C22.1864 39.4729 22.2631 39.5156 22.3409 39.557C22.3579 39.5661 22.3736 39.577 22.388 39.5893C22.4009 39.6005 22.4122 39.6131 22.4225 39.6264C22.4256 39.6303 22.4283 39.6345 22.4311 39.6387C22.4382 39.649 22.4445 39.6598 22.45 39.6711C22.4522 39.6756 22.4545 39.68 22.4565 39.6846C22.463 39.7004 22.4685 39.7166 22.4718 39.7336L23.0914 42.9518C23.0985 42.9897 23.109 43.0262 23.1223 43.0613C23.129 43.0788 23.1364 43.0959 23.1445 43.1126C23.1526 43.1293 23.1613 43.1455 23.1708 43.1614C23.1802 43.1772 23.1903 43.1925 23.201 43.2074C23.2117 43.2223 23.2231 43.2367 23.2351 43.2506C23.2486 43.2664 23.263 43.2812 23.2779 43.2955C23.2827 43.3 23.2877 43.3042 23.2925 43.3086C23.3033 43.3183 23.3143 43.3277 23.3256 43.3367C23.3314 43.3412 23.3372 43.3456 23.343 43.3499C23.3548 43.3585 23.3668 43.3666 23.379 43.3743C23.3845 43.3779 23.39 43.3815 23.3956 43.3848C23.4134 43.3954 23.4316 43.4053 23.4504 43.4141C23.4507 43.4142 23.4509 43.4143 23.4512 43.4144C23.47 43.4232 23.4894 43.4308 23.5091 43.4377C23.5153 43.4399 23.5217 43.4417 23.528 43.4437C23.542 43.4482 23.5562 43.4523 23.5706 43.4557C23.5779 43.4575 23.5852 43.4591 23.5925 43.4607C23.6071 43.4636 23.6219 43.466 23.6368 43.468C23.6435 43.469 23.6502 43.47 23.6569 43.4707C23.6784 43.4729 23.7001 43.4743 23.722 43.4744C23.7221 43.4744 23.7222 43.4744 23.7223 43.4744H25.8145C25.911 43.4744 26.0031 43.4529 26.086 43.4142C26.1191 43.3987 26.1508 43.3804 26.1807 43.3597C26.2105 43.339 26.2386 43.3157 26.2646 43.2902C26.3035 43.252 26.3376 43.2087 26.3659 43.1613C26.4037 43.0981 26.431 43.0275 26.4453 42.9517L26.784 41.1625V41.1624C26.7868 41.1476 26.7913 41.1334 26.7964 41.1198C26.7979 41.1157 26.7998 41.1119 26.8015 41.1079C26.8059 41.0981 26.8107 41.0886 26.8161 41.0795C26.8183 41.0759 26.8203 41.0723 26.8227 41.0688C26.8306 41.057 26.8391 41.0457 26.8487 41.0355C26.875 41.0077 26.9077 40.9871 26.9436 40.9733C26.9471 40.972 26.9505 40.9707 26.954 40.9695C26.9626 40.9666 26.9712 40.9641 26.9802 40.9621C26.987 40.9606 26.9939 40.9596 27.0009 40.9586C27.0076 40.9577 27.0142 40.9565 27.021 40.9561C27.0356 40.9553 27.0504 40.9553 27.0654 40.9571C27.1779 40.9701 27.2911 40.9817 27.4047 40.9926C27.4332 40.9953 27.4616 40.998 27.4901 41.0006C27.6037 41.0109 27.7176 41.0205 27.8322 41.0287C27.8328 41.0287 27.8333 41.0287 27.8339 41.0288C27.9485 41.0369 28.0639 41.0436 28.1795 41.0496C28.2086 41.0511 28.2377 41.0525 28.2669 41.0539C28.383 41.0594 28.4994 41.0641 28.6166 41.0674C28.7923 41.0723 28.9691 41.0748 29.1468 41.0748C29.3844 41.0748 29.6219 41.0704 29.859 41.0617C29.9804 41.0572 30.1017 41.0515 30.2229 41.0447C30.2353 41.044 30.2475 41.043 30.2599 41.0423C30.3699 41.0359 30.4799 41.0288 30.5896 41.0205C30.5922 41.0203 30.5947 41.02 30.5973 41.0198C30.838 41.0015 31.0779 40.9787 31.3167 40.9513C31.3174 40.9513 31.3181 40.9512 31.3188 40.951C31.4281 40.9385 31.537 40.9251 31.6457 40.9108C31.6983 40.9038 31.7506 40.896 31.803 40.8886C31.8607 40.8804 31.9185 40.8728 31.976 40.8641C32.0925 40.8465 32.2025 40.912 32.2468 41.0165C32.2474 41.0178 32.2483 41.019 32.2489 41.0204C32.2551 41.0358 32.2599 41.0519 32.2631 41.0688L32.4413 42.0103L32.6195 42.9518C32.6769 43.2549 32.9418 43.4744 33.2504 43.4744H35.3426C35.3427 43.4744 35.3428 43.4744 35.3429 43.4744C35.3649 43.4744 35.3865 43.473 35.408 43.4708C35.4148 43.4701 35.4214 43.469 35.4281 43.4681C35.443 43.4661 35.4578 43.4637 35.4723 43.4607C35.4797 43.4592 35.487 43.4575 35.4942 43.4558C35.5086 43.4523 35.5229 43.4482 35.5369 43.4437C35.5431 43.4417 35.5495 43.4399 35.5557 43.4377C35.5755 43.4308 35.595 43.4231 35.6139 43.4143C35.614 43.4142 35.614 43.4142 35.6141 43.4142C35.633 43.4053 35.6513 43.3954 35.6692 43.3848C35.6748 43.3815 35.6802 43.3779 35.6857 43.3743C35.698 43.3666 35.7101 43.3585 35.7218 43.3499C35.7276 43.3456 35.7334 43.3412 35.7391 43.3367C35.7505 43.3278 35.7615 43.3183 35.7723 43.3086C35.7772 43.3042 35.7821 43.3 35.7869 43.2955C35.8018 43.2812 35.8162 43.2664 35.8298 43.2507C35.835 43.2445 35.8398 43.2379 35.8448 43.2315C35.8625 43.2092 35.8793 43.1861 35.894 43.1614C35.9129 43.1298 35.9291 43.0964 35.9424 43.0613C35.9558 43.0263 35.9662 42.9897 35.9734 42.9518L36.1144 42.2052L36.261 41.4292L36.3529 40.9426L36.6169 39.5444L36.6406 39.4191C36.6839 39.3976 36.7014 39.3889 36.7448 39.3674C36.7464 39.368 36.7474 39.3677 36.7483 39.3673C36.749 39.3669 36.7496 39.3662 36.7504 39.3659C36.8006 39.3398 36.8496 39.3124 36.8993 39.2858C36.9512 39.2578 37.0037 39.2305 37.055 39.202C37.0995 39.1772 37.1429 39.1512 37.187 39.126C37.2423 39.0942 37.2982 39.0629 37.3529 39.0304C37.3979 39.0036 37.4417 38.9756 37.4862 38.9483C37.5386 38.916 37.5917 38.8843 37.6434 38.8514C37.6898 38.8218 37.7349 38.7911 37.7806 38.7609C37.8292 38.7289 37.8784 38.6974 37.9264 38.6648C37.9716 38.6339 38.0156 38.6018 38.0602 38.5703C38.1073 38.5371 38.155 38.5045 38.2014 38.4707C38.2446 38.4391 38.2865 38.4063 38.3291 38.3742C38.3756 38.3391 38.4227 38.3047 38.4683 38.2689C38.5097 38.2366 38.5497 38.2031 38.5904 38.1701C38.6359 38.1334 38.682 38.0972 38.7267 38.0597C38.7678 38.0253 38.8075 37.9896 38.8479 37.9545C38.8907 37.9174 38.9343 37.8808 38.9763 37.843C39.0155 37.8077 39.0532 37.7712 39.0918 37.7353C39.1335 37.6965 39.176 37.6581 39.2169 37.6186C39.2543 37.5824 39.2901 37.5451 39.3267 37.5084C39.3672 37.4678 39.4084 37.4279 39.448 37.3867C39.484 37.3491 39.5185 37.3104 39.5538 37.2723C39.5923 37.2307 39.6317 37.1896 39.6693 37.1473C39.7037 37.1087 39.7365 37.0688 39.7701 37.0296C39.807 36.9866 39.8446 36.944 39.8807 36.9002C39.9134 36.8605 39.9445 36.8194 39.9765 36.779C40.0116 36.7346 40.0476 36.6908 40.0817 36.6457C40.1131 36.6042 40.1428 36.5615 40.1734 36.5194C40.2063 36.4742 40.2401 36.4295 40.272 36.3835C40.3019 36.3405 40.33 36.2963 40.3591 36.2528C40.3899 36.2065 40.4216 36.1608 40.4515 36.1138C40.4886 36.0555 40.5225 35.995 40.5596 35.9367C40.5816 35.9022 40.6022 35.8668 40.6228 35.8313C40.7358 35.6368 40.9141 35.4887 41.1284 35.4201L41.1356 35.4177H41.1357L42.1606 35.0894L43.1447 34.7742C43.654 34.6111 43.9996 34.1375 43.9996 33.6027V31.535C43.9996 31.3523 43.9584 31.1771 43.885 31.0186C43.8721 30.9903 43.8581 30.9627 43.8431 30.9358Z" fill="#1914C2"/>
    <path d="M34.0206 23.7921C34.0842 23.4901 34.2932 23.239 34.5739 23.1105C35.6522 22.6169 38.3997 21.4291 39.1059 21.7991C39.9904 22.2624 39.5271 27.2639 38.1793 28.0273C36.8775 28.7647 33.1001 28.1611 34.0206 23.7921Z" fill="#1914C2"/>
    <path d="M38.1158 31.7605C37.3171 31.7605 36.6672 31.1106 36.6672 30.3119C36.6672 30.0672 36.8656 29.8688 37.1103 29.8688C37.3549 29.8688 37.5533 30.0672 37.5533 30.3119C37.5533 30.6221 37.8056 30.8744 38.1158 30.8744C38.426 30.8744 38.6783 30.6221 38.6783 30.3119C38.6783 30.0672 38.8767 29.8688 39.1214 29.8688C39.366 29.8688 39.5644 30.0672 39.5644 30.3119C39.5645 31.1106 38.9146 31.7605 38.1158 31.7605Z" fill="#1914C2"/>
    <path d="M31.603 26.3616C31.5565 26.3616 31.5091 26.3542 31.4625 26.3386C29.0464 25.5308 26.385 25.5308 23.9689 26.3386C23.7368 26.4161 23.4858 26.291 23.4082 26.0589C23.3307 25.8268 23.4559 25.5758 23.688 25.4982C26.2853 24.6298 29.1462 24.6298 31.7436 25.4982C31.9756 25.5758 32.1009 25.8268 32.0233 26.0589C31.9612 26.2444 31.7884 26.3616 31.603 26.3616Z" fill="#1914C2"/>
    <path d="M27.7162 25.7334C30.8111 25.7334 33.3201 23.2245 33.3201 20.1296C33.3201 17.0346 30.8111 14.5257 27.7162 14.5257C24.6212 14.5257 22.1123 17.0346 22.1123 20.1296C22.1123 23.2245 24.6212 25.7334 27.7162 25.7334Z" fill="#FFB125"/>
    <path d="M38.731 22.3787C38.116 22.3787 36.6266 22.8855 34.8443 23.7014C34.747 23.7459 34.6768 23.83 34.6565 23.9262C34.3968 25.1589 34.5357 26.151 35.0583 26.7952C35.1194 26.8705 35.1865 26.9414 35.2587 27.0077C35.3427 27.0849 35.4783 27.0416 35.5062 26.931C36.1256 24.4777 39.1317 22.3787 38.731 22.3787Z" fill="#0167F6"/>
    <path d="M31.7475 16.2375L23.824 24.161C26.0175 26.2803 29.5136 26.2576 31.6788 24.0923C33.8441 21.9271 33.8667 18.431 31.7475 16.2375Z" fill="#FF901D"/>
  </g>
  <defs>
    <clipPath id="clip0">
      <rect width="30" height="30" fill="white" transform="translate(14 14)"/>
    </clipPath>
  </defs>
</svg>
