<svg width="395" height="325" viewBox="0 0 395 325" fill="none" xmlns="http://www.w3.org/2000/svg">
<path opacity="0.49" d="M272.214 30.9131C193.438 52.7039 129.033 2.32824 88.401 0.27424C27.3077 -2.80676 -34.8917 64.6461 46.7417 182.738C128.375 300.83 161.838 327.453 251.102 315.306C322.524 305.589 370.214 237.88 383.947 190.434C405.435 116.147 350.99 9.12882 272.214 30.9131Z" fill="url(#paint0_linear)"/>
<path d="M190.232 15.9163H90.0469V88.3461H190.232V15.9163Z" fill="#223762"/>
<path d="M187.862 15.9163H88.8948V88.3461H187.862V15.9163Z" fill="url(#paint1_linear)"/>
<path d="M183.998 20.1362H92.7723V84.1394H183.998V20.1362Z" fill="url(#paint2_linear)"/>
<path d="M94.563 20.1362H92.7723V84.1394H94.563V20.1362Z" fill="#223762"/>
<path d="M94.5564 73.1518L118.5 57.286L146.486 63.2176L175.709 31.1699L183.998 40.301V84.1328H94.5564V73.1518Z" fill="#D6E3FA"/>
<path d="M108.77 44.3101C112.02 44.3101 114.655 41.009 114.655 36.9368C114.655 32.8646 112.02 29.5635 108.77 29.5635C105.519 29.5635 102.884 32.8646 102.884 36.9368C102.884 41.009 105.519 44.3101 108.77 44.3101Z" fill="white"/>
<path d="M108.329 64.0272L116.38 67.5032L123.227 62.8159L137.335 61.2754L118.5 57.2859L108.329 64.0272Z" fill="white"/>
<path d="M166.308 41.4728L172.766 45.357L176.947 42.5064L181.397 44.3037L184.195 43.4149L183.998 40.301L175.709 31.1699L166.308 41.4728Z" fill="white"/>
<path d="M94.5564 77.7402C101.834 73.0087 110.598 71.12 119.178 72.4341C133.721 74.5934 134.978 82.0589 148.625 78.9187C162.273 75.7784 167.875 60.2549 174.123 61.4333C180.37 62.6117 184.195 69.3004 184.195 69.3004L183.991 84.1392H94.5564V77.7402Z" fill="white"/>
<path d="M94.5564 78.9188C94.5564 78.9188 104.635 72.8292 119.178 74.5936C133.721 76.3579 134.978 82.4475 148.625 79.8602C162.273 77.273 167.875 64.6593 174.123 65.6205C180.37 66.5817 184.195 72.0327 184.195 72.0327L183.991 84.1394H94.5564V78.9188Z" fill="#3769A5"/>
<path opacity="0.49" d="M36.8666 207.425C38.5256 199.19 49.4935 197.399 53.7792 204.621C63.911 221.691 86.1231 252.376 106.446 270.099C134.965 294.964 87.2752 319.388 60.0531 308.374C32.8311 297.36 34.1543 221.626 36.7679 207.833L36.8666 207.425Z" fill="url(#paint3_linear)"/>
<path d="M104.148 162.902C104.148 162.902 100.771 161.388 99.3425 159.782C97.9139 158.175 90.4418 148.261 89.0659 147.978C88.4434 147.832 87.7956 147.833 87.1732 147.979C86.5508 148.125 85.9706 148.413 85.478 148.821C84.5761 149.617 99.4083 178.584 99.4083 178.584L112.641 174.022L104.148 162.902Z" fill="url(#paint4_linear)"/>
<path d="M85.478 148.821C85.478 148.821 84.7275 148.821 84.0297 150.223C83.3318 151.625 83.8058 158.123 86.0771 162.929C88.3483 167.734 90.9027 176.754 91.4096 177.787C91.7887 178.38 92.3248 178.855 92.9583 179.161C93.5918 179.467 94.2978 179.591 94.9975 179.519C96.2352 179.268 98.4801 178.939 99.4149 178.617C100.35 178.294 101.192 176.826 97.8349 170.894C94.4774 164.963 92.6209 162.211 90.9751 157.458C89.3292 152.705 88.6182 150.15 87.4398 149.472C86.8544 149.087 86.1778 148.862 85.478 148.821Z" fill="url(#paint5_linear)"/>
<path d="M212.832 195.569C212.832 195.569 180.061 167.55 169.916 161.336C159.771 155.121 105.063 161.336 104.451 161.336C103.839 161.336 101.995 165.16 101.995 168.913C101.995 172.665 107.111 177.471 107.111 177.471L155.169 179.216L211.127 202.995L212.832 195.569Z" fill="url(#paint6_linear)"/>
<path d="M137.091 163.284C128.928 163.89 112.456 166.576 102.015 168.386C102.015 168.57 102.015 168.755 102.015 168.939C102.015 172.685 107.131 177.497 107.131 177.497L155.189 179.242L211.147 203.021L212.872 195.608C212.872 195.608 197.638 182.586 184.728 172.323C167.46 167.998 144.557 162.731 137.091 163.284Z" fill="url(#paint7_linear)"/>
<path d="M112.733 176.971C112.733 176.971 109.724 174.812 108.651 172.949C107.578 171.085 102.239 159.881 100.949 159.321C100.368 159.053 99.7327 158.923 99.0931 158.941C98.4536 158.96 97.8269 159.126 97.2622 159.426C96.222 160.012 104.932 191.408 104.932 191.408L118.816 189.591L112.733 176.971Z" fill="url(#paint8_linear)"/>
<path d="M236.71 310.883L185.4 317.295H240.924V310.883H236.71Z" fill="url(#paint9_linear)"/>
<path d="M245.137 310.883L296.441 317.295H240.924V310.883H245.137Z" fill="url(#paint10_linear)"/>
<path d="M245.111 233.14H236.71V310.889H245.111V233.14Z" fill="url(#paint11_linear)"/>
<path d="M248.62 237.136H233.201V251.501H248.62V237.136Z" fill="url(#paint12_linear)"/>
<path d="M240.911 226.293H167.421V234.358H240.911V226.293Z" fill="url(#paint13_linear)"/>
<path d="M304.446 133.653H229.818C228.001 133.653 226.526 135.424 226.526 137.603V137.767C226.377 147.499 225.718 157.216 224.551 166.879C223.645 174.658 222.244 182.372 220.357 189.973C218.435 197.471 215.907 204.371 212.767 209.499C209.278 215.201 204.596 220.08 199.04 223.798C193.504 227.459 187.276 229.664 181.035 229.664C176.78 229.666 172.588 228.624 168.83 226.629C167.164 225.753 165.228 226.682 164.504 228.703C163.78 230.724 164.55 233.068 166.216 233.969C170.288 236.126 174.781 237.368 179.383 237.61L179.481 237.656H254.229L287.415 217.623L298.311 198.926L304.986 148.531L304.446 133.653Z" fill="url(#paint14_linear)"/>
<path d="M240.746 226.293H222.767V234.74H240.746V226.293Z" fill="url(#paint15_linear)"/>
<path d="M299.746 137.622V137.767C299.597 147.499 298.938 157.216 297.771 166.879C296.865 174.658 295.464 182.372 293.577 189.973C291.655 197.471 289.127 204.371 285.987 209.499C282.498 215.201 277.815 220.08 272.26 223.798C266.724 227.458 260.496 229.664 254.255 229.664C249.999 229.666 245.808 228.624 242.049 226.629C240.384 225.753 238.448 226.682 237.724 228.703C237 230.724 237.77 233.067 239.436 233.969C243.997 236.392 249.083 237.661 254.248 237.663C261.773 237.663 269.035 235.029 275.407 230.822C281.834 226.519 287.248 220.87 291.273 214.265C295.17 207.86 297.955 199.92 300.049 191.592C303.182 179.084 304.729 165.707 305.526 155.384C306.323 145.061 306.342 137.8 306.342 137.714C306.342 135.516 304.881 133.725 303.051 133.718C301.22 133.712 299.759 135.489 299.759 137.668L299.746 137.622Z" fill="url(#paint16_linear)"/>
<path d="M260.213 206.859C260.213 206.859 256.704 217.36 243.241 223.607C229.778 229.855 209.995 232.824 197.572 228.874C176.506 222.291 155.828 184.167 155.828 184.167L116.058 190.954C113.612 188.559 112.195 185.305 112.108 181.882V175.825C112.108 175.825 153.537 165.358 162.549 165.147C171.562 164.937 209.291 197.518 211.365 199.256C213.438 200.994 221.839 189.453 221.839 189.453L260.213 206.859Z" fill="url(#paint17_linear)"/>
<path d="M212.833 217.426C200.541 218.387 189.646 211.961 180.515 205.72C171.384 199.479 165.452 178.005 151.989 177.689C141.667 177.445 121.324 182.238 112.391 184.489C112.983 186.949 114.254 189.193 116.058 190.967L155.827 184.18C155.827 184.18 176.539 222.278 197.572 228.887C209.995 232.791 229.785 229.848 243.241 223.621C256.697 217.393 260.213 206.892 260.213 206.892L234.702 195.339C229.811 203.838 221.062 216.807 212.833 217.426Z" fill="url(#paint18_linear)"/>
<path d="M259.792 73.5599C259.792 73.5599 260.68 72.5066 265.058 70.3539C269.436 68.2011 278.567 69.2479 278.883 69.5902C279.199 69.9325 281.47 78.6225 276.994 81.3283C272.517 84.034 268.547 84.8833 266.23 84.3434C263.913 83.8036 260.45 83.2704 260.45 83.2704L259.792 73.5599Z" fill="url(#paint19_linear)"/>
<path d="M312.57 86.9768C312.57 86.9768 313.189 83.6852 308.541 79.1953C303.893 74.7055 294.716 71.5982 291.141 74.2117C287.567 76.8253 288.554 82.9281 288.58 83.2902C288.607 83.6522 300.2 87.7339 300.2 87.7339L294.868 88.3922C294.868 88.3922 301.543 92.3949 304.275 93.0006C307.007 93.6062 312.57 86.9768 312.57 86.9768Z" fill="url(#paint20_linear)"/>
<path d="M252.681 117.464C252.681 117.464 238.468 111.743 234.623 102.764C230.779 93.784 262.8 84.6068 262.8 84.6068C262.8 84.6068 263.399 80.2026 263.867 76.8978C264.334 73.5929 259.752 72.9478 259.752 72.9478C259.752 72.9478 248.692 74.9228 230.002 81.8221C215.973 86.99 215.519 88.4054 213.471 95.8314C211.424 103.257 230.219 128.544 237.737 144.469C242.267 154.094 252.681 117.464 252.681 117.464Z" fill="#149929"/>
<path d="M274.137 120.835C274.137 120.835 288.673 121.98 292.228 124.521C295.783 127.063 298.35 133.495 299.384 139.894C300.417 146.293 287.626 184.002 276.224 198.209C264.821 212.416 262.135 211.053 262.135 211.053C262.135 211.053 223.952 206.675 216.934 202.587C209.916 198.498 206.717 194.16 206.717 194.16C206.717 194.16 224.953 164.226 229.166 148.169C233.379 132.112 236.875 120.782 244.11 118.61C251.345 116.437 259.706 116.352 259.706 116.352L274.137 120.835Z" fill="#BDFF6A"/>
<path d="M299.384 139.887C299.066 137.907 298.602 135.953 297.995 134.041L289.147 134.66C289.147 134.66 292.142 145.634 290.522 149.887C288.903 154.14 279.62 162.54 269.002 164.37C258.383 166.201 271.832 170.473 272.952 174.166C274.071 177.86 250.621 185.483 236.394 181.408C230.033 179.63 223.86 177.238 217.961 174.265C212.286 185.108 206.769 194.2 206.769 194.2C206.769 194.2 209.936 198.538 216.987 202.626C224.037 206.714 262.188 211.092 262.188 211.092C262.188 211.092 264.874 212.468 276.276 198.248C287.678 184.028 300.417 146.286 299.384 139.887Z" fill="#149929"/>
<path d="M261.898 116.516C261.008 116.775 260.248 117.36 259.772 118.155C259.283 119.089 259.123 120.161 259.319 121.197C259.515 122.233 260.055 123.172 260.851 123.863C262.886 125.548 270.252 126.931 273.9 125.535C277.547 124.14 276.987 121.513 276.987 121.513L261.898 116.516Z" fill="white"/>
<path d="M263.774 105.055L261.898 116.523C261.898 116.523 262.708 119.156 267.165 120.901C271.622 122.645 277.007 121.52 277.007 121.52L281.286 110.749L263.774 105.055Z" fill="url(#paint21_linear)"/>
<path d="M272.616 64.3894C272.616 64.3894 265.809 79.1756 263.597 84.4422C261.385 89.7089 267.428 93.5602 267.428 93.5602L280.911 87.1875L282.748 69.689L272.616 64.3894Z" fill="url(#paint22_linear)"/>
<path d="M265.716 82.5395C263.741 88.6422 261.391 96.0353 261.47 103.316C261.549 110.598 273.472 116.746 279.561 113.323C285.651 109.9 290.18 102.434 290.18 102.434C290.18 102.434 294.354 104.409 296.691 101.598C299.028 98.7872 300.641 93.9287 298.975 92.217C297.31 90.5053 294.584 91.9734 294.584 91.9734C294.584 91.9734 297.685 86.0484 294.775 80.4789C291.865 74.9094 274.525 69.781 273.314 70.2221C272.102 70.6632 267.698 76.4367 265.716 82.5395Z" fill="url(#paint23_linear)"/>
<path d="M288.738 98.7345C288.738 98.7345 293.281 91.664 294.005 87.9708C294.729 84.2775 293.715 81.2426 290.279 78.3262C286.842 75.4098 274.92 72.4012 272.649 70.6566C270.378 68.912 269.357 67.1543 272.208 62.4472C275.058 57.7401 285.058 53.4544 294.933 58.4643C304.808 63.4742 307.949 69.9983 310.128 74.4157C312.307 78.8331 306.955 86.5422 303.288 93.3362C299.621 100.13 293.413 108.906 289.97 111.5C286.526 114.093 282.168 111.533 282.168 111.533L290.325 101.73C290.325 101.73 291.747 103.145 294.617 101.579C297.488 100.012 299.884 96.1868 299.482 93.7641C299.081 91.3414 295.743 90.5909 293.748 92.7503C291.754 94.9096 288.738 98.7345 288.738 98.7345Z" fill="url(#paint24_linear)"/>
<path d="M270.483 86.8516C270.483 86.8516 266.204 93.9747 265.723 95.9695C265.243 97.9642 270.7 98.4646 270.7 98.4646" stroke="url(#paint25_linear)" stroke-linecap="round" stroke-linejoin="round"/>
<path d="M298.416 73.7574C293.841 69.6165 275.769 68.2143 274.328 65.0806C273.88 64.1063 273.952 62.2563 274.268 60.1628C273.468 60.8212 272.779 61.6036 272.227 62.4802C269.403 67.1873 270.404 68.9713 272.669 70.6896C274.933 72.4078 286.856 75.4428 290.299 78.3592C293.742 81.2756 294.775 84.2842 294.025 88.0038C293.274 91.7233 288.758 98.7675 288.758 98.7675C288.758 98.7675 302.991 77.8983 298.416 73.7574Z" fill="url(#paint26_linear)"/>
<path d="M293.781 95.2782C293.781 95.2782 295.605 94.8568 295.592 96.3512C295.578 97.8457 295.039 99.0833 293.077 99.2545C292.765 99.2715 292.458 99.1727 292.215 98.977C291.972 98.7813 291.81 98.5026 291.76 98.1946" stroke="url(#paint27_linear)" stroke-linecap="round" stroke-linejoin="round"/>
<path d="M275.328 84.0471C275.328 84.0471 276.072 89.1097 278.85 89.8075C280.394 90.2481 282.042 90.1435 283.518 89.5113" stroke="url(#paint28_linear)" stroke-linecap="round" stroke-linejoin="round"/>
<path d="M271.944 82.579C271.944 82.579 270.062 84.2972 268.403 83.8957C266.744 83.4941 267.863 80.7817 267.863 80.7817" stroke="url(#paint29_linear)" stroke-linecap="round" stroke-linejoin="round"/>
<path d="M289.923 123.909C289.923 123.909 323.268 119.847 327.916 115.963C332.564 112.079 303.88 93.547 303.88 93.547C303.88 93.547 308.186 86.121 310.878 85.693L313.571 85.2651C313.571 85.2651 347.403 104.199 350.661 113.376C353.92 122.553 334.795 135.759 323.959 140.21C313.123 144.66 298.943 150.539 292.57 148.59C286.197 146.642 284.387 137.458 286.329 131.223C288.271 124.989 289.923 123.909 289.923 123.909Z" fill="#149929"/>
<path d="M135.399 317.281H143.378L112.167 200.802H104.188L135.399 317.281Z" fill="url(#paint30_linear)"/>
<path d="M72.7327 317.281H64.7537L95.9652 200.802H103.944L72.7327 317.281Z" fill="url(#paint31_linear)"/>
<path d="M320.154 317.281H328.14L296.928 200.802H288.943L320.154 317.281Z" fill="url(#paint32_linear)"/>
<path d="M257.494 317.281H249.508L280.72 200.802H288.705L257.494 317.281Z" fill="url(#paint33_linear)"/>
<path d="M95.3399 317.281H103.325L72.1139 200.802H64.1283L95.3399 317.281Z" fill="url(#paint34_linear)"/>
<path d="M32.6797 317.281H24.6941L55.9057 200.802H63.8913L32.6797 317.281Z" fill="url(#paint35_linear)"/>
<path d="M67.5727 110.195L67.7178 109.391C67.8044 108.912 67.486 108.453 67.0065 108.366L19.3314 99.7539C18.852 99.6673 18.3931 99.9857 18.3065 100.465L18.1614 101.269C18.0748 101.748 18.3932 102.207 18.8727 102.293L66.5478 110.906C67.0272 110.993 67.4861 110.674 67.5727 110.195Z" fill="#223762"/>
<path opacity="0.48" d="M85.6961 136.562C89.1363 134.37 90.1477 129.804 87.9552 126.364C85.7627 122.923 81.1966 121.912 77.7564 124.104C74.3162 126.297 73.3047 130.863 75.4972 134.303C77.6897 137.743 82.2559 138.755 85.6961 136.562Z" fill="#EF8C48"/>
<path d="M68.4991 105.073L68.6442 104.27C68.7308 103.791 68.4124 103.332 67.9329 103.245L20.2578 94.6326C19.7784 94.546 19.3195 94.8644 19.2329 95.3439L19.0878 96.1472C19.0012 96.6266 19.3196 97.0855 19.7991 97.1721L67.4741 105.785C67.9536 105.871 68.4125 105.553 68.4991 105.073Z" fill="#223762"/>
<path d="M24.4292 96.898L23.627 97.049C23.1482 97.1391 22.8331 97.6003 22.9232 98.0791L41.3069 195.746C41.3971 196.225 41.8583 196.54 42.3371 196.45L43.1393 196.299C43.6181 196.209 43.9332 195.747 43.8431 195.269L25.4593 97.6017C25.3692 97.1229 24.908 96.8078 24.4292 96.898Z" fill="#223762"/>
<path d="M80.2726 132.552L84.3365 129.962C85.2471 129.382 85.5149 128.173 84.9345 127.262L68.0927 100.836C67.5124 99.9255 66.3037 99.6578 65.393 100.238L61.3292 102.828C60.4185 103.408 60.1508 104.617 60.7312 105.528L77.5729 131.954C78.1533 132.865 79.362 133.132 80.2726 132.552Z" fill="url(#paint36_linear)"/>
<path d="M84.5531 134.769C87.0029 133.208 87.7232 129.956 86.1619 127.506C84.6006 125.057 81.3489 124.336 78.8991 125.898C76.4492 127.459 75.729 130.711 77.2903 133.16C78.8516 135.61 82.1033 136.331 84.5531 134.769Z" fill="url(#paint37_linear)"/>
<path d="M71.3041 113.988C78.5458 109.38 89.7374 113.83 96.1891 123.982L69.8558 140.763C63.3843 130.611 64.0361 118.623 71.3041 113.988Z" fill="url(#paint38_linear)"/>
<path d="M96.1891 123.982L89.112 128.491C84.3786 121.065 78.2166 115.7 72.4496 113.35C79.7044 109.827 90.0534 114.344 96.1891 123.982Z" fill="#223762"/>
<path d="M19.3102 97.8606L18.5079 98.0116C18.0291 98.1017 17.7141 98.5629 17.8042 99.0417L36.1879 196.709C36.278 197.187 36.7392 197.503 37.218 197.412L38.0203 197.261C38.4991 197.171 38.8142 196.71 38.724 196.231L20.3403 98.5644C20.2502 98.0856 19.789 97.7705 19.3102 97.8606Z" fill="#223762"/>
<path d="M23.5551 105.252C27.0347 105.252 29.8554 102.431 29.8554 98.9519C29.8554 95.4723 27.0347 92.6516 23.5551 92.6516C20.0756 92.6516 17.2549 95.4723 17.2549 98.9519C17.2549 102.431 20.0756 105.252 23.5551 105.252Z" fill="#223762"/>
<path d="M22.3834 105.252C25.8629 105.252 28.6836 102.431 28.6836 98.9519C28.6836 95.4723 25.8629 92.6516 22.3834 92.6516C18.9038 92.6516 16.0831 95.4723 16.0831 98.9519C16.0831 102.431 18.9038 105.252 22.3834 105.252Z" fill="#4C93F4"/>
<path d="M22.3833 102.105C24.1249 102.105 25.5367 100.693 25.5367 98.9518C25.5367 97.2102 24.1249 95.7983 22.3833 95.7983C20.6417 95.7983 19.2299 97.2102 19.2299 98.9518C19.2299 100.693 20.6417 102.105 22.3833 102.105Z" fill="#223762"/>
<path d="M24.6941 200.802L329.048 200.802V191.408L24.6941 191.408V200.802Z" fill="url(#paint39_linear)"/>
<path d="M273.044 200.802H329.048V191.408H273.044V200.802Z" fill="#3769A5"/>
<path d="M24.6941 200.802L329.048 200.802V197.748L24.6941 197.748V200.802Z" fill="#83A4D6"/>
<path d="M273.314 200.802H329.048V197.748H273.314V200.802Z" fill="#223762"/>
<path d="M281.365 317.281H289.344L258.139 200.802H250.153L281.365 317.281Z" fill="url(#paint40_linear)"/>
<path d="M218.705 317.281H210.719L241.931 200.802H249.916L218.705 317.281Z" fill="url(#paint41_linear)"/>
<path d="M0 324.214H395L367.89 317.281H25.0035L0 324.214Z" fill="url(#paint42_linear)"/>
<path d="M97.2687 159.426C97.2687 159.426 96.5248 159.308 95.5637 160.506C94.6025 161.704 93.7598 168.195 95.0238 173.363C96.2878 178.531 96.9988 187.847 97.2687 188.985C97.5212 189.642 97.9509 190.215 98.51 190.642C99.0691 191.068 99.7356 191.331 100.435 191.402C101.699 191.402 103.964 191.527 104.945 191.402C105.926 191.276 107.045 190.006 104.945 183.502C102.845 176.997 101.581 173.949 100.916 168.959C100.251 163.969 100.073 161.329 99.0528 160.401C98.5521 159.928 97.9375 159.592 97.2687 159.426V159.426Z" fill="url(#paint43_linear)"/>
<path d="M53.8714 191.428H83.2331L75.0237 152.099H45.662L53.8714 191.428Z" fill="#223762"/>
<path d="M51.2974 191.428H81.1923L72.8314 152.099H42.9365L51.2974 191.428Z" fill="url(#paint44_linear)"/>
<path d="M58.1374 164.318L48.1965 191.428H63.9044L59.7108 164.318H58.1374Z" fill="#223762"/>
<path d="M59.7109 164.318L49.7766 191.428H65.4779L59.7109 164.318Z" fill="#4C93F4"/>
<path d="M329.99 202.211C324.19 224.2 326.843 245.819 335.658 261.606C351.115 252.218 364.085 234.72 369.891 212.732C375.698 190.743 373.038 169.124 364.223 153.337C348.759 162.725 335.789 180.223 329.99 202.211Z" fill="url(#paint45_linear)"/>
<path d="M353.064 201.329C349.43 211.549 346.424 221.981 344.065 232.567C339.871 251.001 340.931 272.91 340.931 272.91" stroke="#112244" stroke-linecap="round" stroke-linejoin="round"/>
<path d="M328.627 195.003C328.627 195.003 331.142 216.109 334.249 232.436C337.356 248.762 339.456 270.257 339.456 270.257" stroke="#112244" stroke-linecap="round" stroke-linejoin="round"/>
<path d="M323.584 230.493C323.584 230.493 328.627 244.266 332.313 253.186C336 262.107 339.456 271.29 339.456 271.29" stroke="#112244" stroke-linecap="round" stroke-linejoin="round"/>
<path d="M344.769 117.662C342.136 136.924 344.42 154.699 350.108 166.707C358.805 156.661 365.777 140.157 368.41 120.887C371.043 101.618 368.759 83.8496 363.071 71.8416C354.374 81.8877 347.402 98.3921 344.769 117.662Z" fill="url(#paint46_linear)"/>
<path d="M326.902 148.557C327.692 130.921 328.877 99.0836 329.535 80.5251C317.297 95.6668 309.443 118.886 309.443 144.95C309.443 170.71 317.119 193.666 329.114 208.808C327.791 191.04 326.178 164.614 326.902 148.557Z" fill="url(#paint47_linear)"/>
<path d="M350.674 144.95C350.674 118.511 342.603 94.9952 330.062 79.8601C329.884 80.0774 329.72 80.3078 329.542 80.5184C328.884 99.0769 327.692 130.914 326.909 148.551C326.191 164.607 327.797 191.033 329.127 208.828C329.443 209.223 329.746 209.644 330.069 210.032C342.603 194.904 350.674 171.382 350.674 144.95Z" fill="url(#paint48_linear)"/>
<path d="M350.806 163.001C346.053 178.854 346.665 194.403 351.464 205.727C361.702 198.906 370.767 186.26 375.52 170.407C380.273 154.555 379.661 139.005 374.862 127.681C364.625 134.475 355.559 147.155 350.806 163.001Z" fill="url(#paint49_linear)"/>
<path d="M362.261 317.281H316.889L310.154 258.479H369.002L362.261 317.281Z" fill="url(#paint50_linear)"/>
<path d="M310.154 258.479L316.889 317.281H334.249L329.226 258.479H310.154Z" fill="url(#paint51_linear)"/>
<path d="M371.293 256.801H307.85V271.29H371.293V256.801Z" fill="#FFD46A"/>
<path d="M330.964 156.892C332.255 156.892 333.301 155.026 333.301 152.724C333.301 150.423 332.255 148.557 330.964 148.557C329.673 148.557 328.627 150.423 328.627 152.724C328.627 155.026 329.673 156.892 330.964 156.892Z" fill="url(#paint52_linear)"/>
<path d="M338.016 158.984C339.644 157.357 340.223 155.298 339.311 154.385C338.398 153.472 336.339 154.052 334.711 155.679C333.084 157.307 332.505 159.366 333.417 160.279C334.33 161.191 336.389 160.612 338.016 158.984Z" fill="url(#paint53_linear)"/>
<path d="M337.871 181.73C340.105 179.495 340.901 176.669 339.649 175.417C338.397 174.165 335.571 174.961 333.337 177.195C331.103 179.43 330.307 182.256 331.559 183.508C332.811 184.76 335.637 183.964 337.871 181.73Z" fill="url(#paint54_linear)"/>
<path d="M337.188 192.219C338.522 189.354 338.302 186.427 336.697 185.679C335.092 184.932 332.709 186.648 331.376 189.512C330.042 192.376 330.262 195.304 331.867 196.051C333.472 196.799 335.855 195.083 337.188 192.219Z" fill="url(#paint55_linear)"/>
<path d="M295.908 203.172C303.149 221.441 315.164 235.483 327.975 242.501C310.233 222.462 292.3 152.553 292.3 152.553C287.804 166.444 288.673 184.904 295.908 203.172Z" fill="url(#paint56_linear)"/>
<path d="M324.394 191.882C317.152 173.613 305.138 159.571 292.326 152.553C292.326 152.553 310.24 222.462 327.975 242.501C332.498 228.617 331.629 210.151 324.394 191.882Z" fill="url(#paint57_linear)"/>
<path d="M324.394 191.882C317.152 173.613 305.138 159.571 292.326 152.553C292.326 152.553 310.24 222.462 327.975 242.501C332.498 228.617 331.629 210.151 324.394 191.882Z" fill="url(#paint58_linear)"/>
<path d="M313.215 208.17C314.134 207.785 314.323 206.146 313.637 204.51C312.951 202.873 311.651 201.859 310.732 202.244C309.813 202.629 309.624 204.267 310.31 205.904C310.995 207.54 312.296 208.555 313.215 208.17Z" fill="url(#paint59_linear)"/>
<path d="M324.823 210.03C325.742 209.645 325.931 208.006 325.246 206.369C324.56 204.733 323.26 203.718 322.341 204.103C321.422 204.488 321.233 206.127 321.918 207.763C322.604 209.4 323.905 210.415 324.823 210.03Z" fill="url(#paint60_linear)"/>
<path d="M320.137 206.317C320.811 204.667 320.607 203.022 319.68 202.644C318.754 202.265 317.456 203.296 316.782 204.946C316.108 206.596 316.312 208.24 317.239 208.619C318.165 208.998 319.463 207.967 320.137 206.317Z" fill="url(#paint61_linear)"/>
<path d="M319.796 213.77C320.468 212.128 320.266 210.491 319.344 210.113C318.422 209.736 317.13 210.761 316.458 212.403C315.785 214.045 315.987 215.682 316.909 216.059C317.831 216.437 319.124 215.412 319.796 213.77Z" fill="url(#paint62_linear)"/>
<path d="M325.53 223.778C326.453 221.523 326.176 219.276 324.911 218.758C323.645 218.24 321.872 219.647 320.948 221.902C320.025 224.156 320.302 226.403 321.567 226.921C322.833 227.44 324.607 226.032 325.53 223.778Z" fill="url(#paint63_linear)"/>
<path d="M328.17 231.442C328.265 229.007 327.235 226.991 325.869 226.937C324.503 226.884 323.319 228.814 323.223 231.248C323.128 233.682 324.158 235.699 325.524 235.752C326.89 235.806 328.075 233.876 328.17 231.442Z" fill="url(#paint64_linear)"/>
<path d="M167.381 234.358H232.899L235.084 226.293H167.381V234.358Z" fill="url(#paint65_linear)"/>
<path d="M163.444 117.168H145.492C144.84 117.168 144.216 117.427 143.755 117.887C143.295 118.348 143.036 118.972 143.036 119.624V130.677C143.033 131.002 143.093 131.324 143.215 131.625C143.337 131.926 143.518 132.2 143.746 132.43C143.974 132.661 144.246 132.844 144.546 132.969C144.845 133.095 145.167 133.159 145.492 133.159H149.442L153.141 138.215H154.498L159.554 133.159H163.504C164.155 133.159 164.779 132.9 165.24 132.44C165.7 131.979 165.959 131.355 165.959 130.703V119.63C165.96 119.302 165.895 118.977 165.769 118.674C165.642 118.372 165.456 118.098 165.222 117.868C164.987 117.639 164.709 117.458 164.404 117.338C164.099 117.218 163.772 117.16 163.444 117.168V117.168Z" fill="#149929"/>
<path d="M162.082 117.168H144.136C143.484 117.168 142.86 117.427 142.399 117.887C141.939 118.348 141.68 118.972 141.68 119.623V130.677C141.68 131.328 141.939 131.953 142.399 132.413C142.86 132.874 143.484 133.132 144.136 133.132H148.086L153.142 138.188L158.198 133.132H162.148C162.799 133.132 163.423 132.874 163.884 132.413C164.344 131.953 164.603 131.328 164.603 130.677V119.63C164.604 119.301 164.539 118.976 164.412 118.673C164.285 118.37 164.098 118.095 163.863 117.866C163.628 117.636 163.349 117.456 163.043 117.336C162.737 117.216 162.41 117.159 162.082 117.168Z" fill="#BDFF6A"/>
<path d="M136.137 83.5863H118.191C117.539 83.5863 116.915 83.845 116.454 84.3056C115.994 84.7661 115.735 85.3907 115.735 86.0419V97.0953C115.735 97.7466 115.994 98.3712 116.454 98.8317C116.915 99.2922 117.539 99.5509 118.191 99.5509H122.141L125.84 104.607H127.197L132.253 99.5509H136.203C136.854 99.5509 137.478 99.2922 137.939 98.8317C138.399 98.3712 138.658 97.7466 138.658 97.0953V86.0419C138.658 85.7138 138.593 85.389 138.465 85.0867C138.338 84.7844 138.151 84.5108 137.916 84.2819C137.681 84.053 137.402 83.8735 137.097 83.754C136.791 83.6346 136.465 83.5775 136.137 83.5863V83.5863Z" fill="#149929"/>
<path d="M134.781 83.5863H116.834C116.183 83.5863 115.559 83.845 115.098 84.3056C114.637 84.7661 114.379 85.3907 114.379 86.0419V97.0953C114.379 97.7466 114.637 98.3712 115.098 98.8317C115.559 99.2922 116.183 99.5509 116.834 99.5509H120.784L125.84 104.607L130.896 99.5509H134.846C135.498 99.5509 136.122 99.2922 136.583 98.8317C137.043 98.3712 137.302 97.7466 137.302 97.0953V86.0419C137.302 85.7138 137.236 85.389 137.109 85.0867C136.981 84.7844 136.795 84.5108 136.56 84.2819C136.325 84.053 136.046 83.8735 135.74 83.754C135.435 83.6346 135.108 83.5775 134.781 83.5863V83.5863Z" fill="#BDFF6A"/>
<path d="M194.478 96.1406H176.526C175.874 96.1406 175.25 96.3993 174.789 96.8598C174.329 97.3203 174.07 97.9449 174.07 98.5962V109.656C174.07 110.307 174.329 110.932 174.789 111.393C175.25 111.853 175.874 112.112 176.526 112.112H180.476L184.175 117.168H185.532L190.588 112.112H194.538C195.189 112.112 195.813 111.853 196.274 111.393C196.734 110.932 196.993 110.307 196.993 109.656V98.5962C196.993 98.2687 196.928 97.9444 196.801 97.6426C196.674 97.3407 196.487 97.0674 196.253 96.8385C196.019 96.6097 195.741 96.4301 195.436 96.3102C195.131 96.1904 194.806 96.1327 194.478 96.1406V96.1406Z" fill="#149929"/>
<path d="M193.122 96.1406H175.169C174.847 96.1406 174.528 96.2041 174.23 96.3275C173.932 96.4509 173.661 96.6318 173.433 96.8598C173.205 97.0878 173.024 97.3585 172.901 97.6565C172.777 97.9544 172.714 98.2737 172.714 98.5962V109.656C172.714 109.979 172.777 110.298 172.901 110.596C173.024 110.894 173.205 111.165 173.433 111.393C173.661 111.621 173.932 111.801 174.23 111.925C174.528 112.048 174.847 112.112 175.169 112.112H179.119L184.175 117.168L189.231 112.112H193.181C193.833 112.112 194.457 111.853 194.918 111.393C195.378 110.932 195.637 110.307 195.637 109.656V98.5962C195.637 98.2687 195.572 97.9444 195.444 97.6426C195.317 97.3407 195.131 97.0674 194.897 96.8385C194.663 96.6097 194.385 96.4301 194.08 96.3102C193.775 96.1904 193.45 96.1327 193.122 96.1406V96.1406Z" fill="#BDFF6A"/>
<path d="M166.473 191.454C166.473 191.454 144.043 191.705 134.939 190.947C125.834 190.19 122.266 184.575 121.423 182.06C120.933 180.68 120.649 179.236 120.58 177.774H91.9823C92.0511 179.236 92.335 180.68 92.825 182.06C93.6676 184.575 97.2358 190.19 106.341 190.947C115.445 191.705 137.875 191.454 137.875 191.454H166.473Z" fill="#BDFF6A"/>
<path d="M217.724 187.972H189.067C188.863 187.972 188.698 188.137 188.698 188.34V191.04C188.698 191.243 188.863 191.408 189.067 191.408H217.724C217.928 191.408 218.093 191.243 218.093 191.04V188.34C218.093 188.137 217.928 187.972 217.724 187.972Z" fill="#223762"/>
<path d="M138.329 191.408H193.385C194.458 191.408 195.097 190.355 194.814 189.058L185.485 146.187C185.202 144.87 184.103 143.837 183.036 143.837H127.98C126.907 143.837 126.268 144.89 126.551 146.187L135.88 189.058C136.163 190.355 137.262 191.408 138.329 191.408Z" fill="#223762"/>
<path d="M135.617 191.408H190.673C191.746 191.408 192.385 190.355 192.102 189.058L182.773 146.187C182.49 144.87 181.391 143.837 180.324 143.837H125.281C124.208 143.837 123.569 144.89 123.852 146.187L133.181 189.058C133.457 190.355 134.557 191.408 135.617 191.408Z" fill="url(#paint66_linear)"/>
<path d="M155.288 163.133C154.99 162.426 154.769 161.688 154.629 160.934C154.004 160.916 153.392 161.116 152.898 161.5C150.923 163.001 150.541 166.951 152.016 170.322C153.49 173.692 156.282 175.207 158.244 173.699C159.791 172.514 160.344 169.815 159.797 167.076C158.138 167.043 156.361 165.588 155.288 163.133Z" fill="#D6E3FA"/>
<path d="M209.159 163.771V154.996L217.191 148.722L218.27 150.328L211.167 155.878V163.771H209.159Z" fill="#149929"/>
<path d="M216.835 191.909H204.09L201.733 164.311H219.199L216.835 191.909Z" fill="url(#paint67_linear)"/>
<path d="M219.172 162.652H201.885L200.983 165.582H219.949L219.172 162.652Z" fill="url(#paint68_linear)"/>
<path d="M225.321 177.287L222.819 179.394L220.792 178.34L220.344 181.691L229.409 187.945L236.875 184.436L239.047 183.798V179.459L225.321 177.287Z" fill="url(#paint69_linear)"/>
<path d="M222.326 191.612L219.199 180.414H241.984L240.647 191.612H222.326Z" fill="url(#paint70_linear)"/>
<path d="M240.647 191.612H252.84L256.092 180.414H241.984L240.647 191.612Z" fill="url(#paint71_linear)"/>
<path d="M227.704 168.294L222.819 178.84L245.315 182.494L245.789 171.23L227.704 168.294Z" fill="url(#paint72_linear)"/>
<path d="M245.789 171.23L257.823 173.185L259.245 184.752L245.315 182.494L245.789 171.23Z" fill="url(#paint73_linear)"/>
<defs>
<linearGradient id="paint0_linear" x1="76.7979" y1="4.72247" x2="368.371" y2="244.724" gradientUnits="userSpaceOnUse">
<stop stop-color="#EAF1FC"/>
<stop offset="1" stop-color="#C0D4F4"/>
</linearGradient>
<linearGradient id="paint1_linear" x1="161.121" y1="21.1039" x2="127.783" y2="66.6079" gradientUnits="userSpaceOnUse">
<stop stop-color="#4C93F4"/>
<stop offset="1" stop-color="#0B63DA"/>
</linearGradient>
<linearGradient id="paint2_linear" x1="23574.1" y1="2050.96" x2="20629.3" y2="6248.25" gradientUnits="userSpaceOnUse">
<stop stop-color="#4C93F4"/>
<stop offset="1" stop-color="#0B63DA"/>
</linearGradient>
<linearGradient id="paint3_linear" x1="67049.9" y1="3492.09" x2="-4743.39" y2="2690.73" gradientUnits="userSpaceOnUse">
<stop stop-color="#EAF1FC"/>
<stop offset="1" stop-color="#C0D4F4"/>
</linearGradient>
<linearGradient id="paint4_linear" x1="62.6795" y1="152.473" x2="118.675" y2="172.006" gradientUnits="userSpaceOnUse">
<stop stop-color="#223762"/>
<stop offset="1" stop-color="#041B48"/>
</linearGradient>
<linearGradient id="paint5_linear" x1="66.4894" y1="156.191" x2="106.58" y2="170.173" gradientUnits="userSpaceOnUse">
<stop stop-color="#3769A5"/>
<stop offset="1" stop-color="#08448B"/>
</linearGradient>
<linearGradient id="paint6_linear" x1="21950.2" y1="12510.8" x2="28566.7" y2="11635.9" gradientUnits="userSpaceOnUse">
<stop stop-color="#3769A5"/>
<stop offset="1" stop-color="#08448B"/>
</linearGradient>
<linearGradient id="paint7_linear" x1="21974.1" y1="11360.1" x2="28563.4" y2="10389.8" gradientUnits="userSpaceOnUse">
<stop stop-color="#223762"/>
<stop offset="1" stop-color="#041B48"/>
</linearGradient>
<linearGradient id="paint8_linear" x1="2542.51" y1="7960.8" x2="4502.22" y2="8738.34" gradientUnits="userSpaceOnUse">
<stop stop-color="#223762"/>
<stop offset="1" stop-color="#041B48"/>
</linearGradient>
<linearGradient id="paint9_linear" x1="18943" y1="3399.69" x2="19049.2" y2="3718.82" gradientUnits="userSpaceOnUse">
<stop stop-color="#223762"/>
<stop offset="1" stop-color="#041B48"/>
</linearGradient>
<linearGradient id="paint10_linear" x1="247444" y1="3399.69" x2="247338" y2="3718.81" gradientUnits="userSpaceOnUse">
<stop stop-color="#223762"/>
<stop offset="1" stop-color="#041B48"/>
</linearGradient>
<linearGradient id="paint11_linear" x1="3049.06" y1="34498" x2="3606.15" y2="34444.3" gradientUnits="userSpaceOnUse">
<stop stop-color="#223762"/>
<stop offset="1" stop-color="#041B48"/>
</linearGradient>
<linearGradient id="paint12_linear" x1="5700.94" y1="5709.28" x2="5896.38" y2="5522.14" gradientUnits="userSpaceOnUse">
<stop stop-color="#223762"/>
<stop offset="1" stop-color="#041B48"/>
</linearGradient>
<linearGradient id="paint13_linear" x1="23945.8" y1="3426.72" x2="23940.5" y2="3257.55" gradientUnits="userSpaceOnUse">
<stop stop-color="#223762"/>
<stop offset="1" stop-color="#041B48"/>
</linearGradient>
<linearGradient id="paint14_linear" x1="53819.7" y1="38146.9" x2="53614.5" y2="37167.4" gradientUnits="userSpaceOnUse">
<stop stop-color="#223762"/>
<stop offset="1" stop-color="#041B48"/>
</linearGradient>
<linearGradient id="paint15_linear" x1="6665.03" y1="3368.36" x2="6654.16" y2="3286.84" gradientUnits="userSpaceOnUse">
<stop stop-color="#223762"/>
<stop offset="1" stop-color="#041B48"/>
</linearGradient>
<linearGradient id="paint16_linear" x1="23686.4" y1="45113.5" x2="24750.9" y2="44000" gradientUnits="userSpaceOnUse">
<stop stop-color="#3769A5"/>
<stop offset="1" stop-color="#08448B"/>
</linearGradient>
<linearGradient id="paint17_linear" x1="33696.5" y1="20044.3" x2="45594.9" y2="18621" gradientUnits="userSpaceOnUse">
<stop stop-color="#4C93F4"/>
<stop offset="1" stop-color="#0B63DA"/>
</linearGradient>
<linearGradient id="paint18_linear" x1="42818.2" y1="16678" x2="48921" y2="18454.1" gradientUnits="userSpaceOnUse">
<stop stop-color="#3769A5"/>
<stop offset="1" stop-color="#08448B"/>
</linearGradient>
<linearGradient id="paint19_linear" x1="262.266" y1="70.1236" x2="264.09" y2="85.185" gradientUnits="userSpaceOnUse">
<stop stop-color="#813B25"/>
<stop offset="1" stop-color="#4A1F12"/>
</linearGradient>
<linearGradient id="paint20_linear" x1="291.433" y1="74.6509" x2="293.894" y2="93.8871" gradientUnits="userSpaceOnUse">
<stop stop-color="#813B25"/>
<stop offset="1" stop-color="#4A1F12"/>
</linearGradient>
<linearGradient id="paint21_linear" x1="264.303" y1="106.241" x2="266.516" y2="122.565" gradientUnits="userSpaceOnUse">
<stop stop-color="#813B25"/>
<stop offset="1" stop-color="#4A1F12"/>
</linearGradient>
<linearGradient id="paint22_linear" x1="11385.4" y1="-5082.43" x2="11255.6" y2="-4972.22" gradientUnits="userSpaceOnUse">
<stop stop-color="#223762"/>
<stop offset="1" stop-color="#041B48"/>
</linearGradient>
<linearGradient id="paint23_linear" x1="266.205" y1="73.3044" x2="273.821" y2="115.513" gradientUnits="userSpaceOnUse">
<stop stop-color="#813B25"/>
<stop offset="1" stop-color="#4A1F12"/>
</linearGradient>
<linearGradient id="paint24_linear" x1="23453.9" y1="-9757.69" x2="22859.2" y2="-6404.9" gradientUnits="userSpaceOnUse">
<stop stop-color="#223762"/>
<stop offset="1" stop-color="#041B48"/>
</linearGradient>
<linearGradient id="paint25_linear" x1="266.314" y1="87.6702" x2="269.991" y2="97.8143" gradientUnits="userSpaceOnUse">
<stop stop-color="#813B25"/>
<stop offset="1" stop-color="#4A1F12"/>
</linearGradient>
<linearGradient id="paint26_linear" x1="17906" y1="-9536.41" x2="17358.4" y2="-10304.8" gradientUnits="userSpaceOnUse">
<stop stop-color="#223762"/>
<stop offset="1" stop-color="#041B48"/>
</linearGradient>
<linearGradient id="paint27_linear" x1="292.235" y1="95.5077" x2="292.874" y2="99.3883" gradientUnits="userSpaceOnUse">
<stop stop-color="#813B25"/>
<stop offset="1" stop-color="#4A1F12"/>
</linearGradient>
<linearGradient id="paint28_linear" x1="276.344" y1="84.4721" x2="277.02" y2="90.3521" gradientUnits="userSpaceOnUse">
<stop stop-color="#813B25"/>
<stop offset="1" stop-color="#4A1F12"/>
</linearGradient>
<linearGradient id="paint29_linear" x1="268.046" y1="81.0055" x2="268.391" y2="84.1045" gradientUnits="userSpaceOnUse">
<stop stop-color="#813B25"/>
<stop offset="1" stop-color="#4A1F12"/>
</linearGradient>
<linearGradient id="paint30_linear" x1="170826" y1="50340.3" x2="170826" y2="31696.7" gradientUnits="userSpaceOnUse">
<stop stop-color="#3769A5"/>
<stop offset="1" stop-color="#08448B"/>
</linearGradient>
<linearGradient id="paint31_linear" x1="168518" y1="50340.3" x2="168518" y2="31696.7" gradientUnits="userSpaceOnUse">
<stop stop-color="#3769A5"/>
<stop offset="1" stop-color="#08448B"/>
</linearGradient>
<linearGradient id="paint32_linear" x1="181671" y1="40849.6" x2="181671" y2="35156.1" gradientUnits="userSpaceOnUse">
<stop stop-color="#3769A5"/>
<stop offset="1" stop-color="#08448B"/>
</linearGradient>
<linearGradient id="paint33_linear" x1="179363" y1="40849.6" x2="179363" y2="35156.1" gradientUnits="userSpaceOnUse">
<stop stop-color="#3769A5"/>
<stop offset="1" stop-color="#08448B"/>
</linearGradient>
<linearGradient id="paint34_linear" x1="83.7269" y1="277.617" x2="83.7269" y2="199.631" gradientUnits="userSpaceOnUse">
<stop stop-color="#A7BDE5"/>
<stop offset="1" stop-color="#2F66CB"/>
</linearGradient>
<linearGradient id="paint35_linear" x1="-168997" y1="49288.5" x2="-168997" y2="35490.4" gradientUnits="userSpaceOnUse">
<stop stop-color="#A7BDE5"/>
<stop offset="1" stop-color="#2F66CB"/>
</linearGradient>
<linearGradient id="paint36_linear" x1="-14022.2" y1="7425.53" x2="-14455.5" y2="7290.91" gradientUnits="userSpaceOnUse">
<stop stop-color="#4C93F4"/>
<stop offset="1" stop-color="#0B63DA"/>
</linearGradient>
<linearGradient id="paint37_linear" x1="24480.7" y1="2433.36" x2="24437.9" y2="2376.99" gradientUnits="userSpaceOnUse">
<stop stop-color="#FFC063"/>
<stop offset="0.95" stop-color="#E44D0B"/>
</linearGradient>
<linearGradient id="paint38_linear" x1="-52858.7" y1="6103.11" x2="-53449.2" y2="5305.57" gradientUnits="userSpaceOnUse">
<stop stop-color="#4C93F4"/>
<stop offset="1" stop-color="#0B63DA"/>
</linearGradient>
<linearGradient id="paint39_linear" x1="1.33604e+06" y1="2926.12" x2="1.37021e+06" y2="65957.8" gradientUnits="userSpaceOnUse">
<stop stop-color="#A7BDE5"/>
<stop offset="1" stop-color="#2F66CB"/>
</linearGradient>
<linearGradient id="paint40_linear" x1="-182164" y1="45753.4" x2="-182164" y2="31251.8" gradientUnits="userSpaceOnUse">
<stop stop-color="#A7BDE5"/>
<stop offset="1" stop-color="#2F66CB"/>
</linearGradient>
<linearGradient id="paint41_linear" x1="-179886" y1="45753.4" x2="-179886" y2="31251.8" gradientUnits="userSpaceOnUse">
<stop stop-color="#A7BDE5"/>
<stop offset="1" stop-color="#2F66CB"/>
</linearGradient>
<linearGradient id="paint42_linear" x1="1.9109e+06" y1="3692.94" x2="1.6739e+06" y2="3692.94" gradientUnits="userSpaceOnUse">
<stop stop-color="#223762"/>
<stop offset="1" stop-color="#041B48"/>
</linearGradient>
<linearGradient id="paint43_linear" x1="1475.74" y1="8071.2" x2="2317.33" y2="8254.99" gradientUnits="userSpaceOnUse">
<stop stop-color="#3769A5"/>
<stop offset="1" stop-color="#08448B"/>
</linearGradient>
<linearGradient id="paint44_linear" x1="93259.5" y1="8915.74" x2="95187.6" y2="11250.1" gradientUnits="userSpaceOnUse">
<stop stop-color="#4C93F4"/>
<stop offset="1" stop-color="#0B63DA"/>
</linearGradient>
<linearGradient id="paint45_linear" x1="5426.5" y1="-1449.15" x2="8434.89" y2="-1148.31" gradientUnits="userSpaceOnUse">
<stop stop-color="#223762"/>
<stop offset="1" stop-color="#041B48"/>
</linearGradient>
<linearGradient id="paint46_linear" x1="12810.1" y1="43030.7" x2="7281.34" y2="45332.8" gradientUnits="userSpaceOnUse">
<stop stop-color="#223762"/>
<stop offset="1" stop-color="#041B48"/>
</linearGradient>
<linearGradient id="paint47_linear" x1="9753.84" y1="28238.6" x2="10367.1" y2="28238.6" gradientUnits="userSpaceOnUse">
<stop stop-color="#3769A5"/>
<stop offset="1" stop-color="#08448B"/>
</linearGradient>
<linearGradient id="paint48_linear" x1="12992.9" y1="16368.3" x2="-3981.02" y2="30539.6" gradientUnits="userSpaceOnUse">
<stop stop-color="#4C93F4"/>
<stop offset="1" stop-color="#0B63DA"/>
</linearGradient>
<linearGradient id="paint49_linear" x1="26344.1" y1="38365.1" x2="21502.7" y2="42772" gradientUnits="userSpaceOnUse">
<stop stop-color="#3769A5"/>
<stop offset="1" stop-color="#08448B"/>
</linearGradient>
<linearGradient id="paint50_linear" x1="391.228" y1="263.338" x2="312.096" y2="298.637" gradientUnits="userSpaceOnUse">
<stop stop-color="#FF9F5B"/>
<stop offset="1" stop-color="#E5670E"/>
</linearGradient>
<linearGradient id="paint51_linear" x1="14418.5" y1="25956.3" x2="13950.1" y2="25956.3" gradientUnits="userSpaceOnUse">
<stop stop-color="#FF9F5B"/>
<stop offset="1" stop-color="#E5670E"/>
</linearGradient>
<linearGradient id="paint52_linear" x1="2745.45" y1="1763.78" x2="2686.93" y2="1850.65" gradientUnits="userSpaceOnUse">
<stop stop-color="#4C93F4"/>
<stop offset="1" stop-color="#0B63DA"/>
</linearGradient>
<linearGradient id="paint53_linear" x1="5073.68" y1="-4279.12" x2="5015.59" y2="-4241.34" gradientUnits="userSpaceOnUse">
<stop stop-color="#4C93F4"/>
<stop offset="1" stop-color="#0B63DA"/>
</linearGradient>
<linearGradient id="paint54_linear" x1="7223.99" y1="-6050.49" x2="7144.35" y2="-5998.7" gradientUnits="userSpaceOnUse">
<stop stop-color="#4C93F4"/>
<stop offset="1" stop-color="#0B63DA"/>
</linearGradient>
<linearGradient id="paint55_linear" x1="6986.98" y1="-2022.28" x2="6929.89" y2="-1946.34" gradientUnits="userSpaceOnUse">
<stop stop-color="#4C93F4"/>
<stop offset="1" stop-color="#0B63DA"/>
</linearGradient>
<linearGradient id="paint56_linear" x1="17335.5" y1="20338.7" x2="22723.1" y2="29145.8" gradientUnits="userSpaceOnUse">
<stop stop-color="#3769A5"/>
<stop offset="1" stop-color="#08448B"/>
</linearGradient>
<linearGradient id="paint57_linear" x1="17902.6" y1="19992.4" x2="23290.6" y2="28798.8" gradientUnits="userSpaceOnUse">
<stop stop-color="#4C93F4"/>
<stop offset="1" stop-color="#0B63DA"/>
</linearGradient>
<linearGradient id="paint58_linear" x1="17724.7" y1="18398.5" x2="25448.1" y2="31021.7" gradientUnits="userSpaceOnUse">
<stop stop-color="#4C93F4"/>
<stop offset="1" stop-color="#0B63DA"/>
</linearGradient>
<linearGradient id="paint59_linear" x1="3874.9" y1="6527.47" x2="3862.83" y2="6588.62" gradientUnits="userSpaceOnUse">
<stop stop-color="#4C93F4"/>
<stop offset="1" stop-color="#0B63DA"/>
</linearGradient>
<linearGradient id="paint60_linear" x1="3960.22" y1="6559.34" x2="3948.14" y2="6620.48" gradientUnits="userSpaceOnUse">
<stop stop-color="#4C93F4"/>
<stop offset="1" stop-color="#0B63DA"/>
</linearGradient>
<linearGradient id="paint61_linear" x1="3769.23" y1="-367.777" x2="3745.92" y2="-333.494" gradientUnits="userSpaceOnUse">
<stop stop-color="#4C93F4"/>
<stop offset="1" stop-color="#0B63DA"/>
</linearGradient>
<linearGradient id="paint62_linear" x1="3768.92" y1="-315.813" x2="3745.72" y2="-281.712" gradientUnits="userSpaceOnUse">
<stop stop-color="#4C93F4"/>
<stop offset="1" stop-color="#0B63DA"/>
</linearGradient>
<linearGradient id="paint63_linear" x1="5276.38" y1="-666.393" x2="5244.5" y2="-619.585" gradientUnits="userSpaceOnUse">
<stop stop-color="#4C93F4"/>
<stop offset="1" stop-color="#0B63DA"/>
</linearGradient>
<linearGradient id="paint64_linear" x1="5130.51" y1="1488.87" x2="5116.63" y2="1543.74" gradientUnits="userSpaceOnUse">
<stop stop-color="#4C93F4"/>
<stop offset="1" stop-color="#0B63DA"/>
</linearGradient>
<linearGradient id="paint65_linear" x1="21692.2" y1="3393.34" x2="21686.9" y2="3237.41" gradientUnits="userSpaceOnUse">
<stop stop-color="#223762"/>
<stop offset="1" stop-color="#041B48"/>
</linearGradient>
<linearGradient id="paint66_linear" x1="28860.3" y1="10430.2" x2="26884.1" y2="15736.5" gradientUnits="userSpaceOnUse">
<stop stop-color="#4C93F4"/>
<stop offset="1" stop-color="#0B63DA"/>
</linearGradient>
<linearGradient id="paint67_linear" x1="5843.99" y1="7732.6" x2="5632.53" y2="7394.01" gradientUnits="userSpaceOnUse">
<stop stop-color="#4C93F4"/>
<stop offset="1" stop-color="#0B63DA"/>
</linearGradient>
<linearGradient id="paint68_linear" x1="6411.59" y1="901.698" x2="6373.21" y2="804.966" gradientUnits="userSpaceOnUse">
<stop stop-color="#4C93F4"/>
<stop offset="1" stop-color="#0B63DA"/>
</linearGradient>
<linearGradient id="paint69_linear" x1="6478.82" y1="3111.98" x2="6981.82" y2="3255.29" gradientUnits="userSpaceOnUse">
<stop stop-color="#FFC063"/>
<stop offset="0.95" stop-color="#E44D0B"/>
</linearGradient>
<linearGradient id="paint70_linear" x1="7805.67" y1="1014.02" x2="8594.25" y2="1014.02" gradientUnits="userSpaceOnUse">
<stop stop-color="#4C93F4"/>
<stop offset="1" stop-color="#0B63DA"/>
</linearGradient>
<linearGradient id="paint71_linear" x1="5886.23" y1="1014.02" x2="6248.56" y2="1014.02" gradientUnits="userSpaceOnUse">
<stop stop-color="#4C93F4"/>
<stop offset="1" stop-color="#0B63DA"/>
</linearGradient>
<linearGradient id="paint72_linear" x1="8208.05" y1="3267.05" x2="8995.06" y2="3394.24" gradientUnits="userSpaceOnUse">
<stop stop-color="#4C93F4"/>
<stop offset="1" stop-color="#0B63DA"/>
</linearGradient>
<linearGradient id="paint73_linear" x1="5431.91" y1="2739.62" x2="5755.44" y2="2791.91" gradientUnits="userSpaceOnUse">
<stop stop-color="#4C93F4"/>
<stop offset="1" stop-color="#0B63DA"/>
</linearGradient>
</defs>
</svg>
