<svg width="14" height="14" viewBox="0 0 14 14" fill="none" 
  xmlns="http://www.w3.org/2000/svg">
  <path d="M0 3.45643V10.5435C0 11.5201 0.796655 12.3167 1.7732 12.3167H7.50112C8.47767 12.3167 9.27432 11.5201 9.27432 10.5435V9.39565C9.27432 9.20148 9.11728 9.04444 8.92311 9.04444C8.72894 9.04444 8.5719 9.20148 8.5719 9.39565V10.5435C8.5719 11.1346 8.08933 11.6171 7.49827 11.6171H1.7732C1.18213 11.6171 0.699572 11.1346 0.699572 10.5435V3.45643C0.699572 2.86536 1.18213 2.3828 1.7732 2.3828H7.50112C8.09219 2.3828 8.57475 2.86536 8.57475 3.45643V4.6043C8.57475 4.79846 8.7318 4.95551 8.92597 4.95551C9.12013 4.95551 9.27718 4.79846 9.27718 4.6043V3.45643C9.27718 2.47988 8.48052 1.68323 7.50398 1.68323H1.7732C0.796655 1.68323 0 2.47703 0 3.45643Z" fill="#0167F6"/>
  <path d="M11.0048 9.6413C11.0733 9.70983 11.1618 9.7441 11.2532 9.7441C11.3446 9.7441 11.4331 9.70983 11.5016 9.6413L13.8973 7.24563C14.0343 7.10857 14.0343 6.8887 13.8973 6.75164L11.5016 4.35597C11.3645 4.21891 11.1447 4.21891 11.0076 4.35597C10.8706 4.49303 10.8706 4.71289 11.0076 4.84995L12.8065 6.64885H6.24196C6.04779 6.64885 5.89075 6.8059 5.89075 7.00006C5.89075 7.19423 6.04779 7.35128 6.24196 7.35128H12.8037L11.0048 9.15018C10.8677 9.28438 10.8677 9.5071 11.0048 9.6413Z" fill="#0167F6"/>
</svg>
