<svg width="138" height="134" viewBox="0 0 138 134" fill="none" 
  xmlns="http://www.w3.org/2000/svg">
  <circle cx="67.7684" cy="42.5789" r="42.4316" fill="#0B0A22"/>
  <g clip-path="url(#clip0)">
    <path d="M59.5575 49.327C59.5575 48.7842 59.0809 48.3437 58.4926 48.3437C57.9042 48.3437 57.4276 48.7842 57.4276 49.327C57.4276 49.8703 57.9042 50.3104 58.4926 50.3104C59.0809 50.3104 59.5575 49.8703 59.5575 49.327Z" fill="#68E781"/>
    <path d="M58.4926 41.3613C57.9054 41.3613 57.4276 41.8022 57.4276 42.3447C57.4276 42.8868 57.9054 43.328 58.4926 43.328C59.0797 43.328 59.5579 42.8868 59.5579 42.3447C59.5579 41.8022 59.0797 41.3613 58.4926 41.3613Z" fill="#68E781"/>
    <path d="M59.5575 35.3624C59.5575 34.8191 59.0809 34.379 58.4926 34.379C57.9042 34.379 57.4276 34.8191 57.4276 35.3624C57.4276 35.9052 57.9042 36.3457 58.4926 36.3457C59.0809 36.3457 59.5575 35.9052 59.5575 35.3624Z" fill="#68E781"/>
    <path d="M70.3278 63.8098C69.1573 62.6472 68.4988 61.0657 68.4972 59.4159V56.6H45.0002V59.4277C45.012 62.0816 47.1654 64.2279 49.8193 64.2315H70.8036C70.6314 64.1071 70.4717 63.9659 70.3278 63.8098Z" fill="#0167F6"/>
    <path d="M72.1623 36.0151H63.649C63.2607 36.0151 62.9461 35.7005 62.9461 35.3122C62.9461 34.9242 63.2607 34.6093 63.649 34.6093H71.3919C70.7125 33.1368 70.3631 31.5337 70.3678 29.9117C70.3701 29.1284 70.4513 28.3475 70.6102 27.5803H51.6931L51.5071 55.1942H69.2361C69.415 55.1871 69.5884 55.2546 69.7151 55.3809C69.8418 55.5072 69.9096 55.6806 69.903 55.8594V59.4167C69.9159 62.0765 72.0732 64.2268 74.733 64.2315H74.7487C77.3983 64.226 79.5427 62.0769 79.5427 59.4277V41.0628C76.486 40.4839 73.8101 38.6541 72.1623 36.0151ZM58.4926 51.7166C57.1303 51.7166 56.0219 50.6446 56.0219 49.327C56.0219 48.0099 57.1303 46.9379 58.4926 46.9379C59.8549 46.9379 60.9637 48.0099 60.9637 49.327C60.9637 50.6446 59.8553 51.7166 58.4926 51.7166ZM58.4926 44.7338C57.1303 44.7338 56.0219 43.6622 56.0219 42.3447C56.0219 41.0271 57.1303 39.9555 58.4926 39.9555C59.8549 39.9555 60.9637 41.0271 60.9637 42.3447C60.9637 43.6618 59.8553 44.7338 58.4926 44.7338ZM58.4926 37.7515C57.1303 37.7515 56.0219 36.6795 56.0219 35.3624C56.0219 34.0448 57.1303 32.9728 58.4926 32.9728C59.8549 32.9728 60.9637 34.0444 60.9637 35.362C60.9637 36.6795 59.8553 37.7515 58.4926 37.7515ZM74.3588 50.0731H63.649C63.2607 50.0731 62.9461 49.7585 62.9461 49.3702C62.9461 48.9822 63.2607 48.6673 63.649 48.6673H74.3588C74.7472 48.6673 75.0617 48.9822 75.0617 49.3702C75.0617 49.7585 74.7472 50.0731 74.3588 50.0731ZM75.0617 42.3412C75.0617 42.7295 74.7472 43.0441 74.3588 43.0441H63.649C63.2607 43.0441 62.9461 42.7295 62.9461 42.3412C62.9461 41.9532 63.2607 41.6383 63.649 41.6383H74.3588C74.7472 41.6383 75.0617 41.9532 75.0617 42.3412Z" fill="#68E781"/>
    <ellipse cx="81.6725" cy="29.9581" rx="9.89898" ry="9.89898" fill="#0167F6"/>
    <path d="M84.6811 30.1744H83.0107L83.3895 30.8575H84.6811V30.1744ZM84.7245 33.2543C84.7121 33.1177 84.7018 32.9832 84.6935 32.8507C84.6852 32.7183 84.6811 32.5941 84.6811 32.4782V31.615H83.8117L84.7245 33.2543ZM82.0731 30.8575L81.6943 30.1744H80.3655V30.8575H82.0731ZM80.3282 27.7217C80.3406 27.8542 80.3489 27.9846 80.353 28.1129C80.3613 28.2371 80.3655 28.353 80.3655 28.4606V29.4231H81.272L80.3282 27.7217ZM85.8733 30.1744V30.8575H86.9289V31.2611C86.9289 31.3522 86.8916 31.435 86.8171 31.5095C86.7467 31.5799 86.6577 31.615 86.5501 31.615H85.8733V34.962H84.7183C84.6065 34.962 84.5113 34.9433 84.4327 34.9061C84.354 34.8647 84.2795 34.7984 84.2091 34.7074L82.4891 31.615H80.3655V34.962H79.1732V31.615H78.1176V30.8575H79.1732V30.1744H78.1176V29.777C78.1176 29.686 78.1528 29.6052 78.2232 29.5349C78.2977 29.4603 78.3908 29.4231 78.5026 29.4231H79.1732V26.0203H80.3406C80.4027 26.0203 80.4565 26.0244 80.5021 26.0327C80.5476 26.0368 80.5869 26.0472 80.62 26.0637C80.6573 26.0803 80.6925 26.1051 80.7256 26.1383C80.7587 26.1714 80.7939 26.2128 80.8312 26.2624L82.5885 29.4231H84.6811V26.0203H85.8733V29.4231H86.9289V30.1744H85.8733Z" fill="white"/>
  </g>
  <path d="M44.3579 22.0947L88.2526 65.9895" stroke="#0B0A22" stroke-width="4.38947"/>
  <path d="M13.1341 115.19V130H11.7207C11.5022 130 11.3178 129.966 11.1676 129.898C11.0242 129.822 10.8843 129.7 10.7477 129.529L3.01491 119.655C3.05588 120.106 3.07637 120.523 3.07637 120.905V130H0.648987V115.19H2.09312C2.2092 115.19 2.30821 115.197 2.39014 115.21C2.47891 115.217 2.55402 115.238 2.61547 115.272C2.68375 115.299 2.74862 115.344 2.81007 115.405C2.87152 115.46 2.9398 115.535 3.01491 115.63L10.7784 125.545C10.7579 125.306 10.7409 125.07 10.7272 124.838C10.7136 124.606 10.7067 124.391 10.7067 124.193V115.19H13.1341Z" fill="#0B0A22"/>
  <path d="M20.3626 119.328C21.141 119.328 21.8477 119.454 22.4828 119.707C23.1246 119.959 23.6708 120.318 24.1215 120.782C24.579 121.246 24.9306 121.813 25.1764 122.482C25.4222 123.151 25.5451 123.899 25.5451 124.725C25.5451 125.558 25.4222 126.309 25.1764 126.979C24.9306 127.648 24.579 128.218 24.1215 128.689C23.6708 129.16 23.1246 129.522 22.4828 129.775C21.8477 130.027 21.141 130.154 20.3626 130.154C19.5774 130.154 18.8639 130.027 18.222 129.775C17.5802 129.522 17.0305 129.16 16.5731 128.689C16.1224 128.218 15.7708 127.648 15.5181 126.979C15.2723 126.309 15.1494 125.558 15.1494 124.725C15.1494 123.899 15.2723 123.151 15.5181 122.482C15.7708 121.813 16.1224 121.246 16.5731 120.782C17.0305 120.318 17.5802 119.959 18.222 119.707C18.8639 119.454 19.5774 119.328 20.3626 119.328ZM20.3626 128.208C21.2366 128.208 21.8819 127.914 22.2984 127.327C22.7217 126.74 22.9334 125.879 22.9334 124.746C22.9334 123.612 22.7217 122.749 22.2984 122.155C21.8819 121.561 21.2366 121.263 20.3626 121.263C19.475 121.263 18.8161 121.564 18.3859 122.165C17.9626 122.759 17.7509 123.619 17.7509 124.746C17.7509 125.872 17.9626 126.733 18.3859 127.327C18.8161 127.914 19.475 128.208 20.3626 128.208Z" fill="#0B0A22"/>
  <path d="M37.6694 122.636C38.1747 122.636 38.6151 122.574 38.9906 122.452C39.3662 122.322 39.6768 122.141 39.9227 121.909C40.1753 121.67 40.3631 121.383 40.486 121.048C40.6089 120.707 40.6703 120.328 40.6703 119.912C40.6703 119.516 40.6089 119.157 40.486 118.836C40.3631 118.515 40.1787 118.242 39.9329 118.017C39.6871 117.791 39.3764 117.621 39.0009 117.505C38.6253 117.382 38.1815 117.32 37.6694 117.32H35.6107V122.636H37.6694ZM37.6694 115.19C38.6595 115.19 39.5164 115.306 40.2402 115.538C40.9639 115.77 41.5614 116.095 42.0325 116.511C42.5037 116.928 42.8519 117.426 43.0772 118.007C43.3094 118.587 43.4255 119.222 43.4255 119.912C43.4255 120.628 43.306 121.287 43.067 121.888C42.828 122.482 42.4695 122.994 41.9916 123.425C41.5136 123.855 40.9127 124.189 40.189 124.428C39.472 124.667 38.6322 124.787 37.6694 124.787H35.6107V130H32.8556V115.19H37.6694Z" fill="#0B0A22"/>
  <path d="M50.3699 125.514C49.6393 125.548 49.0248 125.613 48.5263 125.709C48.0279 125.797 47.6285 125.913 47.328 126.057C47.0276 126.2 46.8125 126.367 46.6828 126.559C46.553 126.75 46.4882 126.958 46.4882 127.183C46.4882 127.627 46.6179 127.945 46.8774 128.136C47.1437 128.327 47.4885 128.423 47.9118 128.423C48.4308 128.423 48.878 128.331 49.2535 128.146C49.6359 127.955 50.008 127.668 50.3699 127.286V125.514ZM44.5729 120.956C45.7815 119.85 47.2358 119.297 48.936 119.297C49.5506 119.297 50.1002 119.399 50.585 119.604C51.0698 119.802 51.4795 120.082 51.8141 120.444C52.1486 120.799 52.4013 121.226 52.572 121.724C52.7495 122.223 52.8383 122.769 52.8383 123.363V130H51.6912C51.4522 130 51.2678 129.966 51.1381 129.898C51.0084 129.822 50.9059 129.676 50.8308 129.457L50.6055 128.699C50.3392 128.938 50.0797 129.15 49.8271 129.334C49.5745 129.512 49.3116 129.662 49.0385 129.785C48.7653 129.908 48.4717 130 48.1576 130.061C47.8504 130.13 47.509 130.164 47.1334 130.164C46.6896 130.164 46.2799 130.106 45.9044 129.99C45.5288 129.867 45.2045 129.686 44.9314 129.447C44.6582 129.208 44.4466 128.911 44.2964 128.556C44.1461 128.201 44.071 127.788 44.071 127.317C44.071 127.05 44.1154 126.787 44.2042 126.528C44.2929 126.262 44.4363 126.009 44.6343 125.77C44.8392 125.531 45.1021 125.306 45.423 125.094C45.7439 124.882 46.1365 124.698 46.6008 124.541C47.072 124.384 47.6182 124.258 48.2396 124.162C48.8609 124.06 49.571 123.998 50.3699 123.978V123.363C50.3699 122.66 50.2197 122.141 49.9193 121.806C49.6188 121.465 49.1853 121.294 48.6185 121.294C48.2088 121.294 47.8674 121.342 47.5943 121.438C47.328 121.533 47.0925 121.642 46.8876 121.765C46.6828 121.881 46.495 121.987 46.3243 122.083C46.1604 122.178 45.9761 122.226 45.7712 122.226C45.5937 122.226 45.4435 122.182 45.3206 122.093C45.1977 121.998 45.0987 121.888 45.0235 121.765L44.5729 120.956Z" fill="#0B0A22"/>
  <path d="M64.4664 119.492L58.7411 132.888C58.666 133.066 58.567 133.199 58.4441 133.288C58.328 133.383 58.147 133.431 57.9012 133.431H56.0167L57.9832 129.211L53.7327 119.492H55.9552C56.1532 119.492 56.3069 119.539 56.4161 119.635C56.5322 119.731 56.6176 119.84 56.6722 119.963L58.905 125.412C58.9801 125.596 59.0415 125.78 59.0893 125.965C59.1439 126.149 59.1952 126.337 59.243 126.528C59.3044 126.337 59.3659 126.149 59.4273 125.965C59.4888 125.773 59.557 125.586 59.6322 125.401L61.742 119.963C61.7966 119.826 61.8854 119.714 62.0083 119.625C62.1381 119.536 62.2814 119.492 62.4385 119.492H64.4664Z" fill="#0B0A22"/>
  <path d="M71.9145 121.54C71.8462 121.649 71.7745 121.728 71.6994 121.776C71.6243 121.817 71.5287 121.837 71.4127 121.837C71.2897 121.837 71.1566 121.803 71.0132 121.735C70.8766 121.666 70.7162 121.591 70.5318 121.509C70.3475 121.421 70.1358 121.342 69.8968 121.274C69.6647 121.205 69.3881 121.171 69.0672 121.171C68.5688 121.171 68.1761 121.277 67.8894 121.489C67.6094 121.7 67.4694 121.977 67.4694 122.318C67.4694 122.544 67.5411 122.735 67.6845 122.892C67.8347 123.042 68.0293 123.175 68.2683 123.291C68.5141 123.408 68.7907 123.513 69.0979 123.609C69.4052 123.698 69.7159 123.797 70.03 123.906C70.3509 124.015 70.665 124.142 70.9722 124.285C71.2795 124.421 71.5526 124.599 71.7916 124.818C72.0374 125.029 72.232 125.285 72.3754 125.586C72.5256 125.886 72.6007 126.248 72.6007 126.671C72.6007 127.177 72.5086 127.644 72.3242 128.074C72.1467 128.498 71.8804 128.867 71.5253 129.181C71.1703 129.488 70.7298 129.73 70.2041 129.908C69.6851 130.079 69.0843 130.164 68.4015 130.164C68.0396 130.164 67.6845 130.13 67.3363 130.061C66.9949 130 66.6637 129.911 66.3428 129.795C66.0287 129.679 65.7351 129.543 65.462 129.385C65.1957 129.228 64.9601 129.058 64.7553 128.873L65.3391 127.911C65.4142 127.795 65.503 127.706 65.6054 127.644C65.7078 127.583 65.8375 127.552 65.9946 127.552C66.1516 127.552 66.2984 127.597 66.435 127.685C66.5784 127.774 66.7422 127.87 66.9266 127.972C67.111 128.074 67.3261 128.17 67.5719 128.259C67.8245 128.348 68.142 128.392 68.5244 128.392C68.8248 128.392 69.0809 128.358 69.2925 128.29C69.511 128.214 69.6886 128.119 69.8251 128.003C69.9685 127.887 70.0709 127.754 70.1324 127.603C70.2007 127.446 70.2348 127.286 70.2348 127.122C70.2348 126.876 70.1597 126.675 70.0095 126.518C69.8661 126.361 69.6715 126.224 69.4257 126.108C69.1867 125.992 68.9102 125.89 68.5961 125.801C68.2888 125.705 67.9713 125.603 67.6436 125.493C67.3226 125.384 67.0051 125.258 66.691 125.115C66.3838 124.964 66.1072 124.777 65.8614 124.551C65.6224 124.326 65.4278 124.049 65.2776 123.722C65.1342 123.394 65.0625 122.998 65.0625 122.534C65.0625 122.103 65.1479 121.694 65.3186 121.304C65.4893 120.915 65.7385 120.577 66.0663 120.29C66.4008 119.997 66.8139 119.765 67.3056 119.594C67.804 119.417 68.3776 119.328 69.0262 119.328C69.75 119.328 70.4089 119.447 71.003 119.686C71.597 119.925 72.092 120.239 72.4881 120.628L71.9145 121.54Z" fill="#0B0A22"/>
  <path d="M77.0653 114.78V130H74.5355V114.78H77.0653Z" fill="#0B0A22"/>
  <path d="M82.2078 119.492V130H79.6678V119.492H82.2078ZM82.5561 116.429C82.5561 116.648 82.5117 116.853 82.4229 117.044C82.3342 117.235 82.2147 117.402 82.0644 117.546C81.9211 117.689 81.7504 117.805 81.5523 117.894C81.3543 117.976 81.1427 118.017 80.9173 118.017C80.6988 118.017 80.4906 117.976 80.2926 117.894C80.1014 117.805 79.9341 117.689 79.7907 117.546C79.6473 117.402 79.5312 117.235 79.4425 117.044C79.3605 116.853 79.3196 116.648 79.3196 116.429C79.3196 116.204 79.3605 115.992 79.4425 115.794C79.5312 115.596 79.6473 115.425 79.7907 115.282C79.9341 115.139 80.1014 115.026 80.2926 114.944C80.4906 114.855 80.6988 114.811 80.9173 114.811C81.1427 114.811 81.3543 114.855 81.5523 114.944C81.7504 115.026 81.9211 115.139 82.0644 115.282C82.2147 115.425 82.3342 115.596 82.4229 115.794C82.5117 115.992 82.5561 116.204 82.5561 116.429Z" fill="#0B0A22"/>
  <path d="M87.3167 127.276C87.6035 127.624 87.9142 127.87 88.2488 128.013C88.5902 128.156 88.9589 128.228 89.3549 128.228C89.7373 128.228 90.0821 128.156 90.3894 128.013C90.6966 127.87 90.9561 127.651 91.1678 127.358C91.3863 127.064 91.5535 126.695 91.6696 126.251C91.7857 125.801 91.8437 125.272 91.8437 124.664C91.8437 124.049 91.7925 123.53 91.6901 123.107C91.5945 122.677 91.4545 122.329 91.2702 122.062C91.0858 121.796 90.8605 121.601 90.5942 121.479C90.3347 121.356 90.0377 121.294 89.7031 121.294C89.1774 121.294 88.7301 121.407 88.3614 121.632C87.9927 121.851 87.6445 122.161 87.3167 122.564V127.276ZM87.1836 120.926C87.6137 120.441 88.1019 120.048 88.6482 119.748C89.1944 119.447 89.8363 119.297 90.5737 119.297C91.1473 119.297 91.6696 119.417 92.1408 119.655C92.6187 119.894 93.0284 120.243 93.3698 120.7C93.718 121.151 93.9843 121.711 94.1687 122.38C94.3599 123.042 94.4555 123.804 94.4555 124.664C94.4555 125.449 94.3496 126.176 94.138 126.845C93.9263 127.515 93.6224 128.095 93.2264 128.587C92.8372 129.078 92.3627 129.464 91.8028 129.744C91.2497 130.017 90.6283 130.154 89.9387 130.154C89.3515 130.154 88.8496 130.065 88.4331 129.887C88.0166 129.703 87.6445 129.45 87.3167 129.129V133.431H84.7869V119.492H86.3335C86.6612 119.492 86.8763 119.645 86.9787 119.953L87.1836 120.926Z" fill="#0B0A22"/>
  <path d="M102.841 121.54C102.773 121.649 102.701 121.728 102.626 121.776C102.551 121.817 102.455 121.837 102.339 121.837C102.216 121.837 102.083 121.803 101.94 121.735C101.803 121.666 101.643 121.591 101.458 121.509C101.274 121.421 101.062 121.342 100.823 121.274C100.591 121.205 100.314 121.171 99.9936 121.171C99.4951 121.171 99.1025 121.277 98.8157 121.489C98.5358 121.7 98.3958 121.977 98.3958 122.318C98.3958 122.544 98.4675 122.735 98.6109 122.892C98.7611 123.042 98.9557 123.175 99.1947 123.291C99.4405 123.408 99.717 123.513 100.024 123.609C100.332 123.698 100.642 123.797 100.956 123.906C101.277 124.015 101.591 124.142 101.899 124.285C102.206 124.421 102.479 124.599 102.718 124.818C102.964 125.029 103.158 125.285 103.302 125.586C103.452 125.886 103.527 126.248 103.527 126.671C103.527 127.177 103.435 127.644 103.251 128.074C103.073 128.498 102.807 128.867 102.452 129.181C102.097 129.488 101.656 129.73 101.13 129.908C100.612 130.079 100.011 130.164 99.3278 130.164C98.9659 130.164 98.6109 130.13 98.2626 130.061C97.9212 130 97.5901 129.911 97.2692 129.795C96.9551 129.679 96.6615 129.543 96.3884 129.385C96.1221 129.228 95.8865 129.058 95.6816 128.873L96.2654 127.911C96.3406 127.795 96.4293 127.706 96.5317 127.644C96.6342 127.583 96.7639 127.552 96.9209 127.552C97.078 127.552 97.2248 127.597 97.3614 127.685C97.5047 127.774 97.6686 127.87 97.853 127.972C98.0373 128.074 98.2524 128.17 98.4982 128.259C98.7509 128.348 99.0684 128.392 99.4507 128.392C99.7512 128.392 100.007 128.358 100.219 128.29C100.437 128.214 100.615 128.119 100.751 128.003C100.895 127.887 100.997 127.754 101.059 127.603C101.127 127.446 101.161 127.286 101.161 127.122C101.161 126.876 101.086 126.675 100.936 126.518C100.792 126.361 100.598 126.224 100.352 126.108C100.113 125.992 99.8365 125.89 99.5224 125.801C99.2152 125.705 98.8977 125.603 98.5699 125.493C98.249 125.384 97.9315 125.258 97.6174 125.115C97.3101 124.964 97.0336 124.777 96.7878 124.551C96.5488 124.326 96.3542 124.049 96.204 123.722C96.0606 123.394 95.9889 122.998 95.9889 122.534C95.9889 122.103 96.0743 121.694 96.245 121.304C96.4157 120.915 96.6649 120.577 96.9926 120.29C97.3272 119.997 97.7403 119.765 98.2319 119.594C98.7304 119.417 99.3039 119.328 99.9526 119.328C100.676 119.328 101.335 119.447 101.929 119.686C102.523 119.925 103.018 120.239 103.414 120.628L102.841 121.54Z" fill="#0B0A22"/>
  <path d="M119.438 119.492L113.712 132.888C113.637 133.066 113.538 133.199 113.415 133.288C113.299 133.383 113.118 133.431 112.873 133.431H110.988L112.954 129.211L108.704 119.492H110.927C111.125 119.492 111.278 119.539 111.387 119.635C111.504 119.731 111.589 119.84 111.643 119.963L113.876 125.412C113.951 125.596 114.013 125.78 114.061 125.965C114.115 126.149 114.166 126.337 114.214 126.528C114.276 126.337 114.337 126.149 114.399 125.965C114.46 125.773 114.528 125.586 114.603 125.401L116.713 119.963C116.768 119.826 116.857 119.714 116.98 119.625C117.109 119.536 117.253 119.492 117.41 119.492H119.438Z" fill="#0B0A22"/>
  <path d="M127.144 123.537C127.144 123.209 127.096 122.902 127.001 122.615C126.912 122.322 126.776 122.066 126.591 121.847C126.407 121.629 126.171 121.458 125.884 121.335C125.605 121.205 125.277 121.141 124.901 121.141C124.171 121.141 123.594 121.349 123.17 121.765C122.754 122.182 122.488 122.772 122.371 123.537H127.144ZM122.32 125.063C122.361 125.603 122.457 126.07 122.607 126.466C122.757 126.856 122.955 127.18 123.201 127.439C123.447 127.692 123.737 127.883 124.072 128.013C124.413 128.136 124.789 128.197 125.198 128.197C125.608 128.197 125.96 128.15 126.253 128.054C126.554 127.958 126.813 127.853 127.032 127.737C127.257 127.62 127.452 127.515 127.615 127.419C127.786 127.323 127.95 127.276 128.107 127.276C128.319 127.276 128.476 127.354 128.578 127.511L129.305 128.433C129.025 128.761 128.711 129.037 128.363 129.263C128.015 129.481 127.65 129.659 127.267 129.795C126.892 129.925 126.506 130.017 126.11 130.072C125.721 130.126 125.342 130.154 124.973 130.154C124.242 130.154 123.563 130.034 122.935 129.795C122.307 129.549 121.76 129.191 121.296 128.72C120.832 128.242 120.466 127.655 120.2 126.958C119.934 126.255 119.801 125.442 119.801 124.52C119.801 123.804 119.917 123.131 120.149 122.503C120.381 121.868 120.712 121.318 121.142 120.854C121.579 120.383 122.109 120.011 122.73 119.737C123.358 119.464 124.065 119.328 124.85 119.328C125.512 119.328 126.123 119.434 126.683 119.645C127.243 119.857 127.725 120.168 128.128 120.577C128.53 120.98 128.844 121.479 129.07 122.073C129.302 122.66 129.418 123.332 129.418 124.09C129.418 124.473 129.377 124.732 129.295 124.869C129.213 124.998 129.056 125.063 128.824 125.063H122.32Z" fill="#0B0A22"/>
  <path d="M134.719 130.164C133.804 130.164 133.101 129.908 132.609 129.396C132.125 128.877 131.882 128.163 131.882 127.255V121.386H130.807C130.67 121.386 130.554 121.342 130.459 121.253C130.363 121.164 130.315 121.031 130.315 120.854V119.85L132.005 119.574L132.538 116.706C132.572 116.569 132.637 116.463 132.732 116.388C132.828 116.313 132.951 116.276 133.101 116.276H134.412V119.584H137.218V121.386H134.412V127.081C134.412 127.409 134.491 127.665 134.648 127.849C134.811 128.034 135.033 128.126 135.313 128.126C135.47 128.126 135.6 128.109 135.702 128.074C135.812 128.034 135.904 127.993 135.979 127.952C136.061 127.911 136.133 127.873 136.194 127.839C136.256 127.798 136.317 127.777 136.378 127.777C136.454 127.777 136.515 127.798 136.563 127.839C136.611 127.873 136.662 127.928 136.716 128.003L137.474 129.232C137.106 129.539 136.682 129.771 136.204 129.928C135.726 130.085 135.231 130.164 134.719 130.164Z" fill="#0B0A22"/>
  <defs>
    <clipPath id="clip0">
      <rect width="46.5712" height="46.5712" fill="white" transform="translate(45.0002 18.7759)"/>
    </clipPath>
  </defs>
</svg>
