<svg width="22" height="23" viewBox="0 0 22 23" fill="none" 
  xmlns="http://www.w3.org/2000/svg">
  <path d="M19.6087 15.3217H19.6074C18.9608 15.3213 18.5957 14.9858 18.3868 14.2004C18.1732 13.3972 18.166 12.2324 18.1584 10.9991C18.1494 9.50487 18.1391 7.81131 17.7677 6.29668C17.7237 6.11758 17.5427 6.00796 17.3637 6.05188C17.1847 6.0958 17.0751 6.27661 17.1188 6.45571C17.4717 7.894 17.4817 9.54587 17.4906 11.0032C17.4985 12.2802 17.5057 13.4864 17.7412 14.372C17.8437 14.7571 17.9905 15.0736 18.1802 15.3217H4.26484C4.45458 15.0736 4.60143 14.7571 4.70384 14.372C4.93938 13.4864 4.94676 12.2802 4.95448 11.0032C4.96632 9.05352 4.97987 6.84376 5.77758 5.15261C6.67548 3.2489 8.45653 2.32338 11.2226 2.32338C12.7417 2.32338 13.9848 2.60884 14.9172 3.17205C15.7257 3.66028 16.3192 4.35421 16.7318 5.29345C16.8059 5.46226 17.003 5.53911 17.1719 5.46483C17.3407 5.39072 17.4175 5.19378 17.3434 5.0248C16.88 3.9701 16.1799 3.15438 15.2625 2.60027C14.6768 2.24653 13.9891 1.99143 13.2058 1.836C13.1268 0.810641 12.2679 6.10352e-05 11.2226 6.10352e-05C10.1774 6.10352e-05 9.31823 0.810813 9.23983 1.83635C8.49256 1.9844 7.83191 2.22302 7.26493 2.55155C6.35262 3.08027 5.64892 3.85962 5.17338 4.86766C4.31288 6.69211 4.29881 8.98026 4.28663 10.9991C4.27908 12.2324 4.27205 13.3972 4.05829 14.2004C3.84935 14.9858 3.48428 15.3213 2.83771 15.3217H2.83633C1.75676 15.3217 0.878418 16.2 0.878418 17.2797C0.878418 18.3593 1.75676 19.2377 2.83633 19.2377H4.95002C5.13444 19.2377 5.28403 19.0881 5.28403 18.9037C5.28403 18.7192 5.13444 18.5698 4.95002 18.5698H2.83633C2.12508 18.5698 1.54627 17.991 1.54627 17.2797C1.54627 16.5685 2.12491 15.9899 2.83616 15.9897H2.83633H2.83754H19.6074H19.6086H19.6089C20.32 15.9899 20.8986 16.5685 20.8986 17.2797C20.8986 17.991 20.3198 18.5698 19.6086 18.5698H6.28589C6.10147 18.5698 5.95205 18.7192 5.95205 18.9037C5.95205 19.0881 6.10147 19.2377 6.28589 19.2377H7.65676C7.82574 21.0568 9.36009 22.4856 11.2226 22.4856C13.085 22.4856 14.6193 21.0568 14.7883 19.2377H19.6087C20.6883 19.2377 21.5667 18.3593 21.5667 17.2797C21.5667 16.2 20.6883 15.3217 19.6087 15.3217ZM11.2226 0.667911C11.8622 0.667911 12.3971 1.12475 12.5184 1.72913C12.1083 1.68075 11.6767 1.65553 11.2226 1.65553C10.7685 1.65553 10.3369 1.68058 9.92707 1.72896C10.0484 1.12458 10.5831 0.667911 11.2226 0.667911ZM11.2226 21.8178C9.72875 21.8178 8.49444 20.6876 8.32821 19.2377H14.1169C13.9506 20.6876 12.7163 21.8178 11.2226 21.8178Z" fill="#0F0D55"/>
</svg>
