<svg width="108" height="108" viewBox="0 0 108 108" fill="none" 
  xmlns="http://www.w3.org/2000/svg">
  <circle cx="54" cy="54" r="54" fill="#0B0A22"/>
  <g clip-path="url(#clip0)">
    <path d="M43.5506 62.5879C43.5506 61.897 42.9441 61.3364 42.1953 61.3364C41.4465 61.3364 40.84 61.897 40.84 62.5879C40.84 63.2792 41.4465 63.8393 42.1953 63.8393C42.9441 63.8393 43.5506 63.2792 43.5506 62.5879V62.5879Z" fill="#68E781"/>
    <path d="M42.1953 52.4504C41.448 52.4504 40.84 53.0115 40.84 53.7019C40.84 54.3918 41.448 54.9534 42.1953 54.9534C42.9426 54.9534 43.5511 54.3918 43.5511 53.7019C43.5511 53.0115 42.9426 52.4504 42.1953 52.4504Z" fill="#68E781"/>
    <path d="M43.5506 44.8159C43.5506 44.1245 42.9441 43.5644 42.1953 43.5644C41.4465 43.5644 40.84 44.1245 40.84 44.8159C40.84 45.5067 41.4465 46.0673 42.1953 46.0673C42.9441 46.0673 43.5506 45.5067 43.5506 44.8159Z" fill="#68E781"/>
    <path d="M57.2572 81.0192C55.7676 79.5396 54.9295 77.5269 54.9275 75.4273V71.8437H25.0244V75.4423C25.0394 78.8198 27.7799 81.5513 31.1574 81.5558H57.8627C57.6436 81.3975 57.4404 81.2178 57.2572 81.0192V81.0192Z" fill="#0167F6"/>
    <path d="M59.5918 45.6465H48.7575C48.2633 45.6465 47.863 45.2462 47.863 44.752C47.863 44.2583 48.2633 43.8575 48.7575 43.8575H58.6114C57.7468 41.9835 57.302 39.9434 57.308 37.8793C57.311 36.8824 57.4144 35.8885 57.6165 34.9121H33.5419L33.3053 70.0546H55.8679C56.0955 70.0456 56.3162 70.1315 56.4774 70.2922C56.6386 70.453 56.725 70.6736 56.7165 70.9012V75.4283C56.733 78.8133 59.4785 81.5498 62.8634 81.5558H62.8834C66.2554 81.5488 68.9844 78.8138 68.9844 75.4423V52.0705C65.0943 51.3337 61.6889 49.0051 59.5918 45.6465V45.6465ZM42.1953 65.6289C40.4616 65.6289 39.0509 64.2646 39.0509 62.5878C39.0509 60.9116 40.4616 59.5473 42.1953 59.5473C43.9289 59.5473 45.3401 60.9116 45.3401 62.5878C45.3401 64.2646 43.9294 65.6289 42.1953 65.6289ZM42.1953 56.7424C40.4616 56.7424 39.0509 55.3786 39.0509 53.7019C39.0509 52.0251 40.4616 50.6613 42.1953 50.6613C43.9289 50.6613 45.3401 52.0251 45.3401 53.7019C45.3401 55.3781 43.9294 56.7424 42.1953 56.7424ZM42.1953 47.8564C40.4616 47.8564 39.0509 46.4922 39.0509 44.8159C39.0509 43.1392 40.4616 41.7749 42.1953 41.7749C43.9289 41.7749 45.3401 43.1387 45.3401 44.8154C45.3401 46.4922 43.9294 47.8564 42.1953 47.8564ZM62.3872 63.5373H48.7575C48.2633 63.5373 47.863 63.1369 47.863 62.6427C47.863 62.1491 48.2633 61.7482 48.7575 61.7482H62.3872C62.8814 61.7482 63.2818 62.1491 63.2818 62.6427C63.2818 63.1369 62.8814 63.5373 62.3872 63.5373ZM63.2818 53.6974C63.2818 54.1916 62.8814 54.5919 62.3872 54.5919H48.7575C48.2633 54.5919 47.863 54.1916 47.863 53.6974C47.863 53.2037 48.2633 52.8028 48.7575 52.8028H62.3872C62.8814 52.8028 63.2818 53.2037 63.2818 53.6974Z" fill="#68E781"/>
    <circle cx="71.6949" cy="37.9383" r="12.5978" fill="#0167F6"/>
    <path d="M75.5237 38.2135H73.3979L73.8799 39.0828H75.5237V38.2135ZM75.579 42.1332C75.5632 41.9593 75.55 41.7881 75.5395 41.6195C75.5289 41.4509 75.5237 41.2929 75.5237 41.1454V40.0469H74.4173L75.579 42.1332ZM72.2046 39.0828L71.7226 38.2135H70.0315V39.0828H72.2046ZM69.984 35.0921C69.9998 35.2607 70.0104 35.4266 70.0157 35.5899C70.0262 35.748 70.0315 35.8955 70.0315 36.0325V37.2574H71.1852L69.984 35.0921ZM77.0409 38.2135V39.0828H78.3843V39.5965C78.3843 39.7124 78.3369 39.8177 78.2421 39.9126C78.1525 40.0021 78.0393 40.0469 77.9023 40.0469H77.0409V44.3063H75.5711C75.4288 44.3063 75.3077 44.2826 75.2076 44.2352C75.1075 44.1825 75.0126 44.0982 74.9231 43.9823L72.7341 40.0469H70.0315V44.3063H68.5142V40.0469H67.1708V39.0828H68.5142V38.2135H67.1708V37.7078C67.1708 37.5919 67.2156 37.4892 67.3051 37.3996C67.3999 37.3048 67.5185 37.2574 67.6607 37.2574H68.5142V32.9268H69.9998C70.0789 32.9268 70.1474 32.9321 70.2053 32.9426C70.2633 32.9479 70.3133 32.9611 70.3555 32.9821C70.4029 33.0032 70.4477 33.0348 70.4898 33.077C70.5319 33.1191 70.5767 33.1718 70.6241 33.235L72.8605 37.2574H75.5237V32.9268H77.0409V37.2574H78.3843V38.2135H77.0409Z" fill="white"/>
  </g>
  <defs>
    <clipPath id="clip0">
      <rect width="59.2683" height="59.2683" fill="white" transform="translate(25.0244 23.7073)"/>
    </clipPath>
  </defs>
</svg>
