<svg width="58" height="58" viewBox="0 0 58 58" fill="none" 
  xmlns="http://www.w3.org/2000/svg">
  <circle cx="29" cy="29" r="29" fill="#0B0A22"/>
  <g clip-path="url(#clip0)">
    <path d="M23.3882 33.612C23.3882 33.2409 23.0625 32.9399 22.6603 32.9399C22.2582 32.9399 21.9325 33.2409 21.9325 33.612C21.9325 33.9833 22.2582 34.284 22.6603 34.284C23.0625 34.284 23.3882 33.9833 23.3882 33.612Z" fill="#68E781"/>
    <path d="M22.6603 28.1678C22.259 28.1678 21.9325 28.4691 21.9325 28.8399C21.9325 29.2104 22.259 29.5119 22.6603 29.5119C23.0617 29.5119 23.3884 29.2104 23.3884 28.8399C23.3884 28.4691 23.0617 28.1678 22.6603 28.1678Z" fill="#68E781"/>
    <path d="M23.3882 24.0678C23.3882 23.6965 23.0625 23.3957 22.6603 23.3957C22.2582 23.3957 21.9325 23.6965 21.9325 24.0678C21.9325 24.4388 22.2582 24.7398 22.6603 24.7398C23.0625 24.7398 23.3882 24.4388 23.3882 24.0678Z" fill="#68E781"/>
    <path d="M30.7492 43.5103C29.9492 42.7157 29.4991 41.6348 29.498 40.5072V38.5827H13.439V40.5153C13.447 42.3291 14.9188 43.796 16.7326 43.7985H31.0743C30.9566 43.7135 30.8475 43.617 30.7492 43.5103Z" fill="#0167F6"/>
    <path d="M32.0029 24.5139H26.1845C25.9191 24.5139 25.7041 24.2989 25.7041 24.0335C25.7041 23.7683 25.9191 23.5531 26.1845 23.5531H31.4764C31.0121 22.5467 30.7732 21.4511 30.7765 20.3426C30.7781 19.8072 30.8336 19.2734 30.9421 18.7491H18.0132L17.8861 37.6219H30.0031C30.1253 37.6171 30.2438 37.6632 30.3304 37.7495C30.417 37.8358 30.4633 37.9543 30.4588 38.0766V40.5078C30.4676 42.3256 31.9421 43.7953 33.7599 43.7985H33.7706C35.5815 43.7947 37.0471 42.3259 37.0471 40.5153V27.9638C34.958 27.5681 33.1291 26.3175 32.0029 24.5139ZM22.6603 35.2451C21.7293 35.2451 20.9717 34.5125 20.9717 33.612C20.9717 32.7118 21.7293 31.9791 22.6603 31.9791C23.5914 31.9791 24.3492 32.7118 24.3492 33.612C24.3492 34.5125 23.5917 35.2451 22.6603 35.2451ZM22.6603 30.4728C21.7293 30.4728 20.9717 29.7404 20.9717 28.8399C20.9717 27.9394 21.7293 27.207 22.6603 27.207C23.5914 27.207 24.3492 27.9394 24.3492 28.8399C24.3492 29.7401 23.5917 30.4728 22.6603 30.4728ZM22.6603 25.7007C21.7293 25.7007 20.9717 24.968 20.9717 24.0678C20.9717 23.1673 21.7293 22.4346 22.6603 22.4346C23.5914 22.4346 24.3492 23.167 24.3492 24.0675C24.3492 24.968 23.5917 25.7007 22.6603 25.7007ZM33.5042 34.1219H26.1845C25.9191 34.1219 25.7041 33.9069 25.7041 33.6415C25.7041 33.3763 25.9191 33.1611 26.1845 33.1611H33.5042C33.7696 33.1611 33.9846 33.3763 33.9846 33.6415C33.9846 33.9069 33.7696 34.1219 33.5042 34.1219ZM33.9846 28.8375C33.9846 29.1029 33.7696 29.3179 33.5042 29.3179H26.1845C25.9191 29.3179 25.7041 29.1029 25.7041 28.8375C25.7041 28.5723 25.9191 28.3571 26.1845 28.3571H33.5042C33.7696 28.3571 33.9846 28.5723 33.9846 28.8375Z" fill="#68E781"/>
    <ellipse cx="38.5028" cy="20.3743" rx="6.76549" ry="6.76549" fill="#0167F6"/>
    <path d="M40.5589 20.5221H39.4173L39.6762 20.9889H40.5589V20.5221ZM40.5886 22.6271C40.5801 22.5337 40.5731 22.4418 40.5674 22.3512C40.5618 22.2607 40.5589 22.1758 40.5589 22.0966V21.5067H39.9648L40.5886 22.6271ZM38.7765 20.9889L38.5176 20.5221H37.6094V20.9889H38.7765ZM37.5839 18.8458C37.5924 18.9363 37.5981 19.0254 37.6009 19.1131C37.6066 19.198 37.6094 19.2772 37.6094 19.3508V20.0086H38.229L37.5839 18.8458ZM41.3738 20.5221V20.9889H42.0952V21.2648C42.0952 21.327 42.0698 21.3836 42.0188 21.4345C41.9707 21.4826 41.9099 21.5067 41.8363 21.5067H41.3738V23.7941H40.5844C40.508 23.7941 40.4429 23.7814 40.3892 23.7559C40.3354 23.7277 40.2845 23.6824 40.2364 23.6201L39.0608 21.5067H37.6094V23.7941H36.7946V21.5067H36.0731V20.9889H36.7946V20.5221H36.0731V20.2505C36.0731 20.1882 36.0972 20.1331 36.1453 20.085C36.1962 20.034 36.2599 20.0086 36.3362 20.0086H36.7946V17.6829H37.5924C37.6349 17.6829 37.6717 17.6858 37.7028 17.6914C37.7339 17.6942 37.7608 17.7013 37.7834 17.7126C37.8089 17.7239 37.8329 17.7409 37.8556 17.7636C37.8782 17.7862 37.9022 17.8145 37.9277 17.8484L39.1287 20.0086H40.5589V17.6829H41.3738V20.0086H42.0952V20.5221H41.3738Z" fill="white"/>
  </g>
  <defs>
    <clipPath id="clip0">
      <rect width="31.8293" height="31.8293" fill="white" transform="translate(13.439 12.7317)"/>
    </clipPath>
  </defs>
</svg>
