<svg width="178" height="29" viewBox="0 0 178 29" fill="none" 
  xmlns="http://www.w3.org/2000/svg">
  <path d="M150.867 14.4071H142.111C142.14 15.3113 142.488 16.1745 143.092 16.8392C143.676 17.4374 144.479 17.761 145.308 17.732C146.01 17.732 146.592 17.5657 147.052 17.2209C147.506 16.8823 148.021 16.2542 148.596 15.3368L150.976 16.6914C150.612 17.3256 150.219 17.8736 149.813 18.3354C149.401 18.7848 148.965 19.1542 148.493 19.4559C148.023 19.7445 147.513 19.9584 146.979 20.0901C146.4 20.2301 145.806 20.2983 145.211 20.2933C143.388 20.2933 141.923 19.7022 140.821 18.5078C139.719 17.3133 139.168 15.7247 139.168 13.7421C139.168 11.778 139.701 10.1895 140.773 8.97654C141.85 7.7759 143.279 7.17866 145.06 7.17866C146.858 7.17866 148.275 7.75743 149.322 8.92113C150.358 10.0787 150.879 11.6795 150.879 13.7298L150.867 14.4071ZM147.966 12.0613C147.573 10.5281 146.628 9.76465 145.12 9.76465C144.139 9.75164 143.222 10.2576 142.698 11.1007C142.516 11.3977 142.382 11.7218 142.299 12.0613H147.966ZM152.968 7.52346H155.789V8.63174C156.184 8.17695 156.651 7.79203 157.17 7.49268C157.623 7.27209 158.121 7.16444 158.623 7.17866C159.368 7.17866 160.143 7.42495 160.954 7.91752L159.665 10.5404C159.214 10.1802 158.663 9.97535 158.09 9.95552C156.558 9.95552 155.789 11.1377 155.789 13.502V19.9424H152.968V7.52346ZM164.799 7.52346V19.9424H161.978V7.52346H164.799ZM161.554 4.88206C161.554 4.38334 161.735 3.94618 162.093 3.58907C162.456 3.21964 162.88 3.03493 163.382 3.03493C163.891 3.03493 164.327 3.21964 164.69 3.58907C165.048 3.94002 165.229 4.37718 165.229 4.89438C165.229 5.41773 165.048 5.85489 164.684 6.22431C164.339 6.59374 163.903 6.77229 163.395 6.77229C162.886 6.77229 162.45 6.58758 162.093 6.21815C161.729 5.85489 161.548 5.41157 161.548 4.88206H161.554ZM170.303 10.1957V19.9485H167.47V10.1957H166.464V7.52346H167.47V5.25149C167.47 3.68758 167.736 2.58546 168.269 1.93896C169.008 1.04002 170.073 0.584396 171.478 0.584396C171.981 0.584396 172.61 0.738324 173.373 1.03387V3.96465H171.581C170.988 3.96465 170.751 3.96465 170.527 4.27251C170.352 4.62346 170.303 4.93748 170.303 5.9534V7.52346H175.026V10.1957H170.303Z" fill="#0F0D55"/>
  <path d="M177.382 7.52348V19.9424H174.56V7.52348H177.382ZM174.136 4.88208C174.136 4.38335 174.318 3.9462 174.675 3.58908C175.038 3.21966 175.462 3.03494 175.965 3.03494C176.473 3.03494 176.909 3.21966 177.267 3.58908C177.63 3.94004 177.812 4.37719 177.812 4.89439C177.812 5.41775 177.63 5.8549 177.267 6.22433C176.922 6.59375 176.486 6.77231 175.977 6.77231C175.468 6.77231 175.032 6.5876 174.675 6.21817C174.312 5.8549 174.13 5.41159 174.13 4.88208H174.136Z" fill="#0F0D55"/>
  <path d="M126.017 9.45064C127.984 11.3593 130.861 14.2717 130.861 14.2717C130.861 14.2717 137.461 5.50393 143.709 1.28015L144.194 2.7517C141.911 4.37102 135.051 13.268 132.362 21.1368C132.362 21.1368 125.199 13.1634 123.837 11.347L126.017 9.45064Z" fill="#68E781"/>
  <path d="M132.223 27.2631C136.661 27.2631 140.567 24.9234 142.801 21.3893H144.727C141.922 26.6253 136.247 29.5763 130.431 28.8222C124.614 28.0682 119.848 23.7636 118.426 17.9796C117.003 12.1955 119.215 6.11644 123.998 2.66719C128.781 -0.782071 135.154 -0.895189 140.052 2.38226L138.926 3.65678C134.404 0.75782 128.573 1.08275 124.39 4.46688C120.206 7.85102 118.584 13.5547 120.344 18.6873C122.105 23.8199 126.865 27.2596 132.211 27.2631H132.223Z" fill="#0F0D55"/>
  <path d="M3.10139 13.9855C3.42205 13.9855 3.70155 13.9465 3.93989 13.8685C4.17822 13.7862 4.37539 13.6713 4.53139 13.524C4.69172 13.3723 4.81089 13.1903 4.88889 12.978C4.96689 12.7613 5.00589 12.5208 5.00589 12.2565C5.00589 12.0052 4.96689 11.7777 4.88889 11.574C4.81089 11.3703 4.69389 11.197 4.53789 11.054C4.38189 10.911 4.18472 10.8027 3.94639 10.729C3.70805 10.651 3.42639 10.612 3.10139 10.612H1.79489V13.9855H3.10139ZM3.10139 9.26C3.72972 9.26 4.27355 9.33367 4.73289 9.481C5.19222 9.62833 5.57139 9.83417 5.87039 10.0985C6.16939 10.3628 6.39039 10.6792 6.53339 11.0475C6.68072 11.4158 6.75439 11.8188 6.75439 12.2565C6.75439 12.7115 6.67855 13.1297 6.52689 13.511C6.37522 13.888 6.14772 14.213 5.84439 14.486C5.54105 14.759 5.15972 14.9713 4.70039 15.123C4.24539 15.2747 3.71239 15.3505 3.10139 15.3505H1.79489V18.659H0.0463867V9.26H3.10139Z" fill="#0F0D55"/>
  <path d="M11.1616 15.812C10.6979 15.8337 10.3079 15.8748 9.99159 15.9355C9.67526 15.9918 9.42176 16.0655 9.23109 16.1565C9.04042 16.2475 8.90392 16.3537 8.82159 16.475C8.73926 16.5963 8.69809 16.7285 8.69809 16.8715C8.69809 17.1532 8.78042 17.3547 8.94509 17.476C9.11409 17.5973 9.33292 17.658 9.60159 17.658C9.93092 17.658 10.2148 17.5995 10.4531 17.4825C10.6958 17.3612 10.9319 17.1792 11.1616 16.9365V15.812ZM7.48259 12.9195C8.24959 12.2175 9.17259 11.8665 10.2516 11.8665C10.6416 11.8665 10.9904 11.9315 11.2981 12.0615C11.6058 12.1872 11.8658 12.3648 12.0781 12.5945C12.2904 12.8198 12.4508 13.0907 12.5591 13.407C12.6718 13.7233 12.7281 14.07 12.7281 14.447V18.659H12.0001C11.8484 18.659 11.7314 18.6373 11.6491 18.594C11.5668 18.5463 11.5018 18.4532 11.4541 18.3145L11.3111 17.8335C11.1421 17.9852 10.9774 18.1195 10.8171 18.2365C10.6568 18.3492 10.4899 18.4445 10.3166 18.5225C10.1433 18.6005 9.95692 18.659 9.75759 18.698C9.56259 18.7413 9.34592 18.763 9.10759 18.763C8.82592 18.763 8.56592 18.7262 8.32759 18.6525C8.08926 18.5745 7.88342 18.4597 7.71009 18.308C7.53676 18.1563 7.40242 17.9678 7.30709 17.7425C7.21176 17.5172 7.16409 17.255 7.16409 16.956C7.16409 16.787 7.19226 16.6202 7.24859 16.4555C7.30492 16.2865 7.39592 16.1262 7.52159 15.9745C7.65159 15.8228 7.81842 15.6798 8.02209 15.5455C8.22576 15.4112 8.47492 15.2942 8.76959 15.1945C9.06859 15.0948 9.41526 15.0147 9.80959 14.954C10.2039 14.889 10.6546 14.85 11.1616 14.837V14.447C11.1616 14.0007 11.0663 13.6713 10.8756 13.459C10.6849 13.2423 10.4098 13.134 10.0501 13.134C9.79009 13.134 9.57342 13.1643 9.40009 13.225C9.23109 13.2857 9.08159 13.355 8.95159 13.433C8.82159 13.5067 8.70242 13.5738 8.59409 13.6345C8.49009 13.6952 8.37309 13.7255 8.24309 13.7255C8.13042 13.7255 8.03509 13.6973 7.95709 13.641C7.87909 13.5803 7.81626 13.511 7.76859 13.433L7.48259 12.9195Z" fill="#0F0D55"/>
  <path d="M20.1077 11.99L16.4742 20.492C16.4266 20.6047 16.3637 20.6892 16.2857 20.7455C16.2121 20.8062 16.0972 20.8365 15.9412 20.8365H14.7452L15.9932 18.1585L13.2957 11.99H14.7062C14.8319 11.99 14.9294 12.0203 14.9987 12.081C15.0724 12.1417 15.1266 12.211 15.1612 12.289L16.5782 15.747C16.6259 15.864 16.6649 15.981 16.6952 16.098C16.7299 16.215 16.7624 16.3342 16.7927 16.4555C16.8317 16.3342 16.8707 16.215 16.9097 16.098C16.9487 15.9767 16.9921 15.8575 17.0397 15.7405L18.3787 12.289C18.4134 12.2023 18.4697 12.1308 18.5477 12.0745C18.6301 12.0182 18.7211 11.99 18.8207 11.99H20.1077Z" fill="#0F0D55"/>
  <path d="M24.8345 13.29C24.7912 13.3593 24.7457 13.4092 24.698 13.4395C24.6504 13.4655 24.5897 13.4785 24.516 13.4785C24.438 13.4785 24.3535 13.4568 24.2625 13.4135C24.1759 13.3702 24.074 13.3225 23.957 13.2705C23.84 13.2142 23.7057 13.1643 23.554 13.121C23.4067 13.0777 23.2312 13.056 23.0275 13.056C22.7112 13.056 22.462 13.1232 22.28 13.2575C22.1024 13.3918 22.0135 13.5673 22.0135 13.784C22.0135 13.927 22.059 14.0483 22.15 14.148C22.2454 14.2433 22.3689 14.3278 22.5205 14.4015C22.6765 14.4752 22.852 14.5423 23.047 14.603C23.242 14.6593 23.4392 14.7222 23.6385 14.7915C23.8422 14.8608 24.0415 14.941 24.2365 15.032C24.4315 15.1187 24.6049 15.2313 24.7565 15.37C24.9125 15.5043 25.036 15.6668 25.127 15.8575C25.2224 16.0482 25.27 16.2778 25.27 16.5465C25.27 16.8672 25.2115 17.164 25.0945 17.437C24.9819 17.7057 24.8129 17.9397 24.5875 18.139C24.3622 18.334 24.0827 18.4878 23.749 18.6005C23.4197 18.7088 23.0384 18.763 22.605 18.763C22.3754 18.763 22.15 18.7413 21.929 18.698C21.7124 18.659 21.5022 18.6027 21.2985 18.529C21.0992 18.4553 20.9129 18.3687 20.7395 18.269C20.5705 18.1693 20.421 18.061 20.291 17.944L20.6615 17.333C20.7092 17.2593 20.7655 17.203 20.8305 17.164C20.8955 17.125 20.9779 17.1055 21.0775 17.1055C21.1772 17.1055 21.2704 17.1337 21.357 17.19C21.448 17.2463 21.552 17.307 21.669 17.372C21.786 17.437 21.9225 17.4977 22.0785 17.554C22.2389 17.6103 22.4404 17.6385 22.683 17.6385C22.8737 17.6385 23.0362 17.6168 23.1705 17.5735C23.3092 17.5258 23.4219 17.4652 23.5085 17.3915C23.5995 17.3178 23.6645 17.2333 23.7035 17.138C23.7469 17.0383 23.7685 16.9365 23.7685 16.8325C23.7685 16.6765 23.7209 16.5487 23.6255 16.449C23.5345 16.3493 23.411 16.2627 23.255 16.189C23.1034 16.1153 22.9279 16.0503 22.7285 15.994C22.5335 15.9333 22.332 15.8683 22.124 15.799C21.9204 15.7297 21.7189 15.6495 21.5195 15.5585C21.3245 15.4632 21.149 15.344 20.993 15.201C20.8414 15.058 20.7179 14.8825 20.6225 14.6745C20.5315 14.4665 20.486 14.2152 20.486 13.9205C20.486 13.6475 20.5402 13.3875 20.6485 13.1405C20.7569 12.8935 20.915 12.679 21.123 12.497C21.3354 12.3107 21.5975 12.1633 21.9095 12.055C22.2259 11.9423 22.5899 11.886 23.0015 11.886C23.4609 11.886 23.879 11.9618 24.256 12.1135C24.633 12.2652 24.9472 12.4645 25.1985 12.7115L24.8345 13.29Z" fill="#0F0D55"/>
  <path d="M28.1034 9V18.659H26.4979V9H28.1034Z" fill="#0F0D55"/>
  <path d="M31.367 11.99V18.659H29.755V11.99H31.367ZM31.588 10.0465C31.588 10.1852 31.5599 10.3152 31.5035 10.4365C31.4472 10.5578 31.3714 10.664 31.276 10.755C31.185 10.846 31.0767 10.9197 30.951 10.976C30.8254 11.028 30.691 11.054 30.548 11.054C30.4094 11.054 30.2772 11.028 30.1515 10.976C30.0302 10.9197 29.924 10.846 29.833 10.755C29.742 10.664 29.6684 10.5578 29.612 10.4365C29.56 10.3152 29.534 10.1852 29.534 10.0465C29.534 9.9035 29.56 9.76917 29.612 9.6435C29.6684 9.51783 29.742 9.4095 29.833 9.3185C29.924 9.2275 30.0302 9.156 30.1515 9.104C30.2772 9.04767 30.4094 9.0195 30.548 9.0195C30.691 9.0195 30.8254 9.04767 30.951 9.104C31.0767 9.156 31.185 9.2275 31.276 9.3185C31.3714 9.4095 31.4472 9.51783 31.5035 9.6435C31.5599 9.76917 31.588 9.9035 31.588 10.0465Z" fill="#0F0D55"/>
  <path d="M34.6093 16.93C34.7913 17.151 34.9885 17.307 35.2008 17.398C35.4175 17.489 35.6515 17.5345 35.9028 17.5345C36.1455 17.5345 36.3643 17.489 36.5593 17.398C36.7543 17.307 36.919 17.1683 37.0533 16.982C37.192 16.7957 37.2982 16.5617 37.3718 16.28C37.4455 15.994 37.4823 15.6582 37.4823 15.2725C37.4823 14.8825 37.4498 14.5532 37.3848 14.2845C37.3242 14.0115 37.2353 13.7905 37.1183 13.6215C37.0013 13.4525 36.8583 13.329 36.6893 13.251C36.5247 13.173 36.3362 13.134 36.1238 13.134C35.7902 13.134 35.5063 13.2055 35.2723 13.3485C35.0383 13.4872 34.8173 13.6843 34.6093 13.94V16.93ZM34.5248 12.9C34.7978 12.5923 35.1077 12.3432 35.4543 12.1525C35.801 11.9618 36.2083 11.8665 36.6763 11.8665C37.0403 11.8665 37.3718 11.9423 37.6708 12.094C37.9742 12.2457 38.2342 12.4667 38.4508 12.757C38.6718 13.043 38.8408 13.3983 38.9578 13.823C39.0792 14.2433 39.1398 14.7265 39.1398 15.2725C39.1398 15.7708 39.0727 16.2323 38.9383 16.657C38.804 17.0817 38.6112 17.45 38.3598 17.762C38.1128 18.074 37.8117 18.3188 37.4563 18.4965C37.1053 18.6698 36.711 18.7565 36.2733 18.7565C35.9007 18.7565 35.5822 18.7002 35.3178 18.5875C35.0535 18.4705 34.8173 18.3102 34.6093 18.1065V20.8365H33.0038V11.99H33.9853C34.1933 11.99 34.3298 12.0875 34.3948 12.2825L34.5248 12.9Z" fill="#0F0D55"/>
  <path d="M45.1591 16.93C45.3411 17.151 45.5383 17.307 45.7506 17.398C45.9673 17.489 46.2013 17.5345 46.4526 17.5345C46.6953 17.5345 46.9141 17.489 47.1091 17.398C47.3041 17.307 47.4688 17.1683 47.6031 16.982C47.7418 16.7957 47.848 16.5617 47.9216 16.28C47.9953 15.994 48.0321 15.6582 48.0321 15.2725C48.0321 14.8825 47.9996 14.5532 47.9346 14.2845C47.874 14.0115 47.7851 13.7905 47.6681 13.6215C47.5511 13.4525 47.4081 13.329 47.2391 13.251C47.0745 13.173 46.886 13.134 46.6736 13.134C46.34 13.134 46.0561 13.2055 45.8221 13.3485C45.5881 13.4872 45.3671 13.6843 45.1591 13.94V16.93ZM45.0746 12.9C45.3476 12.5923 45.6575 12.3432 46.0041 12.1525C46.3508 11.9618 46.7581 11.8665 47.2261 11.8665C47.5901 11.8665 47.9216 11.9423 48.2206 12.094C48.524 12.2457 48.784 12.4667 49.0006 12.757C49.2216 13.043 49.3906 13.3983 49.5076 13.823C49.629 14.2433 49.6896 14.7265 49.6896 15.2725C49.6896 15.7708 49.6225 16.2323 49.4881 16.657C49.3538 17.0817 49.161 17.45 48.9096 17.762C48.6626 18.074 48.3615 18.3188 48.0061 18.4965C47.6551 18.6698 47.2608 18.7565 46.8231 18.7565C46.4505 18.7565 46.132 18.7002 45.8676 18.5875C45.6033 18.4705 45.3671 18.3102 45.1591 18.1065V20.8365H43.5536V11.99H44.5351C44.7431 11.99 44.8796 12.0875 44.9446 12.2825L45.0746 12.9Z" fill="#0F0D55"/>
  <path d="M53.8933 11.886C54.3873 11.886 54.8358 11.9662 55.2388 12.1265C55.6461 12.2868 55.9928 12.5143 56.2788 12.809C56.5691 13.1037 56.7923 13.4633 56.9483 13.888C57.1043 14.3127 57.1823 14.7872 57.1823 15.3115C57.1823 15.8402 57.1043 16.3168 56.9483 16.7415C56.7923 17.1662 56.5691 17.528 56.2788 17.827C55.9928 18.126 55.6461 18.3557 55.2388 18.516C54.8358 18.6763 54.3873 18.7565 53.8933 18.7565C53.395 18.7565 52.9421 18.6763 52.5348 18.516C52.1275 18.3557 51.7786 18.126 51.4883 17.827C51.2023 17.528 50.9791 17.1662 50.8188 16.7415C50.6628 16.3168 50.5848 15.8402 50.5848 15.3115C50.5848 14.7872 50.6628 14.3127 50.8188 13.888C50.9791 13.4633 51.2023 13.1037 51.4883 12.809C51.7786 12.5143 52.1275 12.2868 52.5348 12.1265C52.9421 11.9662 53.395 11.886 53.8933 11.886ZM53.8933 17.5215C54.448 17.5215 54.8575 17.3352 55.1218 16.9625C55.3905 16.5898 55.5248 16.0438 55.5248 15.3245C55.5248 14.6052 55.3905 14.057 55.1218 13.68C54.8575 13.303 54.448 13.1145 53.8933 13.1145C53.33 13.1145 52.9118 13.3052 52.6388 13.6865C52.3701 14.0635 52.2358 14.6095 52.2358 15.3245C52.2358 16.0395 52.3701 16.5855 52.6388 16.9625C52.9118 17.3352 53.33 17.5215 53.8933 17.5215Z" fill="#0F0D55"/>
  <path d="M67.8154 11.99L65.6964 18.659H64.4094C64.2621 18.659 64.1602 18.5637 64.1039 18.373L62.9079 14.5185C62.8689 14.3885 62.8321 14.2607 62.7974 14.135C62.7671 14.005 62.7411 13.875 62.7194 13.745C62.6934 13.875 62.6631 14.0072 62.6284 14.1415C62.5981 14.2715 62.5634 14.4015 62.5244 14.5315L61.3089 18.373C61.2569 18.5637 61.1421 18.659 60.9644 18.659H59.7294L57.6169 11.99H58.8974C59.0144 11.99 59.1141 12.0182 59.1964 12.0745C59.2787 12.1308 59.3329 12.2023 59.3589 12.289L60.3144 15.851C60.3621 16.046 60.4032 16.2367 60.4379 16.423C60.4769 16.6093 60.5094 16.7957 60.5354 16.982C60.5831 16.7957 60.6329 16.6093 60.6849 16.423C60.7412 16.2367 60.7997 16.046 60.8604 15.851L61.9654 12.276C61.9914 12.1893 62.0412 12.1178 62.1149 12.0615C62.1929 12.0052 62.2861 11.977 62.3944 11.977H63.1029C63.2155 11.977 63.3109 12.0052 63.3889 12.0615C63.4712 12.1178 63.5254 12.1893 63.5514 12.276L64.6239 15.851C64.6802 16.046 64.7322 16.2388 64.7799 16.4295C64.8319 16.6158 64.8817 16.8022 64.9294 16.9885C64.9857 16.6202 65.0659 16.241 65.1699 15.851L66.1514 12.289C66.1817 12.2023 66.2359 12.1308 66.3139 12.0745C66.3919 12.0182 66.4851 11.99 66.5934 11.99H67.8154Z" fill="#0F0D55"/>
  <path d="M72.9107 14.5575C72.9107 14.3495 72.8803 14.1545 72.8197 13.9725C72.7633 13.7862 72.6767 13.6237 72.5597 13.485C72.4427 13.3463 72.2932 13.238 72.1112 13.16C71.9335 13.0777 71.7255 13.0365 71.4872 13.0365C71.0235 13.0365 70.6573 13.1687 70.3887 13.433C70.1243 13.6973 69.9553 14.0722 69.8817 14.5575H72.9107ZM69.8492 15.526C69.8752 15.8683 69.9358 16.1652 70.0312 16.4165C70.1265 16.6635 70.2522 16.8693 70.4082 17.034C70.5642 17.1943 70.7483 17.3157 70.9607 17.398C71.1773 17.476 71.4157 17.515 71.6757 17.515C71.9357 17.515 72.1588 17.4847 72.3452 17.424C72.5358 17.3633 72.7005 17.2962 72.8392 17.2225C72.9822 17.1488 73.1057 17.0817 73.2097 17.021C73.318 16.9603 73.422 16.93 73.5217 16.93C73.656 16.93 73.7557 16.9798 73.8207 17.0795L74.2822 17.6645C74.1045 17.8725 73.9052 18.048 73.6842 18.191C73.4632 18.3297 73.2313 18.4423 72.9887 18.529C72.7503 18.6113 72.5055 18.6698 72.2542 18.7045C72.0072 18.7392 71.7667 18.7565 71.5327 18.7565C71.069 18.7565 70.6378 18.6807 70.2392 18.529C69.8405 18.373 69.4938 18.1455 69.1992 17.8465C68.9045 17.5432 68.6727 17.1705 68.5037 16.7285C68.3347 16.2822 68.2502 15.7665 68.2502 15.1815C68.2502 14.7265 68.3238 14.2997 68.4712 13.901C68.6185 13.498 68.8287 13.1492 69.1017 12.8545C69.379 12.5555 69.7148 12.3193 70.1092 12.146C70.5078 11.9727 70.9563 11.886 71.4547 11.886C71.875 11.886 72.2628 11.9532 72.6182 12.0875C72.9735 12.2218 73.279 12.419 73.5347 12.679C73.7903 12.9347 73.9897 13.251 74.1327 13.628C74.28 14.0007 74.3537 14.4275 74.3537 14.9085C74.3537 15.1512 74.3277 15.3158 74.2757 15.4025C74.2237 15.4848 74.124 15.526 73.9767 15.526H69.8492Z" fill="#0F0D55"/>
  <path d="M77.073 13.147C77.281 12.7483 77.528 12.4363 77.814 12.211C78.1 11.9813 78.438 11.8665 78.828 11.8665C79.1357 11.8665 79.3827 11.9337 79.569 12.068L79.465 13.2705C79.4433 13.3485 79.4108 13.4048 79.3675 13.4395C79.3285 13.4698 79.2743 13.485 79.205 13.485C79.14 13.485 79.0425 13.4742 78.9125 13.4525C78.7868 13.4308 78.6633 13.42 78.542 13.42C78.3643 13.42 78.2062 13.446 78.0675 13.498C77.9288 13.55 77.8032 13.6258 77.6905 13.7255C77.5822 13.8208 77.4847 13.9378 77.398 14.0765C77.3157 14.2152 77.2377 14.3733 77.164 14.551V18.659H75.5585V11.99H76.501C76.6657 11.99 76.7805 12.0203 76.8455 12.081C76.9105 12.1373 76.9538 12.2413 76.9755 12.393L77.073 13.147Z" fill="#0F0D55"/>
  <path d="M84.5142 14.5575C84.5142 14.3495 84.4839 14.1545 84.4232 13.9725C84.3669 13.7862 84.2802 13.6237 84.1632 13.485C84.0462 13.3463 83.8967 13.238 83.7147 13.16C83.537 13.0777 83.329 13.0365 83.0907 13.0365C82.627 13.0365 82.2609 13.1687 81.9922 13.433C81.7279 13.6973 81.5589 14.0722 81.4852 14.5575H84.5142ZM81.4527 15.526C81.4787 15.8683 81.5394 16.1652 81.6347 16.4165C81.73 16.6635 81.8557 16.8693 82.0117 17.034C82.1677 17.1943 82.3519 17.3157 82.5642 17.398C82.7809 17.476 83.0192 17.515 83.2792 17.515C83.5392 17.515 83.7624 17.4847 83.9487 17.424C84.1394 17.3633 84.304 17.2962 84.4427 17.2225C84.5857 17.1488 84.7092 17.0817 84.8132 17.021C84.9215 16.9603 85.0255 16.93 85.1252 16.93C85.2595 16.93 85.3592 16.9798 85.4242 17.0795L85.8857 17.6645C85.708 17.8725 85.5087 18.048 85.2877 18.191C85.0667 18.3297 84.8349 18.4423 84.5922 18.529C84.3539 18.6113 84.109 18.6698 83.8577 18.7045C83.6107 18.7392 83.3702 18.7565 83.1362 18.7565C82.6725 18.7565 82.2414 18.6807 81.8427 18.529C81.444 18.373 81.0974 18.1455 80.8027 17.8465C80.508 17.5432 80.2762 17.1705 80.1072 16.7285C79.9382 16.2822 79.8537 15.7665 79.8537 15.1815C79.8537 14.7265 79.9274 14.2997 80.0747 13.901C80.222 13.498 80.4322 13.1492 80.7052 12.8545C80.9825 12.5555 81.3184 12.3193 81.7127 12.146C82.1114 11.9727 82.5599 11.886 83.0582 11.886C83.4785 11.886 83.8664 11.9532 84.2217 12.0875C84.577 12.2218 84.8825 12.419 85.1382 12.679C85.3939 12.9347 85.5932 13.251 85.7362 13.628C85.8835 14.0007 85.9572 14.4275 85.9572 14.9085C85.9572 15.1512 85.9312 15.3158 85.8792 15.4025C85.8272 15.4848 85.7275 15.526 85.5802 15.526H81.4527Z" fill="#0F0D55"/>
  <path d="M91.348 13.693C91.166 13.472 90.9667 13.316 90.75 13.225C90.5377 13.134 90.308 13.0885 90.061 13.0885C89.8184 13.0885 89.5995 13.134 89.4045 13.225C89.2095 13.316 89.0427 13.4547 88.904 13.641C88.7654 13.823 88.6592 14.057 88.5855 14.343C88.5119 14.6247 88.475 14.9583 88.475 15.344C88.475 15.734 88.5054 16.0655 88.566 16.3385C88.631 16.6072 88.722 16.8282 88.839 17.0015C88.956 17.1705 89.099 17.294 89.268 17.372C89.437 17.4457 89.6255 17.4825 89.8335 17.4825C90.1672 17.4825 90.451 17.4132 90.685 17.2745C90.919 17.1358 91.14 16.9387 91.348 16.683V13.693ZM92.9535 9V18.659H91.972C91.7597 18.659 91.6254 18.5615 91.569 18.3665L91.4325 17.723C91.1639 18.0307 90.854 18.2798 90.503 18.4705C90.1564 18.6612 89.7512 18.7565 89.2875 18.7565C88.9235 18.7565 88.5899 18.6807 88.2865 18.529C87.9832 18.3773 87.721 18.1585 87.5 17.8725C87.2834 17.5822 87.1144 17.2247 86.993 16.8C86.876 16.3753 86.8175 15.89 86.8175 15.344C86.8175 14.85 86.8847 14.3907 87.019 13.966C87.1534 13.5413 87.3462 13.173 87.5975 12.861C87.8489 12.549 88.15 12.3063 88.501 12.133C88.852 11.9553 89.2464 11.8665 89.684 11.8665C90.0567 11.8665 90.3752 11.925 90.6395 12.042C90.9039 12.159 91.14 12.3172 91.348 12.5165V9H92.9535Z" fill="#0F0D55"/>
  <path d="M99.3046 16.93C99.4866 17.151 99.6838 17.307 99.8961 17.398C100.113 17.489 100.34 17.5345 100.579 17.5345C100.826 17.5345 101.047 17.4912 101.242 17.4045C101.441 17.3135 101.61 17.1748 101.749 16.9885C101.887 16.7978 101.993 16.5573 102.067 16.267C102.141 15.9723 102.178 15.6213 102.178 15.214C102.178 14.4817 102.056 13.953 101.814 13.628C101.571 13.2987 101.222 13.134 100.767 13.134C100.459 13.134 100.191 13.2055 99.9611 13.3485C99.7315 13.4872 99.5126 13.6843 99.3046 13.94V16.93ZM99.3046 12.809C99.5733 12.5273 99.8701 12.3042 100.195 12.1395C100.524 11.9705 100.899 11.886 101.32 11.886C101.705 11.886 102.052 11.9618 102.36 12.1135C102.672 12.2652 102.936 12.484 103.153 12.77C103.374 13.0517 103.543 13.394 103.66 13.797C103.777 14.2 103.835 14.6528 103.835 15.1555C103.835 15.6972 103.768 16.189 103.634 16.631C103.499 17.073 103.306 17.4522 103.055 17.7685C102.808 18.0805 102.509 18.3232 102.158 18.4965C101.807 18.6698 101.417 18.7565 100.988 18.7565C100.78 18.7565 100.592 18.7348 100.423 18.6915C100.254 18.6525 100.098 18.5962 99.9546 18.5225C99.8116 18.4488 99.6795 18.36 99.5581 18.256C99.4411 18.1477 99.3285 18.0285 99.2201 17.8985L99.1486 18.347C99.1226 18.4597 99.0771 18.5398 99.0121 18.5875C98.9515 18.6352 98.867 18.659 98.7586 18.659H97.6991V9H99.3046V12.809Z" fill="#0F0D55"/>
  <path d="M110.943 11.99L107.309 20.492C107.262 20.6047 107.199 20.6892 107.121 20.7455C107.047 20.8062 106.932 20.8365 106.776 20.8365H105.58L106.828 18.1585L104.131 11.99H105.541C105.667 11.99 105.764 12.0203 105.834 12.081C105.907 12.1417 105.962 12.211 105.996 12.289L107.413 15.747C107.461 15.864 107.5 15.981 107.53 16.098C107.565 16.215 107.597 16.3342 107.628 16.4555C107.667 16.3342 107.706 16.215 107.745 16.098C107.784 15.9767 107.827 15.8575 107.875 15.7405L109.214 12.289C109.248 12.2023 109.305 12.1308 109.383 12.0745C109.465 12.0182 109.556 11.99 109.656 11.99H110.943Z" fill="#0F0D55"/>
</svg>
