<svg width="58" height="58" viewBox="0 0 58 58" fill="none" xmlns="http://www.w3.org/2000/svg">
<circle cx="29" cy="29" r="29" fill="#0B0A22"/>
<path d="M25.1551 42H31.5688C39.5861 42 40.6551 37.0169 40.6551 34.5172C40.6551 24.3621 36.1655 17.6184 29.9654 16.8793L33.1723 12.069L32.4812 11.3779C32.2393 11.136 31.911 11 31.5688 11C31.2267 11 30.8984 11.136 30.6565 11.3779L29.9654 12.069L29.2743 11.3779C29.0324 11.136 28.7041 11 28.362 11C28.0198 11 27.6915 11.136 27.4496 11.3779L26.7585 12.069L26.0674 11.3779C25.8255 11.136 25.4972 11 25.1551 11C24.8129 11 24.4846 11.136 24.2427 11.3779L23.5516 12.069L26.7585 16.8793C20.5527 17.6106 16.0688 24.3621 16.0688 34.5172C16.0688 37.0177 17.1378 42 25.1551 42Z" fill="#0167F6"/>
<path d="M27.2932 16.8793C27.2932 18.06 26.3359 19.0172 25.1553 19.0172C23.9746 19.0172 23.0173 18.06 23.0173 16.8793C23.0173 15.6986 23.9746 14.7414 25.1553 14.7414C26.3359 14.7414 27.2932 15.6986 27.2932 16.8793Z" fill="#4DB5FF"/>
<path d="M33.707 16.8793C33.707 18.06 32.7497 19.0172 31.5691 19.0172C30.3884 19.0172 29.4312 18.06 29.4312 16.8793C29.4312 15.6986 30.3884 14.7414 31.5691 14.7414C32.7497 14.7414 33.707 15.6986 33.707 16.8793Z" fill="#4DB5FF"/>
<path d="M30.5 16.8793H29.431C29.431 16.289 28.9524 15.8103 28.3621 15.8103C27.7717 15.8103 27.2931 16.289 27.2931 16.8793H26.2241C26.2241 15.6986 27.1814 14.7414 28.3621 14.7414C29.5427 14.7414 30.5 15.6986 30.5 16.8793Z" fill="#354468"/>
<path d="M33.7069 16.8793H32.6379C32.6403 14.8139 34.3139 13.1403 36.3793 13.1379H37.4483V14.2069H36.3793C34.904 14.2087 33.7087 15.404 33.7069 16.8793Z" fill="#354468"/>
<path d="M24.0862 16.8793H23.0173C23.0154 15.404 21.8202 14.2087 20.3448 14.2069H19.2759V13.1379H20.3448C22.4102 13.1403 24.0839 14.8139 24.0862 16.8793Z" fill="#354468"/>
<path d="M44.931 42V25.431C44.931 23.3646 43.256 21.6897 41.1896 21.6897C39.1232 21.6897 37.4482 23.3646 37.4482 25.431V25.9655H39.5862V25.431C39.5862 24.5455 40.3041 23.8276 41.1896 23.8276C42.0751 23.8276 42.7931 24.5455 42.7931 25.431V42H44.931Z" fill="#415887"/>
<path d="M31.1492 30.864H29.2692L29.6532 31.592H31.1492V30.864ZM31.2132 34.52C31.1919 34.3227 31.1759 34.128 31.1652 33.936C31.1545 33.744 31.1492 33.5627 31.1492 33.392V32.688H30.2372L31.2132 34.52ZM27.7492 31.592L27.3652 30.864H25.8612V31.592H27.7492ZM25.8052 27.928C25.8265 28.1147 25.8399 28.2987 25.8452 28.48C25.8559 28.656 25.8612 28.8213 25.8612 28.976V29.768H26.7812L25.8052 27.928ZM32.9172 30.864V31.592H34.2212V32.176C34.2212 32.304 34.1679 32.4213 34.0612 32.528C33.9599 32.6347 33.8265 32.688 33.6612 32.688H32.9172V37H31.1812C31.0159 37 30.8745 36.9733 30.7572 36.92C30.6452 36.8613 30.5359 36.7653 30.4292 36.632L28.3332 32.688H25.8612V37H24.0852V32.688H22.7812V31.592H24.0852V30.864H22.7812V30.28C22.7812 30.152 22.8345 30.0347 22.9412 29.928C23.0479 29.8213 23.1812 29.768 23.3412 29.768H24.0852V25.432H25.8372C25.9279 25.432 26.0052 25.4373 26.0692 25.448C26.1385 25.4533 26.1972 25.4693 26.2452 25.496C26.2985 25.5173 26.3492 25.552 26.3972 25.6C26.4452 25.6427 26.4985 25.7013 26.5572 25.776L28.6852 29.768H31.1492V25.432H32.9172V29.768H34.2212V30.864H32.9172Z" fill="#68E781"/>
</svg>
