<svg width="18" height="18" viewBox="0 0 18 18" fill="none" 
  xmlns="http://www.w3.org/2000/svg">
  <path d="M8.93482 9.6989C8.95346 9.6989 8.9721 9.6989 8.99446 9.6989C9.00191 9.6989 9.00937 9.6989 9.01682 9.6989C9.02801 9.6989 9.04292 9.6989 9.0541 9.6989C10.1463 9.68027 11.0297 9.29634 11.682 8.56202C13.1171 6.94429 12.8785 4.17105 12.8524 3.9064C12.7592 1.91965 11.8199 0.969145 11.0446 0.525575C10.4668 0.193829 9.79214 0.0149099 9.03919 0H9.0131C9.00937 0 9.00191 0 8.99819 0H8.97582C8.56207 0 7.74948 0.0670946 6.97044 0.510665C6.18767 0.954235 5.23343 1.90474 5.14025 3.9064C5.11415 4.17105 4.8756 6.94429 6.31067 8.56202C6.95926 9.29634 7.84267 9.68027 8.93482 9.6989ZM6.13548 3.99959C6.13548 3.9884 6.13921 3.97722 6.13921 3.96977C6.26222 1.29716 8.1595 1.01015 8.97209 1.01015H8.98701C8.99446 1.01015 9.00564 1.01015 9.01682 1.01015C10.0232 1.03251 11.7342 1.44253 11.8497 3.96977C11.8497 3.98095 11.8497 3.99213 11.8534 3.99959C11.8572 4.02568 12.1181 6.56037 10.9327 7.8948C10.4631 8.4241 9.83687 8.68503 9.0131 8.69248C9.00564 8.69248 9.00191 8.69248 8.99446 8.69248C8.987 8.69248 8.98328 8.69248 8.97582 8.69248C8.15578 8.68503 7.52583 8.4241 7.0599 7.8948C5.87829 6.56782 6.13176 4.02195 6.13548 3.99959Z" fill="#0167F6"/>
  <path d="M16.6544 14.2986C16.6544 14.2949 16.6544 14.2912 16.6544 14.2874C16.6544 14.2576 16.6507 14.2278 16.6507 14.1942C16.6283 13.4562 16.5798 11.7304 14.9621 11.1787C14.9509 11.175 14.936 11.1713 14.9248 11.1675C13.2437 10.7389 11.8459 9.76972 11.831 9.75854C11.6036 9.59826 11.2905 9.65417 11.1303 9.88155C10.97 10.1089 11.0259 10.422 11.2533 10.5823C11.3166 10.627 12.8002 11.6596 14.6565 12.1367C15.525 12.4461 15.6219 13.3742 15.648 14.2241C15.648 14.2576 15.648 14.2874 15.6517 14.3173C15.6554 14.6527 15.6331 15.1708 15.5734 15.469C14.9696 15.812 12.6026 16.9973 9.00186 16.9973C5.41603 16.9973 3.03417 15.8082 2.42659 15.4653C2.36695 15.1671 2.34086 14.649 2.34831 14.3135C2.34831 14.2837 2.35204 14.2539 2.35204 14.2203C2.37813 13.3705 2.47505 12.4423 3.34355 12.1329C5.19983 11.6558 6.68337 10.6196 6.74674 10.5786C6.97411 10.4183 7.03003 10.1052 6.86974 9.87782C6.70946 9.65044 6.39635 9.59453 6.16898 9.75481C6.15407 9.76599 4.76372 10.7351 3.07517 11.1638C3.06026 11.1675 3.04908 11.1713 3.0379 11.175C1.42017 11.7304 1.37171 13.4562 1.34935 14.1905C1.34935 14.2241 1.34935 14.2539 1.34562 14.2837C1.34562 14.2874 1.34562 14.2912 1.34562 14.2949C1.34189 14.4887 1.33816 15.484 1.53572 15.9834C1.573 16.0804 1.64009 16.1624 1.72955 16.2183C1.84137 16.2928 4.52143 18 9.00559 18C13.4898 18 16.1698 16.2891 16.2816 16.2183C16.3674 16.1624 16.4382 16.0804 16.4755 15.9834C16.6618 15.4877 16.6581 14.4924 16.6544 14.2986Z" fill="#0167F6"/>
</svg>
