<svg width="58" height="58" viewBox="0 0 58 58" fill="none" 
  xmlns="http://www.w3.org/2000/svg">
  <circle cx="29" cy="29" r="29" fill="#0B0A22"/>
  <path d="M27.3161 21.3322C27.1295 21.7368 27.0878 22.1933 27.198 22.625H30.9426C31.0623 22.158 31.0031 21.6632 30.7768 21.2375C30.5504 20.8119 30.1732 20.4862 29.7191 20.3243C29.265 20.1625 28.7668 20.1761 28.3223 20.3625C27.8777 20.549 27.5189 20.8948 27.3161 21.3322Z" fill="#68E781"/>
  <path d="M21.7812 35.2188V34.8962C21.2266 34.9512 20.6786 35.0598 20.145 35.2207C20.7054 35.3852 21.2799 35.4964 21.8612 35.553C21.804 35.4512 21.7764 35.3354 21.7812 35.2188Z" fill="#68E781"/>
  <path d="M26.1552 36.6331C25.6708 36.6588 25.1738 36.6719 24.6875 36.6719C23.4766 36.6719 21.1569 36.6031 19.8438 36.1255V37.5137C20.222 37.7481 21.8718 38.125 24.6875 38.125C27.5032 38.125 29.153 37.7481 29.5312 37.5137V36.5992C28.9103 36.6428 28.2675 36.6719 27.5938 36.6719C27.12 36.6719 26.6361 36.6583 26.1552 36.6331Z" fill="#68E781"/>
  <path d="M36.4916 22.625C36.2238 21.9926 36.0935 21.3106 36.1094 20.624L25.7166 15.7803C24.8045 16.5928 23.6163 17.026 22.3953 16.9912L20.8235 20.3649C21.3889 21.0062 21.774 21.7861 21.9395 22.625H26.2049C26.1101 22.0472 26.1912 21.4543 26.4379 20.9234C26.7362 20.2893 27.2535 19.7845 27.8946 19.5017C28.5357 19.2189 29.2574 19.1772 29.9268 19.3843C30.5961 19.5915 31.1681 20.0335 31.5374 20.629C31.9067 21.2244 32.0484 21.9333 31.9365 22.625H36.4916Z" fill="#68E781"/>
  <path d="M39.7031 32.3125C39.9706 32.3125 40.1875 32.0956 40.1875 31.8281C40.1875 31.5606 39.9706 31.3438 39.7031 31.3438C39.4356 31.3438 39.2188 31.5606 39.2188 31.8281C39.2188 32.0956 39.4356 32.3125 39.7031 32.3125Z" fill="#68E781"/>
  <path d="M18.1582 22.625H20.9463C20.775 21.9326 20.4152 21.3012 19.9068 20.8009C19.8355 20.7308 19.7877 20.6404 19.7698 20.5421C19.7519 20.4437 19.7649 20.3423 19.807 20.2516L21.6573 16.2797C21.6995 16.1885 21.7691 16.1127 21.8565 16.063C21.9439 16.0133 22.0446 15.9922 22.1446 16.0027C22.719 16.0606 23.299 15.988 23.8414 15.7902C24.3837 15.5925 24.8744 15.2746 25.2766 14.8605C25.3468 14.7889 25.4374 14.7409 25.5361 14.723C25.6347 14.7052 25.7365 14.7183 25.8273 14.7607L36.8178 19.8854C36.9083 19.9277 36.9835 19.997 37.0331 20.0837C37.0827 20.1704 37.1042 20.2703 37.0948 20.3698C37.0197 21.1521 37.1844 21.9387 37.5671 22.625H39.5405L40.3087 20.9782L22.7467 12.7922L18.1582 22.625Z" fill="#68E781"/>
  <path d="M25.6562 34.1827C25.0372 34.2272 24.3862 34.25 23.7188 34.25C23.4 34.25 23.074 34.2355 22.75 34.2243V35.0904C23.029 35.2575 24.0859 35.5617 26.1648 35.6648C26.6537 35.6904 27.13 35.7031 27.5938 35.7031C28.4172 35.7031 29.2406 35.6668 29.9706 35.5985C31.5443 35.4532 32.2316 35.211 32.4375 35.0889V33.7036C31.1244 34.1812 28.8047 34.25 27.5938 34.25C26.9268 34.25 26.2758 34.2272 25.6562 34.1827Z" fill="#68E781"/>
  <path d="M44.0625 30.8594C44.0625 30.474 43.9094 30.1044 43.6369 29.8319C43.3644 29.5593 42.9948 29.4062 42.6094 29.4062H38.7344C38.349 29.4062 37.9794 29.5593 37.7069 29.8319C37.4343 30.1044 37.2812 30.474 37.2812 30.8594V32.7969C37.2812 33.1823 37.4343 33.5519 37.7069 33.8244C37.9794 34.0969 38.349 34.25 38.7344 34.25H42.6094C42.9948 34.25 43.3644 34.0969 43.6369 33.8244C43.9094 33.5519 44.0625 33.1823 44.0625 32.7969V30.8594ZM39.7031 33.2812C39.4157 33.2812 39.1348 33.196 38.8958 33.0364C38.6568 32.8767 38.4706 32.6497 38.3606 32.3842C38.2506 32.1187 38.2219 31.8265 38.2779 31.5446C38.334 31.2628 38.4724 31.0038 38.6756 30.8006C38.8788 30.5974 39.1378 30.459 39.4196 30.4029C39.7015 30.3469 39.9937 30.3756 40.2592 30.4856C40.5247 30.5956 40.7517 30.7818 40.9114 31.0208C41.071 31.2598 41.1562 31.5407 41.1562 31.8281C41.1562 32.2135 41.0032 32.5831 40.7306 32.8556C40.4581 33.1282 40.0885 33.2812 39.7031 33.2812Z" fill="#0167F6"/>
  <path d="M19.8438 30.375V30.2074C19.6187 30.2511 19.3965 30.308 19.1782 30.3779C19.4057 30.4494 19.6371 30.5075 19.8714 30.5518C19.8539 30.4945 19.8446 30.4349 19.8438 30.375Z" fill="#68E781"/>
  <path d="M29.5314 32.7968C29.5393 32.951 29.4899 33.1026 29.3928 33.2226C30.3211 33.1858 31.242 33.043 32.1378 32.7968C31.2878 32.5588 30.4132 32.4196 29.5314 32.3817V32.7968Z" fill="#68E781"/>
  <path d="M16.9375 24.0781V39.5781C16.9375 39.7066 16.9885 39.8298 17.0794 39.9206C17.1702 40.0115 17.2934 40.0625 17.4219 40.0625H40.6719C40.8003 40.0625 40.9235 40.0115 41.0144 39.9206C41.1052 39.8298 41.1562 39.7066 41.1562 39.5781V35.2188H38.7344C38.0923 35.218 37.4767 34.9626 37.0227 34.5085C36.5687 34.0545 36.3133 33.439 36.3125 32.7969V30.8594C36.3133 30.2173 36.5687 29.6017 37.0227 29.1477C37.4767 28.6937 38.0923 28.4383 38.7344 28.4375H41.1562V24.0781C41.1562 23.9497 41.1052 23.8265 41.0144 23.7356C40.9235 23.6448 40.8003 23.5938 40.6719 23.5938H17.4219C17.2934 23.5938 17.1702 23.6448 17.0794 23.7356C16.9885 23.8265 16.9375 23.9497 16.9375 24.0781ZM17.9062 30.375C17.9062 29.8209 18.4972 29.4687 19.8438 29.2212V27.9531C19.8438 27.5172 20.41 26.5 25.6562 26.5C27.4039 26.5 31.4688 26.6414 31.4688 27.9531V30.375C31.4688 30.8681 30.9975 31.1984 29.9483 31.4406C33.3995 31.7313 33.4062 32.5222 33.4062 32.7969V35.2188C33.4062 35.5137 33.399 36.1875 30.5 36.5164V37.6406C30.5 38.9523 26.4351 39.0938 24.6875 39.0938C22.9399 39.0938 18.875 38.9523 18.875 37.6406V35.2188C18.875 34.9664 18.875 34.4384 20.6861 34.0839C17.9135 33.7559 17.9062 33.0521 17.9062 32.7969V30.375Z" fill="#0167F6"/>
  <path d="M25.6209 33.2144C27.51 33.0812 28.3334 32.7993 28.5625 32.6666V31.6712C27.5976 31.7792 26.6272 31.8316 25.6562 31.8281C25.3366 31.8281 25.0217 31.8233 24.7166 31.8136C24.3828 31.8233 24.053 31.8281 23.7188 31.8281C22.5078 31.8281 20.1881 31.7593 18.875 31.2817V32.6685C19.154 32.8356 20.2109 33.1398 22.2898 33.243C23.3997 33.3022 24.5122 33.2927 25.6209 33.2144Z" fill="#68E781"/>
  <path d="M25.6562 30.8594C26.7659 30.8672 27.8746 30.7945 28.9737 30.6419C29.5011 30.5951 30.017 30.4606 30.5 30.2437V28.8536C29.6969 29.1578 28.2496 29.4062 25.6562 29.4062C24.4453 29.4062 22.1256 29.3375 20.8125 28.8599V30.2476C21.1152 30.4278 22.3417 30.7669 24.7035 30.8453C25.0319 30.8545 25.3419 30.8594 25.6562 30.8594Z" fill="#68E781"/>
  <path d="M25.6562 28.4375C28.1695 28.4375 30.2069 28.2206 30.2069 27.9531C30.2069 27.6856 28.1695 27.4688 25.6562 27.4688C23.1429 27.4688 21.1055 27.6856 21.1055 27.9531C21.1055 28.2206 23.1429 28.4375 25.6562 28.4375Z" fill="#68E781"/>
</svg>
