<svg width="30" height="30" viewBox="0 0 30 30" fill="none" 
  xmlns="http://www.w3.org/2000/svg">
  <path d="M28.8879 11.8733L15.7363 3.81252C15.2845 3.5358 14.7155 3.5358 14.2637 3.81252L1.11214 11.8733C0.694199 12.1294 0.439453 12.5844 0.439453 13.0747V25.437C0.439453 25.9557 0.860138 26.3764 1.37878 26.3764H28.6212C29.1399 26.3764 29.5605 25.9557 29.5605 25.437V13.0747C29.5605 12.5844 29.3058 12.1294 28.8879 11.8733Z" fill="#FFE09F"/>
  <path d="M0.82814 12.1037C0.745056 12.1911 0.674103 12.2889 0.615967 12.3937L15 21.2098C15 21.2098 25.2437 14.9313 29.3839 12.3937C29.326 12.2889 29.255 12.1911 29.172 12.1037C29.1717 12.1035 29.1717 12.1035 29.1717 12.1033C29.0886 12.0156 28.9934 11.938 28.8877 11.8732L21.1309 7.1189H8.86922L1.11218 11.8732C1.00667 11.938 0.911453 12.0156 0.828369 12.1033C0.828369 12.1033 0.82814 12.1035 0.82814 12.1037Z" fill="#F6D190"/>
  <path d="M15 21.2098C15 21.2098 22.451 16.643 27.2119 13.7249V8.52795H2.78796V13.7249L15 21.2098Z" fill="#ECEAEC"/>
  <path d="M27.2119 13.7249V11.765L15 19.2497L2.78796 11.765V13.7249L15 21.2098C15 21.2098 22.451 16.6429 27.2119 13.7249Z" fill="#DAD8DB"/>
  <path d="M9.12872 15.1037C9.12872 15.7522 8.60298 16.2779 7.95456 16.2779C7.30614 16.2779 6.7804 15.7522 6.7804 15.1037C6.7804 14.4553 7.30614 13.9296 7.95456 13.9296C8.60298 13.9296 9.12872 14.4553 9.12872 15.1037Z" fill="#B9CDA5"/>
  <path d="M23.2197 15.1037C23.2197 15.7522 22.6939 16.2779 22.0455 16.2779C21.3971 16.2779 20.8713 15.7522 20.8713 15.1037C20.8713 14.4553 21.3971 13.9296 22.0455 13.9296C22.6939 13.9296 23.2197 14.4553 23.2197 15.1037Z" fill="#B9CDA5"/>
  <path d="M18.7575 15.1037C18.7575 12.5095 17.0753 10.4068 15 10.4068C12.9247 10.4068 11.2424 12.5095 11.2424 15.1037C11.2424 17.6976 12.9247 19.8006 15 19.8006C17.0753 19.8006 18.7575 17.6976 18.7575 15.1037Z" fill="#B9CDA5"/>
  <path d="M16.7221 16.8526C16.2048 16.5353 15.6108 16.3678 15.0038 16.3678C14.3973 16.3678 13.8031 16.5353 13.2859 16.8526L11.8773 17.7157C12.5516 18.9727 13.6981 19.8006 15 19.8006C16.303 19.8006 17.4504 18.9711 18.1244 17.712L16.7221 16.8526Z" fill="#96B49B"/>
  <path d="M15.9857 18.054C15.3833 17.6846 14.6246 17.6846 14.0222 18.054L0.790283 26.1637C0.951874 26.2946 1.15466 26.3764 1.37874 26.3764H28.6212C28.8466 26.3764 29.051 26.2935 29.2128 26.161L15.9857 18.054Z" fill="#FFF0C3"/>
  <path d="M7.04247 14.3724C6.88087 14.5736 6.7804 14.8256 6.7804 15.1037C6.7804 15.7524 7.30614 16.2779 7.95456 16.2779C8.43063 16.2779 8.83827 15.9934 9.02275 15.5862L7.04247 14.3724Z" fill="#96B49B"/>
  <path d="M22.0455 16.2779C22.6939 16.2779 23.2197 15.7521 23.2197 15.1037C23.2197 14.8256 23.1192 14.5736 22.9576 14.3724L20.9773 15.5862C21.1618 15.9934 21.5694 16.2779 22.0455 16.2779Z" fill="#96B49B"/>
  <path d="M29.1174 11.4986L27.6514 10.6V8.52791C27.6514 8.28529 27.4548 8.08846 27.212 8.08846H23.5538L15.9659 3.43803C15.3701 3.07274 14.6299 3.07274 14.0339 3.43803L6.44623 8.08846H2.78801C2.54517 8.08846 2.34856 8.28529 2.34856 8.52791V10.6L0.882568 11.4986C0.338058 11.832 0 12.4361 0 13.0746V25.437C0 26.1974 0.618668 26.8158 1.37878 26.8158H28.6212C29.3816 26.8158 30 26.1971 30 25.437V13.0746C30 12.4361 29.6619 11.832 29.1174 11.4986ZM28.6581 12.2479C28.6782 12.2603 28.6979 12.2736 28.7169 12.2871L27.6514 12.9401V11.6309L28.6581 12.2479ZM14.4933 4.18739C14.8059 3.99582 15.1941 3.99582 15.5067 4.18739L21.8719 8.08846H8.12828L14.4933 4.18739ZM26.7725 8.96736V13.4789L26.1257 13.8753C25.9188 14.0023 25.8538 14.2728 25.9806 14.4798C26.0635 14.615 26.2079 14.6896 26.3557 14.6896C26.434 14.6896 26.5132 14.6686 26.5849 14.6249L29.1209 13.0705L29.1211 13.0746V25.437C29.1211 25.4865 29.1135 25.5338 29.1003 25.5789L18.9063 19.3309L24.8909 15.6631C25.0978 15.536 25.1628 15.2655 25.036 15.0586C24.9092 14.8517 24.6387 14.7867 24.4318 14.9137L23.8879 15.247C23.8916 15.1996 23.8939 15.152 23.8939 15.1037C23.8939 14.0845 23.0647 13.2552 22.0454 13.2552C21.0262 13.2552 20.197 14.0845 20.197 15.1037C20.197 15.872 20.668 16.5319 21.3366 16.8107L18.0654 18.8155L17.9576 18.7495C18.7489 17.7889 19.197 16.4852 19.197 15.1037C19.197 13.3337 18.4618 11.7702 17.3456 10.8463H22.5151C22.7579 10.8463 22.9546 10.6494 22.9546 10.4068C22.9546 10.164 22.7579 9.96735 22.5151 9.96735H7.48489C7.24228 9.96735 7.04544 10.164 7.04544 10.4068C7.04544 10.6494 7.24228 10.8463 7.48489 10.8463H12.6544C11.5382 11.7702 10.803 13.3337 10.803 15.1037C10.803 16.4896 11.2493 17.7903 12.041 18.7505L11.9346 18.8155L8.66364 16.8107C9.33197 16.5319 9.80324 15.872 9.80324 15.1037C9.80324 14.0845 8.974 13.2552 7.95479 13.2552C6.93535 13.2552 6.10611 14.0845 6.10611 15.1037C6.10611 15.152 6.10863 15.1996 6.11229 15.247L3.22746 13.4789V8.96736H26.7725ZM9.38644 20.8928C9.25941 20.6859 8.98888 20.6209 8.78197 20.7477L0.899734 25.5789C0.886459 25.5338 0.878906 25.4862 0.878906 25.437V13.0746L0.879135 13.0703L11.0937 19.3309L10.3793 19.7688C10.1724 19.8956 10.1074 20.1661 10.2342 20.373C10.361 20.5799 10.6316 20.6449 10.8387 20.5181L14.4933 18.278C14.8059 18.0865 15.1941 18.0865 15.5067 18.278L28.0025 25.9369H1.99745L9.24133 21.497C9.44824 21.3702 9.51324 21.0997 9.38644 20.8928ZM6.98502 15.1037C6.98502 14.569 7.41989 14.1341 7.95456 14.1341C8.48923 14.1341 8.9241 14.569 8.9241 15.1037C8.9241 15.6384 8.48923 16.0732 7.95456 16.0732C7.41989 16.0732 6.98502 15.6384 6.98502 15.1037ZM21.0757 15.1037C21.0757 14.569 21.5108 14.1341 22.0454 14.1341C22.5801 14.1341 23.015 14.569 23.015 15.1037C23.015 15.6384 22.5801 16.0732 22.0454 16.0732C21.5108 16.0732 21.0757 15.6384 21.0757 15.1037ZM2.34856 11.6309V12.9401L1.28311 12.2871C1.30234 12.2733 1.32179 12.2601 1.34193 12.2477L2.34856 11.6309Z" fill="black"/>
  <path d="M24.394 10.8463H25.3334C25.576 10.8463 25.7728 10.6494 25.7728 10.4068C25.7728 10.164 25.576 9.96735 25.3334 9.96735H24.394C24.1512 9.96735 23.9546 10.164 23.9546 10.4068C23.9546 10.6494 24.1512 10.8463 24.394 10.8463Z" fill="black"/>
  <path d="M4.66663 10.8463H5.60596C5.8488 10.8463 6.04541 10.6494 6.04541 10.4068C6.04541 10.164 5.8488 9.96735 5.60596 9.96735H4.66663C4.42401 9.96735 4.22717 10.164 4.22717 10.4068C4.22717 10.6494 4.42401 10.8463 4.66663 10.8463Z" fill="black"/>
</svg>
