<svg width="34" height="20" viewBox="0 0 34 20" fill="none" 
  xmlns="http://www.w3.org/2000/svg">
  <path d="M29.3261 5.383C22.498 -1.44514 11.3889 -1.44514 4.56071 5.383L0 9.94314L4.67385 14.617C8.08763 18.0308 12.572 19.7382 17.0569 19.7382C21.5418 19.7382 26.0255 18.0313 29.4399 14.617L34.0006 10.0563L29.3261 5.383ZM28.6272 13.8049C22.247 20.1845 11.8661 20.1845 5.48595 13.8049L1.62419 9.94314L5.3728 6.19452C11.753 -0.185069 22.1339 -0.185069 28.5141 6.19452L32.3758 10.0563L28.6272 13.8049Z" fill="#0F0D55"/>
  <path d="M16.4096 5.38817C14.1927 5.38817 12.3893 7.19155 12.3893 9.40844C12.3893 9.72547 12.6466 9.98277 12.9636 9.98277C13.2807 9.98277 13.538 9.72547 13.538 9.40844C13.538 7.82503 14.8262 6.53682 16.4096 6.53682C16.7266 6.53682 16.9839 6.27952 16.9839 5.9625C16.9839 5.64547 16.7272 5.38817 16.4096 5.38817Z" fill="#0F0D55"/>
  <path d="M16.9839 2.51655C12.8672 2.51655 9.5177 5.86601 9.5177 9.98277C9.5177 14.0995 12.8672 17.449 16.9839 17.449C21.1007 17.449 24.4501 14.0995 24.4501 9.98277C24.4501 5.86601 21.1012 2.51655 16.9839 2.51655ZM16.9839 16.3003C13.5006 16.3003 10.6663 13.466 10.6663 9.98277C10.6663 6.49949 13.5006 3.6652 16.9839 3.6652C20.4672 3.6652 23.3015 6.49949 23.3015 9.98277C23.3015 13.466 20.4678 16.3003 16.9839 16.3003Z" fill="#0F0D55"/>
</svg>
