<svg width="24" height="24" viewBox="0 0 24 24" fill="none" 
  xmlns="http://www.w3.org/2000/svg">
  <path d="M16.3317 5.86882C16.3317 8.92924 14.3057 11.2376 12 11.2376C9.69413 11.2376 7.66809 8.92924 7.66809 5.86882C7.66809 4.25982 7.85015 2.9228 8.45726 1.9921C9.03223 1.11067 10.0555 0.5 12 0.5C13.9445 0.5 14.9677 1.11067 15.5426 1.99209C16.1497 2.92279 16.3317 4.25981 16.3317 5.86882Z" stroke="#68E781"/>
  <mask id="path-2-inside-1" fill="white">
    <path d="M2.87375 20.6985C2.87293 20.5008 2.87211 20.6428 2.87375 20.6985V20.6985Z"/>
  </mask>
  <path d="M3.87375 20.6943C3.87354 20.6449 3.87332 20.6131 3.8731 20.595C3.87304 20.5905 3.87296 20.5844 3.87282 20.5781C3.87277 20.5754 3.87262 20.569 3.87233 20.5611C3.8722 20.5576 3.87188 20.5491 3.87125 20.5383C3.87094 20.5331 3.87032 20.5232 3.86924 20.5108C3.86867 20.5042 3.86596 20.4718 3.85909 20.431C3.85675 20.4171 3.84699 20.3581 3.82327 20.2856C3.80822 20.243 3.75762 20.1307 3.71861 20.0632C3.62699 19.9401 3.2624 19.6759 2.97226 19.6019C2.63686 19.6252 2.18139 19.8746 2.05888 20.0162C2.00844 20.0943 1.94493 20.2244 1.92686 20.273C1.89933 20.3534 1.88872 20.4194 1.88648 20.4329C1.87929 20.4762 1.87665 20.5106 1.87614 20.5169C1.87511 20.5297 1.87454 20.5399 1.87427 20.5453C1.87333 20.5632 1.87309 20.5778 1.87307 20.5789C1.87291 20.5872 1.87286 20.5945 1.87284 20.5977C1.87271 20.6212 1.87288 20.6837 1.87419 20.7281L3.87332 20.6689C3.87332 20.669 3.8733 20.6682 3.87326 20.6663C3.87322 20.6645 3.87318 20.6622 3.87313 20.6593C3.87304 20.6534 3.87297 20.6466 3.87291 20.6394C3.87286 20.6322 3.87282 20.6253 3.87281 20.6196C3.8728 20.6167 3.8728 20.6143 3.8728 20.6124C3.8728 20.6114 3.87281 20.6107 3.87281 20.6101C3.87281 20.6095 3.87281 20.6093 3.87281 20.6093C3.87281 20.6093 3.87281 20.6095 3.87281 20.6097C3.87281 20.6099 3.8728 20.6103 3.8728 20.6109C3.87279 20.6117 3.87276 20.6143 3.87269 20.6179C3.87265 20.6198 3.87259 20.623 3.87247 20.627C3.87238 20.6301 3.87212 20.6385 3.87157 20.6492C3.87129 20.6544 3.87073 20.6645 3.86971 20.6772C3.86921 20.6835 3.86658 20.7178 3.85939 20.761C3.85715 20.7745 3.84655 20.8405 3.81902 20.9209C3.80096 20.9695 3.73744 21.0996 3.68701 21.1777C3.5645 21.3193 3.10903 21.5687 2.77363 21.592C2.48349 21.518 2.1189 21.2537 2.02729 21.1307C1.98828 21.0631 1.93768 20.9509 1.92264 20.9082C1.89892 20.8358 1.88916 20.7768 1.88682 20.7629C1.87996 20.7221 1.87726 20.6898 1.8767 20.6833C1.87563 20.671 1.87502 20.6612 1.87472 20.6561C1.8741 20.6456 1.87379 20.6375 1.87368 20.6344C1.87342 20.6275 1.87331 20.6223 1.87329 20.6213C1.87323 20.6183 1.87322 20.6172 1.87325 20.6196C1.87336 20.6287 1.87356 20.6533 1.87376 20.7027L3.87375 20.6943Z" fill="#68E781" mask="url(#path-2-inside-1)"/>
  <mask id="path-4-inside-2" fill="white">
    <path d="M21.1259 20.8529C21.1284 20.7988 21.1267 20.4775 21.1259 20.8529V20.8529Z"/>
  </mask>
  <path d="M22.1247 20.9007C22.1275 20.8414 22.1273 20.7181 22.1271 20.6865C22.1271 20.6804 22.1271 20.6735 22.127 20.667C22.1269 20.6638 22.1269 20.6589 22.1267 20.6533C22.1267 20.6505 22.1266 20.6459 22.1264 20.6403C22.1263 20.6369 22.1258 20.6234 22.1247 20.6063C22.1242 20.6001 22.1227 20.5768 22.1189 20.5473C22.1174 20.535 22.1127 20.4991 22.1025 20.4539C22.0967 20.4296 22.0792 20.3682 22.0666 20.3314C22.0415 20.269 21.9406 20.0921 21.8539 19.9867C21.6189 19.8027 20.9565 19.688 20.5981 19.8246C20.4352 19.9511 20.2519 20.1891 20.2099 20.2743C20.1588 20.3918 20.143 20.4943 20.1423 20.4984C20.1335 20.5479 20.1305 20.5878 20.1302 20.592C20.1284 20.6141 20.1277 20.6318 20.1276 20.6346C20.1273 20.641 20.1272 20.6463 20.1271 20.6493C20.1268 20.6597 20.1267 20.67 20.1267 20.6757C20.1264 20.7026 20.1261 20.7572 20.1259 20.8505L22.1259 20.8552C22.1261 20.7609 22.1263 20.7148 22.1265 20.6981C22.1266 20.6929 22.1266 20.6958 22.1264 20.702C22.1264 20.7039 22.1263 20.7083 22.126 20.714C22.1259 20.7162 22.1253 20.7333 22.1235 20.7552C22.1232 20.7592 22.1202 20.7989 22.1114 20.8483C22.1107 20.8525 22.0949 20.9549 22.0438 21.0724C22.0018 21.1576 21.8185 21.3956 21.6557 21.5221C21.2973 21.6587 20.6349 21.5439 20.3999 21.3599C20.3132 21.2546 20.2123 21.0777 20.1872 21.0153C20.1746 20.9785 20.1571 20.9171 20.1513 20.8928C20.1411 20.8477 20.1365 20.8118 20.1349 20.7995C20.1312 20.7701 20.1296 20.747 20.1292 20.741C20.1266 20.7022 20.127 20.6638 20.1272 20.6971C20.1274 20.7458 20.1268 20.8102 20.127 20.805L22.1247 20.9007Z" fill="#68E781" mask="url(#path-4-inside-2)"/>
  <path d="M21.1156 20.4616C21.1151 20.4277 21.1145 20.3939 21.114 20.3603C20.9871 20.3629 20.884 20.4144 20.8174 20.4663L21.1156 20.4616ZM21.1156 20.4616C21.1193 20.6933 21.1218 20.8021 21.1236 20.8418L20.6264 20.8296V20.8295C20.6264 20.8288 20.6267 20.8229 20.6274 20.8146C20.6278 20.8107 20.6286 20.8012 20.6304 20.789L20.6304 20.7888C20.6309 20.7851 20.6364 20.7427 20.654 20.693C20.6596 20.6773 20.6702 20.6498 20.688 20.6176C20.703 20.5907 20.7409 20.5273 20.8133 20.4695C20.8147 20.4684 20.816 20.4674 20.8174 20.4663L21.1156 20.4616ZM14.8161 12.7279C17.4582 13.2277 18.8079 13.8536 19.5593 14.8839C20.3528 15.972 20.5706 17.6223 20.6157 20.4695C20.6185 20.6501 20.6208 20.7589 20.6225 20.8194C20.6232 20.8425 20.6241 20.8705 20.6258 20.893C20.6257 20.9587 20.6256 21.0417 20.6255 21.1456C20.5867 21.1984 20.5256 21.274 20.436 21.3659C20.2272 21.58 19.8598 21.8869 19.2512 22.2018C18.0326 22.8323 15.8356 23.5001 12 23.5001C8.16432 23.5001 5.96733 22.8323 4.74878 22.2018C4.14017 21.8869 3.77278 21.58 3.56405 21.3659C3.47443 21.274 3.41333 21.1984 3.3745 21.1456C3.37442 20.9683 3.3742 20.8442 3.37397 20.7593C3.3747 20.7514 3.37518 20.7447 3.37548 20.7402C3.37638 20.7268 3.37709 20.7116 3.37771 20.6962C3.38017 20.6347 3.38334 20.5114 3.38754 20.2875L3.38754 20.2875C3.43935 17.5182 3.67071 15.9112 4.46659 14.8489C5.22284 13.8395 6.5715 13.222 9.1838 12.7279C9.30946 12.8415 9.4899 12.9841 9.72922 13.125C10.2299 13.4196 10.9782 13.7001 12 13.7001C13.0218 13.7001 13.7701 13.4196 14.2708 13.1249C14.5101 12.9841 14.6905 12.8415 14.8161 12.7279ZM2.88763 20.2781C2.88296 20.5269 2.87967 20.6451 2.87742 20.6921L3.37354 20.6841C3.37344 20.6821 3.37327 20.6791 3.37298 20.6753C3.37274 20.6723 3.37225 20.6663 3.37134 20.6585C3.37073 20.6532 3.36859 20.6349 3.3635 20.6114C3.36116 20.6007 3.35536 20.5753 3.34381 20.5441C3.34371 20.5439 3.34356 20.5434 3.34336 20.5429C3.33826 20.5286 3.30111 20.4241 3.19907 20.3373C3.17796 20.3194 3.15154 20.3002 3.12016 20.2825C3.12015 20.2825 3.12014 20.2825 3.12013 20.2825C3.0602 20.2488 2.98221 20.2208 2.88878 20.2184C2.88839 20.2382 2.888 20.2582 2.88763 20.2781Z" stroke="#68E781"/>
</svg>
