<svg width="60" height="29" viewBox="0 0 60 29" fill="none" xmlns="http://www.w3.org/2000/svg">
<path d="M32.8666 14.4071H24.111C24.1403 15.3112 24.4884 16.1745 25.0919 16.8391C25.6762 17.4374 26.4794 17.7609 27.3081 17.7319C28.0105 17.7319 28.5918 17.5657 29.0519 17.2209C29.5061 16.8822 30.0208 16.2542 30.596 15.3368L32.9756 16.6914C32.6123 17.3255 32.2188 17.8735 31.8131 18.3353C31.4013 18.7848 30.9654 19.1542 30.4931 19.4559C30.0232 19.7445 29.5127 19.9583 28.9793 20.0901C28.4001 20.23 27.8065 20.2982 27.2112 20.2933C25.3886 20.2933 23.9233 19.7022 22.8213 18.5077C21.7192 17.3132 21.1682 15.7247 21.1682 13.7421C21.1682 11.778 21.7011 10.1894 22.7728 8.9765C23.8506 7.77586 25.2796 7.17862 27.0598 7.17862C28.8582 7.17862 30.2751 7.75739 31.3226 8.92108C32.358 10.0786 32.8788 11.6795 32.8788 13.7298L32.8666 14.4071ZM29.9663 12.0612C29.5727 10.5281 28.6281 9.76461 27.1204 9.76461C26.1395 9.7516 25.2224 10.2575 24.6983 11.1007C24.5166 11.3977 24.3818 11.7218 24.2987 12.0612H29.9663ZM34.9678 7.52342H37.7894V8.6317C38.1844 8.17691 38.651 7.79198 39.17 7.49263C39.623 7.27204 40.1212 7.1644 40.6232 7.17862C41.368 7.17862 42.143 7.4249 42.9544 7.91747L41.6647 10.5404C41.2144 10.1802 40.663 9.97531 40.0904 9.95548C38.5584 9.95548 37.7894 11.1376 37.7894 13.502V19.9423H34.9678V7.52342ZM46.7994 7.52342V19.9423H43.9777V7.52342H46.7994ZM43.5539 4.88202C43.5539 4.38329 43.7355 3.94613 44.0928 3.58902C44.4561 3.21959 44.88 3.03488 45.3825 3.03488C45.8912 3.03488 46.3271 3.21959 46.6904 3.58902C47.0477 3.93998 47.2293 4.37713 47.2293 4.89433C47.2293 5.41768 47.0477 5.85484 46.6844 6.22427C46.3392 6.59369 45.9033 6.77225 45.3946 6.77225C44.886 6.77225 44.45 6.58754 44.0928 6.21811C43.7295 5.85484 43.5478 5.41153 43.5478 4.88202H43.5539ZM52.3035 10.1956V19.9485H49.4697V10.1956H48.4646V7.52342H49.4697V5.25144C49.4697 3.68754 49.7361 2.58541 50.269 1.93892C51.0077 1.03998 52.0734 0.584351 53.4782 0.584351C53.9808 0.584351 54.6105 0.738278 55.3734 1.03382V3.96461H53.5811C52.9877 3.96461 52.7516 3.96461 52.5275 4.27246C52.3519 4.62342 52.3035 4.93743 52.3035 5.95335V7.52342H57.0265V10.1956H52.3035Z" fill="#0F0D55"/>
<path d="M59.3819 7.52345V19.9423H56.5602V7.52345H59.3819ZM56.1364 4.88205C56.1364 4.38332 56.318 3.94616 56.6753 3.58905C57.0386 3.21963 57.4624 3.03491 57.965 3.03491C58.4736 3.03491 58.9096 3.21963 59.2668 3.58905C59.6302 3.94001 59.8118 4.37716 59.8118 4.89436C59.8118 5.41771 59.6302 5.85487 59.2668 6.2243C58.9217 6.59372 58.4857 6.77228 57.9771 6.77228C57.4685 6.77228 57.0325 6.58757 56.6753 6.21814C56.312 5.85487 56.1303 5.41156 56.1303 4.88205H56.1364Z" fill="#0F0D55"/>
<path d="M8.01658 9.45064C9.98448 11.3593 12.8606 14.2717 12.8606 14.2717C12.8606 14.2717 19.4607 5.50393 25.7095 1.28015L26.194 2.7517C23.9112 4.37102 17.0508 13.268 14.3623 21.1368C14.3623 21.1368 7.19914 13.1634 5.83675 11.347L8.01658 9.45064Z" fill="#68E781"/>
<path d="M14.223 27.2631C18.6614 27.2631 22.5669 24.9234 24.8013 21.3893H26.7268C23.9226 26.6253 18.2469 29.5763 12.4306 28.8222C6.61434 28.0682 1.84839 23.7636 0.425882 17.9796C-0.996628 12.1955 1.21559 6.11644 5.99813 2.66719C10.7807 -0.782071 17.1543 -0.895189 22.0523 2.38226L20.926 3.65678C16.4037 0.75782 10.5734 1.08275 6.38975 4.46688C2.20613 7.85102 0.583649 13.5547 2.34459 18.6873C4.10554 23.8199 8.86502 27.2596 14.2109 27.2631H14.223Z" fill="#0F0D55"/>
</svg>
