<svg width="60" height="29" viewBox="0 0 60 29" fill="none" 
  xmlns="http://www.w3.org/2000/svg">
  <path d="M32.8666 14.4071H24.111C24.1403 15.3113 24.4884 16.1745 25.0919 16.8392C25.6762 17.4374 26.4794 17.761 27.3081 17.732C28.0105 17.732 28.5918 17.5657 29.0519 17.2209C29.5061 16.8823 30.0208 16.2543 30.596 15.3369L32.9756 16.6914C32.6123 17.3256 32.2188 17.8736 31.8131 18.3354C31.4013 18.7848 30.9654 19.1543 30.4931 19.456C30.0232 19.7445 29.5127 19.9584 28.9793 20.0901C28.4001 20.2301 27.8065 20.2983 27.2112 20.2933C25.3886 20.2933 23.9233 19.7022 22.8213 18.5078C21.7192 17.3133 21.1682 15.7248 21.1682 13.7422C21.1682 11.778 21.7011 10.1895 22.7728 8.97656C23.8506 7.77592 25.2796 7.17868 27.0598 7.17868C28.8582 7.17868 30.2751 7.75745 31.3226 8.92114C32.358 10.0787 32.8788 11.6795 32.8788 13.7298L32.8666 14.4071ZM29.9663 12.0613C29.5727 10.5281 28.6281 9.76467 27.1204 9.76467C26.1395 9.75166 25.2224 10.2576 24.6983 11.1008C24.5166 11.3977 24.3818 11.7218 24.2987 12.0613H29.9663ZM34.9678 7.52348H37.7894V8.63176C38.1844 8.17697 38.651 7.79204 39.17 7.49269C39.623 7.2721 40.1212 7.16446 40.6232 7.17868C41.368 7.17868 42.143 7.42496 42.9544 7.91753L41.6647 10.5405C41.2144 10.1803 40.663 9.97537 40.0904 9.95554C38.5584 9.95554 37.7894 11.1377 37.7894 13.502V19.9424H34.9678V7.52348ZM46.7994 7.52348V19.9424H43.9777V7.52348H46.7994ZM43.5539 4.88208C43.5539 4.38335 43.7355 3.9462 44.0928 3.58908C44.4561 3.21966 44.88 3.03494 45.3825 3.03494C45.8912 3.03494 46.3271 3.21966 46.6904 3.58908C47.0477 3.94004 47.2293 4.37719 47.2293 4.89439C47.2293 5.41775 47.0477 5.8549 46.6844 6.22433C46.3392 6.59375 45.9033 6.77231 45.3946 6.77231C44.886 6.77231 44.45 6.5876 44.0928 6.21817C43.7295 5.8549 43.5478 5.41159 43.5478 4.88208H43.5539ZM52.3035 10.1957V19.9485H49.4697V10.1957H48.4646V7.52348H49.4697V5.2515C49.4697 3.6876 49.7361 2.58547 50.269 1.93898C51.0077 1.04004 52.0734 0.584412 53.4782 0.584412C53.9808 0.584412 54.6105 0.738339 55.3734 1.03388V3.96467H53.5811C52.9877 3.96467 52.7516 3.96467 52.5275 4.27252C52.3519 4.62348 52.3035 4.93749 52.3035 5.95341V7.52348H57.0265V10.1957H52.3035Z" fill="white"/>
  <path d="M59.3819 7.52345V19.9423H56.5602V7.52345H59.3819ZM56.1364 4.88205C56.1364 4.38332 56.318 3.94616 56.6753 3.58905C57.0386 3.21963 57.4624 3.03491 57.965 3.03491C58.4736 3.03491 58.9096 3.21963 59.2668 3.58905C59.6302 3.94001 59.8118 4.37716 59.8118 4.89436C59.8118 5.41771 59.6302 5.85487 59.2668 6.2243C58.9217 6.59372 58.4857 6.77228 57.9771 6.77228C57.4685 6.77228 57.0325 6.58757 56.6753 6.21814C56.312 5.85487 56.1303 5.41156 56.1303 4.88205H56.1364Z" fill="white"/>
  <path d="M8.01658 9.45064C9.98448 11.3593 12.8606 14.2717 12.8606 14.2717C12.8606 14.2717 19.4607 5.50393 25.7095 1.28015L26.194 2.7517C23.9112 4.37102 17.0508 13.268 14.3623 21.1368C14.3623 21.1368 7.19914 13.1634 5.83675 11.347L8.01658 9.45064Z" fill="#68E781"/>
  <path d="M14.223 27.2631C18.6614 27.2631 22.5669 24.9234 24.8013 21.3893H26.7268C23.9226 26.6253 18.2469 29.5763 12.4306 28.8222C6.61434 28.0682 1.84839 23.7636 0.425882 17.9796C-0.996628 12.1955 1.21559 6.11644 5.99813 2.66719C10.7807 -0.782071 17.1543 -0.895189 22.0523 2.38226L20.926 3.65678C16.4037 0.75782 10.5734 1.08275 6.38975 4.46688C2.20613 7.85102 0.583649 13.5547 2.34459 18.6873C4.10554 23.8199 8.86502 27.2596 14.2109 27.2631H14.223Z" fill="white"/>
</svg>
